<svg width="24" height="24" viewBox="0 0 24 24" fill="none" xmlns="http://www.w3.org/2000/svg">
<path d="M21.6045 11.3363C21.6045 10.1305 20.6953 9.13369 19.5266 8.99367V2.94164C19.5266 2.57109 19.2862 2.25731 18.9284 2.16089C18.5707 2.06456 18.2052 2.21494 18.019 2.53523C16.7406 4.7347 14.727 6.23808 12.0343 7.00369C9.99806 7.58259 8.31778 7.49869 8.30156 7.4977C8.27691 7.49629 8.25239 7.49747 8.22811 7.4999H3.92259C1.75969 7.4999 0 9.25959 0 11.4225C0 13.4597 1.56127 15.1386 3.55003 15.3269L4.84866 20.667C5.02059 21.3741 5.64891 21.8679 6.37659 21.8679H7.27791C7.76348 21.8679 8.21409 21.6489 8.51419 21.2671C8.81428 20.8853 8.92055 20.3957 8.80584 19.9239L7.69233 15.345H8.22731C8.25169 15.3475 8.2763 15.3487 8.30114 15.3473C8.31783 15.3464 9.99806 15.2624 12.0343 15.8413C14.727 16.6069 16.7406 18.1103 18.019 20.3097C18.1677 20.5655 18.4306 20.7129 18.7126 20.7129C18.7838 20.7129 18.8563 20.7035 18.9284 20.6841C19.2862 20.5877 19.5266 20.274 19.5266 19.9034V13.8513C20.6953 13.7113 21.6045 12.7145 21.6045 11.5087V11.3363ZM7.74675 19.5364L7.89483 20.1454C7.94119 20.336 7.8983 20.5337 7.77708 20.6879C7.65595 20.842 7.47398 20.9304 7.27791 20.9304H6.37659C6.08273 20.9304 5.82905 20.731 5.75962 20.4455L4.51927 15.3451H6.7275L7.05858 16.7066H6.83452C6.57562 16.7066 6.36577 16.9164 6.36577 17.1753C6.36577 17.4342 6.57562 17.6441 6.83452 17.6441H7.28653L7.51875 18.5989H7.37184C7.11295 18.5989 6.90309 18.8088 6.90309 19.0677C6.90309 19.3266 7.11295 19.5364 7.37184 19.5364H7.74675ZM7.80623 12.4184H4.89314C4.63425 12.4184 4.42439 12.6283 4.42439 12.8872C4.42439 13.146 4.63425 13.3559 4.89314 13.3559H7.80623V14.4076H7.12144C7.11286 14.4071 7.10433 14.4065 7.09561 14.4065H3.92259C3.91814 14.4065 3.91373 14.4072 3.90928 14.4073C2.26945 14.4 0.9375 13.064 0.9375 11.4225C0.9375 9.77653 2.27663 8.4374 3.92259 8.4374H7.80623V12.4184ZM18.589 9.44498V13.4V19.4454C17.1842 17.2608 15.0052 15.7042 12.259 14.9306C10.7384 14.5023 9.42502 14.4167 8.74373 14.4056V12.8872V8.43937C9.42511 8.42826 10.7385 8.34267 12.259 7.91437C15.0052 7.14075 17.1842 5.58422 18.589 3.39956V9.44498ZM20.6669 11.5087C20.6669 12.1965 20.1763 12.7719 19.5265 12.9031V9.94186C20.1762 10.0731 20.6669 10.6485 20.6669 11.3363V11.5087Z" fill="white"/>
<path d="M21.7448 8.68771C21.8574 8.68771 21.9704 8.64735 22.0602 8.56555L23.4122 7.33423C23.6036 7.15991 23.6175 6.86347 23.4432 6.67203C23.2689 6.48064 22.9724 6.46681 22.781 6.64109L21.429 7.87236C21.2376 8.04669 21.2237 8.34313 21.3981 8.53457C21.4906 8.63614 21.6174 8.68771 21.7448 8.68771Z" fill="white"/>
<path d="M22.0603 14.2795C21.8688 14.1052 21.5724 14.1191 21.3981 14.3105C21.2237 14.5018 21.2376 14.7983 21.429 14.9727L22.781 16.2039C22.8709 16.2858 22.9839 16.3261 23.0965 16.3261C23.2238 16.3261 23.3507 16.2746 23.4432 16.173C23.6175 15.9816 23.6036 15.6851 23.4122 15.5108L22.0603 14.2795Z" fill="white"/>
<path d="M23.5312 10.9537H22.493C22.2342 10.9537 22.0243 11.1636 22.0243 11.4225C22.0243 11.6814 22.2342 11.8912 22.493 11.8912H23.5312C23.7901 11.8912 24 11.6814 24 11.4225C24 11.1636 23.7901 10.9537 23.5312 10.9537Z" fill="white"/>
<path d="M3.39467 12.708C3.38295 12.6794 3.36842 12.6522 3.35155 12.6269C3.3342 12.6012 3.31499 12.5773 3.29342 12.5557C3.27139 12.5341 3.24749 12.5144 3.2217 12.4976C3.19639 12.4807 3.1692 12.4662 3.14108 12.4544C3.11249 12.4427 3.08295 12.4338 3.05342 12.4277C2.99295 12.4155 2.93061 12.4155 2.87014 12.4277C2.84014 12.4338 2.81061 12.4427 2.78249 12.4544C2.75436 12.4662 2.7267 12.4807 2.70139 12.4976C2.67561 12.5144 2.6517 12.5341 2.63014 12.5557C2.60858 12.5773 2.58889 12.6012 2.57202 12.6269C2.55514 12.6522 2.54061 12.6794 2.52889 12.708C2.51717 12.7362 2.50827 12.7657 2.50217 12.7957C2.49608 12.8257 2.4928 12.8566 2.4928 12.8871C2.4928 12.9176 2.49608 12.9485 2.50217 12.979C2.50827 13.0085 2.51717 13.038 2.52889 13.0666C2.54061 13.0947 2.55514 13.1219 2.57202 13.1472C2.58889 13.173 2.60858 13.1969 2.63014 13.2185C2.6517 13.2401 2.67561 13.2597 2.70139 13.2771C2.7267 13.294 2.75436 13.3085 2.78249 13.3202C2.81061 13.3319 2.84014 13.3408 2.87014 13.3469C2.90061 13.353 2.93108 13.3558 2.96155 13.3558C2.99249 13.3558 3.02295 13.353 3.05342 13.3469C3.08342 13.3408 3.11249 13.3319 3.14108 13.3202C3.1692 13.3085 3.19639 13.294 3.2217 13.2771C3.24749 13.2597 3.27139 13.2401 3.29342 13.2185C3.31499 13.1969 3.3342 13.173 3.35155 13.1472C3.36842 13.1219 3.38295 13.0947 3.39467 13.0666C3.40639 13.038 3.4153 13.0085 3.42139 12.979C3.42749 12.9485 3.4303 12.9176 3.4303 12.8871C3.4303 12.8566 3.42749 12.8257 3.42139 12.7957C3.4153 12.7657 3.40639 12.7362 3.39467 12.708Z" fill="white"/>
</svg>
