<svg width="14" height="14" viewBox="0 0 14 14" fill="none" xmlns="http://www.w3.org/2000/svg">
<path d="M5.65595 6.20559C5.69445 5.97809 5.76445 5.77509 5.86595 5.59659C5.96745 5.41809 6.10745 5.27458 6.27895 5.16608C6.44345 5.06458 6.64995 5.00858 6.90545 5.00508C7.07345 5.00858 7.22745 5.03658 7.36045 5.09608C7.50395 5.15908 7.62295 5.24309 7.72445 5.34809C7.82595 5.45309 7.90295 5.57909 7.95895 5.71909C8.01495 5.85909 8.04645 6.00959 8.05345 6.16709H9.30645C9.29595 5.83809 9.22945 5.53709 9.11395 5.26408C8.99845 4.99108 8.83045 4.75658 8.62045 4.55708C8.41045 4.35758 8.15845 4.20708 7.86445 4.09858C7.57045 3.99008 7.24495 3.93408 6.88795 3.93408C6.43295 3.93408 6.03745 4.01108 5.70145 4.16858C5.36545 4.32608 5.08545 4.53958 4.86145 4.81258C4.63745 5.08558 4.46945 5.40059 4.36095 5.76109C4.25245 6.12159 4.19995 6.50309 4.19995 6.90559V7.09809C4.19995 7.50409 4.25595 7.88559 4.36445 8.24609C4.47295 8.60659 4.64095 8.92159 4.86495 9.19109C5.08895 9.46059 5.36895 9.67409 5.70845 9.83159C6.04795 9.9891 6.44345 10.0661 6.89845 10.0661C7.22745 10.0661 7.53545 10.0136 7.82245 9.9051C8.10945 9.79659 8.36145 9.64959 8.57845 9.46059C8.79545 9.27159 8.97045 9.05459 9.09645 8.80259C9.22245 8.55059 9.29595 8.28459 9.30645 7.99759H8.05345C8.04645 8.14459 8.01145 8.27759 7.94845 8.40359C7.88545 8.52959 7.80145 8.63459 7.69645 8.72209C7.59145 8.80959 7.46895 8.87959 7.32895 8.92859C7.19595 8.97409 7.05595 8.99859 6.90545 8.99859C6.65345 8.99159 6.44695 8.93909 6.27895 8.83409C6.10395 8.72209 5.96395 8.57859 5.86245 8.40009C5.76095 8.22159 5.69095 8.01859 5.65245 7.78759C5.61395 7.55659 5.59995 7.33259 5.59995 7.09809V6.90559C5.59995 6.66759 5.61745 6.43309 5.65595 6.20559Z" fill="#8E8E8E"/>
<path d="M7 0C3.1325 0 0 3.1325 0 7C0 10.8675 3.1325 14 7 14C10.8675 14 14 10.8675 14 7C14 3.1325 10.8675 0 7 0ZM7 12.6C3.913 12.6 1.4 10.087 1.4 7C1.4 3.913 3.913 1.4 7 1.4C10.087 1.4 12.6 3.913 12.6 7C12.6 10.087 10.087 12.6 7 12.6Z" fill="#8E8E8E"/>
</svg>
