<?xml version="1.0" encoding="utf-8"?>
<!-- Generator: Adobe Illustrator 17.0.0, SVG Export Plug-In . SVG Version: 6.00 Build 0)  -->
<!DOCTYPE svg PUBLIC "-//W3C//DTD SVG 1.1//EN" "http://www.w3.org/Graphics/SVG/1.1/DTD/svg11.dtd">
<svg version="1.1" id="Layer_1" xmlns="http://www.w3.org/2000/svg" xmlns:xlink="http://www.w3.org/1999/xlink" x="0px" y="0px"
	 width="38px" height="38px" viewBox="-5 -5 38 38" enable-background="new -5 -5 38 38" xml:space="preserve">
<g>
	<defs>
		<rect id="SVGID_1_" width="28" height="28"/>
	</defs>
	<clipPath id="SVGID_2_">
		<use xlink:href="#SVGID_1_"  overflow="visible"/>
	</clipPath>
	<g clip-path="url(#SVGID_2_)">
		<path fill="#0099BB" d="M27.125,11.962L27.026,3.49c-0.005-0.414-0.302-0.769-0.709-0.849c-0.39-0.076-5.73,0.311-11.95-2.56
			c-0.233-0.107-0.501-0.107-0.733,0C9.924,1.793,6.007,2.624,1.75,2.624c-0.483,0-0.875,0.392-0.875,0.875v8.473
			c0,7.689,5.372,14.386,12.942,16.008c0.121,0.026,0.246,0.026,0.367,0C21.887,26.33,27.183,19.449,27.125,11.962z M14,26.229
			c-6.603-1.505-11.375-7.47-11.375-14.257V4.369C6.524,4.291,10.437,3.42,14,1.836c3.536,1.572,7.416,2.442,11.286,2.531
			l0.089,7.61C25.372,18.762,20.601,24.724,14,26.229z"/>
		<path fill="#0099BB" d="M18.375,11.375H17.5v-1.313c0-1.93-1.57-3.5-3.5-3.5c-1.93,0-3.5,1.57-3.5,3.5v1.313H9.625
			c-0.483,0-0.875,0.392-0.875,0.875v7c0,0.483,0.392,0.875,0.875,0.875h8.75c0.483,0,0.875-0.392,0.875-0.875v-7
			C19.25,11.767,18.858,11.375,18.375,11.375z M12.25,10.063c0-0.965,0.785-1.75,1.75-1.75c0.965,0,1.75,0.785,1.75,1.75v1.313h-3.5
			V10.063z M17.5,18.375h-7v-5.25h7V18.375z"/>
		<path fill="#0099BB" d="M14,14.438c-0.483,0-0.875,0.392-0.875,0.875v0.875c0,0.483,0.392,0.875,0.875,0.875
			c0.483,0,0.875-0.392,0.875-0.875v-0.875C14.875,14.829,14.483,14.438,14,14.438z"/>
	</g>
</g>
</svg>
