<?xml version="1.0" encoding="utf-8"?>
<!-- Generator: Adobe Illustrator 17.0.0, SVG Export Plug-In . SVG Version: 6.00 Build 0)  -->
<!DOCTYPE svg PUBLIC "-//W3C//DTD SVG 1.1//EN" "http://www.w3.org/Graphics/SVG/1.1/DTD/svg11.dtd">
<svg version="1.1" id="Layer_1" xmlns="http://www.w3.org/2000/svg" xmlns:xlink="http://www.w3.org/1999/xlink" x="0px" y="0px"
	 width="38px" height="38px" viewBox="-4 -4 38 38" enable-background="new -4 -4 38 38" xml:space="preserve">
<path fill="#0099BB" d="M27.115,7.731c0.701-0.82,1.127-1.883,1.127-3.044C28.242,2.103,26.139,0,23.555,0H0v1.758h1.758v15.879
	h10.43v2.846c-1.023,0.363-1.758,1.34-1.758,2.486c0,1.454,1.183,2.637,2.637,2.637s2.637-1.183,2.637-2.637
	c0-1.146-0.735-2.123-1.758-2.486v-2.846h3.164v2.461h1.856L20.137,30h6.835l1.172-9.902H30v-8.672
	C30,9.644,28.77,8.145,27.115,7.731z M23.555,1.758c1.615,0,2.93,1.314,2.93,2.93s-1.314,2.93-2.93,2.93
	c-1.616,0-2.93-1.314-2.93-2.93S21.939,1.758,23.555,1.758z M13.066,23.848c-0.484,0-0.879-0.394-0.879-0.879
	c0-0.485,0.394-0.879,0.879-0.879c0.485,0,0.879,0.394,0.879,0.879C13.945,23.453,13.551,23.848,13.066,23.848z M17.109,11.426
	v4.453H3.516V1.758h16.384c-0.645,0.803-1.032,1.822-1.032,2.93c0,1.161,0.425,2.224,1.127,3.044
	C18.339,8.145,17.109,9.644,17.109,11.426z M25.41,28.242h-3.712l-0.964-8.145h5.639L25.41,28.242z M28.242,18.34h-9.375v-6.914
	c0-1.131,0.92-2.051,2.051-2.051h5.273c1.131,0,2.051,0.92,2.051,2.051V18.34z"/>
</svg>
