<?xml version="1.0" encoding="utf-8"?>
<!-- Generator: Adobe Illustrator 17.0.0, SVG Export Plug-In . SVG Version: 6.00 Build 0)  -->
<!DOCTYPE svg PUBLIC "-//W3C//DTD SVG 1.1//EN" "http://www.w3.org/Graphics/SVG/1.1/DTD/svg11.dtd">
<svg version="1.1" id="Layer_1" xmlns="http://www.w3.org/2000/svg" xmlns:xlink="http://www.w3.org/1999/xlink" x="0px" y="0px"
	 width="38px" height="38px" viewBox="-1 0 38 38" enable-background="new -1 0 38 38" xml:space="preserve">
<path fill="#0099BB" d="M35.243,26.823l-10.219-4.778v-7.194c0-0.19-0.073-0.374-0.204-0.512l-6.075-6.423V3.813h1.053
	c0.411,0,0.745-0.334,0.745-0.745c0-0.411-0.334-0.745-0.745-0.745h-1.053V0.745C18.745,0.334,18.411,0,18,0
	c-0.411,0-0.745,0.334-0.745,0.745v1.578h-1.053c-0.412,0-0.745,0.334-0.745,0.745c0,0.411,0.334,0.745,0.745,0.745h1.053v4.103
	l-6.075,6.423c-0.131,0.138-0.204,0.321-0.204,0.512v7.194L0.757,26.823c-0.373,0.174-0.534,0.618-0.359,0.99
	c0.174,0.373,0.618,0.534,0.991,0.359l1.429-0.668v9.75C2.817,37.666,3.151,38,3.562,38h8.16h3.623h5.31h3.623h8.16
	c0.411,0,0.745-0.334,0.745-0.745v-9.75l1.429,0.668c0.373,0.174,0.816,0.013,0.99-0.359C35.776,27.441,35.615,26.997,35.243,26.823
	z M10.977,36.51H8.373v-4.715c0-0.412-0.334-0.745-0.745-0.745c-0.412,0-0.745,0.334-0.745,0.745v4.715H4.307v-9.702l6.669-3.118
	V36.51z M19.91,36.51h-3.82v-6.39c0-1.053,0.857-1.91,1.91-1.91c0.511,0,0.99,0.199,1.351,0.56c0.361,0.361,0.56,0.841,0.56,1.351
	V36.51z M23.533,22.519V36.51H21.4v-6.39c0-0.908-0.354-1.762-0.996-2.404c-0.642-0.643-1.496-0.997-2.405-0.997
	c-1.875,0-3.4,1.526-3.4,3.401v6.39h-2.133V22.519v-7.371l0,0L18,9.298l5.533,5.85V22.519z M31.692,36.51h-2.576v-3.154
	c0-0.411-0.334-0.745-0.745-0.745c-0.412,0-0.745,0.334-0.745,0.745v3.154h-2.603V23.69l6.669,3.118V36.51z"/>
</svg>
