<?xml version="1.0" encoding="utf-8"?>
<!-- Generator: Adobe Illustrator 17.0.0, SVG Export Plug-In . SVG Version: 6.00 Build 0)  -->
<!DOCTYPE svg PUBLIC "-//W3C//DTD SVG 1.1//EN" "http://www.w3.org/Graphics/SVG/1.1/DTD/svg11.dtd">
<svg version="1.1" id="Layer_1" xmlns="http://www.w3.org/2000/svg" xmlns:xlink="http://www.w3.org/1999/xlink" x="0px" y="0px"
	 width="38px" height="38px" viewBox="-5 -5 38 38" enable-background="new -5 -5 38 38" xml:space="preserve">
<path fill="#0099BB" d="M20.562,11.539h-2.461V9.023c0-0.453-0.367-0.82-0.82-0.82H14c-0.453,0-0.82,0.367-0.82,0.82v2.516h-2.461
	c-0.453,0-0.82,0.367-0.82,0.82v3.281c0,0.453,0.367,0.82,0.82,0.82h2.461v5.797c0,0.453,0.367,0.82,0.82,0.82h3.281
	c0.453,0,0.82-0.367,0.82-0.82v-5.797h2.461c0.453,0,0.82-0.367,0.82-0.82v-3.281C21.383,11.906,21.015,11.539,20.562,11.539z
	 M19.742,14.82h-2.461c-0.453,0-0.82,0.367-0.82,0.82v5.797H14.82v-5.797c0-0.453-0.367-0.82-0.82-0.82h-2.461V13.18H14
	c0.453,0,0.82-0.367,0.82-0.82V9.844h1.641v2.516c0,0.453,0.367,0.82,0.82,0.82h2.461V14.82z"/>
<path fill="#0099BB" d="M25.484,3.281h-2.461V0.82c0-0.453-0.367-0.82-0.82-0.82H4.156C2.799,0,1.695,1.104,1.695,2.461v23.078
	C1.695,26.896,2.799,28,4.156,28c0.806,0,20.392,0,21.328,0c0.453,0,0.82-0.367,0.82-0.82V4.102
	C26.305,3.649,25.937,3.281,25.484,3.281z M4.156,1.641h17.227v1.641c-0.848,0-16.572,0-17.227,0c-0.452,0-0.82-0.368-0.82-0.82
	S3.704,1.641,4.156,1.641z M4.977,26.359h-0.82c-0.452,0-0.82-0.368-0.82-0.82V4.781c0.257,0.091,0.533,0.141,0.82,0.141h0.82
	V26.359z M24.664,26.359c-0.326,0-17.561,0-18.047,0V4.922c0.125,0,17.786,0,18.047,0V26.359z"/>
</svg>
