<?xml version="1.0" encoding="utf-8"?>
<!-- Generator: Adobe Illustrator 17.0.0, SVG Export Plug-In . SVG Version: 6.00 Build 0)  -->
<!DOCTYPE svg PUBLIC "-//W3C//DTD SVG 1.1//EN" "http://www.w3.org/Graphics/SVG/1.1/DTD/svg11.dtd">
<svg version="1.1" id="Layer_1" xmlns="http://www.w3.org/2000/svg" xmlns:xlink="http://www.w3.org/1999/xlink" x="0px" y="0px"
	 width="38px" height="38px" viewBox="-3 -3 38 38" enable-background="new -3 -3 38 38" xml:space="preserve">
<g>
	<defs>
		<rect id="SVGID_1_" width="32" height="32"/>
	</defs>
	<clipPath id="SVGID_2_">
		<use xlink:href="#SVGID_1_"  overflow="visible"/>
	</clipPath>
	<g clip-path="url(#SVGID_2_)">
		<path fill="#0099BB" d="M25.136,1.812C24.096,0.643,22.655,0,21.078,0c-1.76,0-3.286,0.832-4.413,2.407
			c-0.084,0.118-0.163,0.236-0.238,0.353c-0.074-0.117-0.153-0.235-0.237-0.353C15.064,0.832,13.538,0,11.777,0
			C10.2,0,8.759,0.643,7.72,1.812C6.733,2.92,6.19,4.403,6.19,5.985c0,1.72,0.667,3.307,2.1,4.995
			c1.25,1.472,3.043,2.986,5.12,4.739c0.767,0.648,1.561,1.317,2.404,2.048c0.176,0.153,0.395,0.229,0.614,0.229
			c0.219,0,0.438-0.076,0.614-0.229c0.843-0.731,1.636-1.4,2.404-2.048c1.333-1.126,2.485-2.098,3.485-3.041
			c1.94-1.831,3.736-3.909,3.736-6.693C26.666,4.403,26.123,2.921,25.136,1.812z M21.644,11.315
			c-0.962,0.907-2.095,1.864-3.407,2.972c-0.584,0.493-1.183,0.998-1.809,1.535c-0.626-0.537-1.225-1.042-1.809-1.535
			c-4.087-3.45-6.555-5.532-6.555-8.301c0-2.344,1.596-4.111,3.713-4.111c1.131,0,2.093,0.532,2.859,1.582
			c0.629,0.862,0.887,1.755,0.888,1.761c0.113,0.406,0.482,0.687,0.903,0.687c0.421,0,0.791-0.281,0.903-0.687
			c0.009-0.033,0.958-3.343,3.747-3.343c2.117,0,3.713,1.767,3.713,4.111C24.791,7.684,23.909,9.178,21.644,11.315z"/>
		<path fill="#0099BB" d="M29.184,18.878c-0.778,0-1.528,0.326-2.058,0.896l-2.755,2.957c-0.356-1.145-1.425-1.978-2.686-1.978
			h-4.33c-0.606,0-1.191-0.221-1.646-0.621c-2.448-2.154-6.127-2.173-8.598-0.06c-0.51-0.722-1.349-1.194-2.298-1.194H0.941
			c-0.518,0-0.937,0.42-0.937,0.937v11.247c0,0.518,0.42,0.937,0.937,0.937h3.874c0.842,0,1.598-0.372,2.113-0.96l0.555,0.156
			C9.382,31.73,11.345,32,13.317,32h8.369c2.054,0,4.016-0.981,5.249-2.624l4.5-6c0,0,0,0,0,0c0.367-0.49,0.561-1.073,0.561-1.686
			C31.996,20.139,30.735,18.878,29.184,18.878z M5.752,29.188c0,0.517-0.42,0.937-0.937,0.937H1.878v-9.373h2.937
			c0.517,0,0.937,0.42,0.937,0.937V29.188z M29.935,22.251C29.935,22.251,29.935,22.251,29.935,22.251l-4.5,6
			c-0.88,1.174-2.282,1.875-3.749,1.875h-8.369c-1.801,0-3.593-0.247-5.326-0.734l-0.367-0.103c0.001-0.033,0.003-0.066,0.003-0.1
			v-7.075l0.653-0.575c1.765-1.553,4.427-1.553,6.192,0c0.797,0.702,1.822,1.088,2.884,1.088h4.33c0.517,0,0.937,0.421,0.937,0.937
			s-0.42,0.937-0.937,0.937h-6.662c-0.518,0-0.937,0.42-0.937,0.937s0.42,0.937,0.937,0.937h7.29c0.778,0,1.528-0.326,2.058-0.895
			l4.126-4.43c0.179-0.193,0.423-0.299,0.686-0.299c0.517,0,0.937,0.42,0.937,0.937C30.122,21.894,30.057,22.088,29.935,22.251z"/>
	</g>
</g>
</svg>
