<?xml version="1.0" encoding="utf-8"?>
<!-- Generator: Adobe Illustrator 17.0.0, SVG Export Plug-In . SVG Version: 6.00 Build 0)  -->
<!DOCTYPE svg PUBLIC "-//W3C//DTD SVG 1.1//EN" "http://www.w3.org/Graphics/SVG/1.1/DTD/svg11.dtd">
<svg version="1.1" id="Layer_1" xmlns="http://www.w3.org/2000/svg" xmlns:xlink="http://www.w3.org/1999/xlink" x="0px" y="0px"
	 width="38px" height="38px" viewBox="-5 -5 38 38" enable-background="new -5 -5 38 38" xml:space="preserve">
<path fill="#0099BB" d="M25.102,3.037c-0.057-0.002-0.115-0.003-0.172-0.001h-2.159V1.181C22.771,0.439,22.063,0,21.32,0h-1.99
	c-0.742,0-1.282,0.439-1.282,1.181v1.855H9.952V1.181C9.952,0.439,9.412,0,8.67,0h-1.99C5.937,0,5.229,0.439,5.229,1.181v1.855H3.07
	C1.692,2.998,0.543,4.084,0.505,5.462C0.503,5.519,0.504,5.577,0.506,5.634v19.499C0.506,26.617,1.585,28,3.07,28h21.86
	c1.484,0,2.564-1.383,2.564-2.867V5.634C27.55,4.256,26.479,3.094,25.102,3.037z M19.33,1.349h2.092V5.06H19.33V1.349z M6.68,1.349
	h1.923V5.06H6.68V1.349z M26.145,25.132c0,0.742-0.472,1.518-1.215,1.518H3.07c-0.742,0-1.214-0.776-1.214-1.518V10.795h24.289
	V25.132z M26.145,5.634v3.812H1.855V5.634C1.798,5.003,2.263,4.445,2.894,4.388C2.953,4.383,3.011,4.382,3.07,4.386h2.159v0.742
	c0,0.742,0.708,1.282,1.451,1.282h1.99c0.689,0.019,1.263-0.524,1.282-1.214c0.001-0.023,0.001-0.046,0-0.068V4.386h8.096v0.742
	c-0.019,0.689,0.524,1.263,1.213,1.282c0.023,0.001,0.046,0.001,0.068,0h1.99c0.742,0,1.451-0.54,1.451-1.282V4.386h2.159
	c0.632-0.04,1.177,0.44,1.217,1.073C26.151,5.517,26.15,5.575,26.145,5.634z"/>
<path fill="#0099BB" d="M10.255,20.005l-0.607,3.373c-0.024,0.145,0,0.293,0.068,0.423c0.173,0.33,0.58,0.458,0.911,0.285
	l3.036-1.586l3.036,1.586l0.304,0.067c0.146,0.003,0.289-0.045,0.405-0.135c0.202-0.147,0.306-0.394,0.27-0.641l-0.607-3.374
	l2.463-2.361c0.176-0.19,0.24-0.459,0.169-0.708c-0.091-0.231-0.295-0.397-0.54-0.439l-3.374-0.506l-1.518-3.07
	c-0.066-0.137-0.176-0.247-0.313-0.313c-0.335-0.162-0.739-0.022-0.901,0.313l-1.518,3.07l-3.373,0.506
	c-0.244,0.042-0.449,0.208-0.54,0.439c-0.071,0.249-0.007,0.518,0.169,0.708L10.255,20.005z M12.111,17.272
	c0.212-0.032,0.391-0.173,0.472-0.371l1.079-2.159l1.08,2.159c0.081,0.198,0.26,0.339,0.472,0.371l2.395,0.337l-1.72,1.653
	c-0.16,0.159-0.235,0.384-0.203,0.607l0.405,2.395l-2.125-1.147l-0.304-0.067l-0.304,0.067l-2.125,1.147l0.405-2.395
	c0.033-0.223-0.042-0.449-0.203-0.607l-1.72-1.653L12.111,17.272z"/>
</svg>
