<?xml version="1.0" encoding="utf-8"?>
<!-- Generator: Adobe Illustrator 17.0.0, SVG Export Plug-In . SVG Version: 6.00 Build 0)  -->
<!DOCTYPE svg PUBLIC "-//W3C//DTD SVG 1.1//EN" "http://www.w3.org/Graphics/SVG/1.1/DTD/svg11.dtd">
<svg version="1.1" id="Layer_1" xmlns="http://www.w3.org/2000/svg" xmlns:xlink="http://www.w3.org/1999/xlink" x="0px" y="0px"
	 width="38px" height="38px" viewBox="-3 -3 38 38" enable-background="new -3 -3 38 38" xml:space="preserve">
<path fill="#0099BB" d="M22.875,24.75c-0.345,0-0.625,0.28-0.625,0.625S22.53,26,22.875,26s0.625-0.28,0.625-0.625
	S23.22,24.75,22.875,24.75z"/>
<path fill="#0099BB" d="M24.414,22.729l-2.971-0.99l-1.066-2.133c0.961-0.978,1.628-2.272,1.853-3.621l0.133-0.797H23.5
	c1.034,0,1.875-0.841,1.875-1.875V9.375C25.375,4.206,21.169,0,16,0c-5.183,0-9.375,4.194-9.375,9.375v3.938
	c0,0.815,0.523,1.509,1.25,1.767v0.733c0,1.034,0.841,1.875,1.875,1.875h0.549c0.271,0.589,0.622,1.134,1.048,1.623
	c0.089,0.102,0.181,0.2,0.275,0.296l-1.066,2.132l-2.971,0.99c-3.454,1.152-5.961,4.788-5.961,8.646C1.625,31.72,1.905,32,2.25,32
	h27.5c0.345,0,0.625-0.28,0.625-0.625C30.375,27.517,27.868,23.881,24.414,22.729z M24.125,13.313c0,0.345-0.28,0.625-0.625,0.625
	h-0.954c0.159-1.231,0.265-2.54,0.307-3.83c0.001-0.036,0.002-0.072,0.003-0.108h1.268V13.313z M8.5,13.938
	c-0.345,0-0.625-0.28-0.625-0.625V10h1.269c0.002,0.065,0.004,0.131,0.007,0.197c0,0.002,0,0.005,0,0.007c0,0,0,0,0,0.001
	c0.044,1.254,0.148,2.53,0.303,3.733L8.5,13.938L8.5,13.938z M9.75,16.438c-0.345,0-0.625-0.28-0.625-0.625v-0.625h0.512
	l0.133,0.797c0.025,0.152,0.057,0.303,0.093,0.453H9.75z M9.126,8.75H7.899c0.317-4.189,3.812-7.5,8.101-7.5
	c4.27,0,7.781,3.311,8.101,7.5h-1.227c-0.045-3.452-2.856-6.25-6.315-6.25h-1.119C11.982,2.5,9.171,5.298,9.126,8.75z M15.441,3.75
	h1.119c2.8,0,5.067,2.291,5.066,5.088c0,0.197-0.002,0.368-0.005,0.524c0,0.002,0,0.004,0,0.006l-0.782-0.112
	c-2.124-0.303-4.129-1.306-5.646-2.823C15.075,6.316,14.916,6.25,14.75,6.25c-1.679,0-3.285,0.765-4.347,2.057
	C10.664,5.762,12.816,3.75,15.441,3.75z M11.159,16.438c-0.313-1.041-0.671-4.103-0.75-6.066L11.25,9.25
	c0.773-1.03,1.974-1.67,3.253-1.743c1.682,1.601,3.859,2.658,6.159,2.987l0.92,0.132c-0.061,1.305-0.187,2.615-0.367,3.82
	c0,0,0,0.001,0,0.001c-0.057,0.387-0.102,0.637-0.218,1.333c-0.331,1.985-1.812,3.781-3.768,4.269c-0.805,0.201-1.653,0.201-2.457,0
	c-1.221-0.305-2.341-1.15-3.063-2.361h1.274c0.258,0.727,0.953,1.25,1.767,1.25H16c1.036,0,1.875-0.839,1.875-1.875
	c0-1.034-0.841-1.875-1.875-1.875h-1.25c-0.833,0-1.517,0.538-1.769,1.25H11.159z M14.697,21.313
	c0.429,0.09,0.866,0.137,1.303,0.137c0.342,0,0.684-0.029,1.022-0.084l-1.104,1.168L14.697,21.313z M15.058,23.442l-1.982,2.096
	c-0.546-1.045-1.015-2.132-1.399-3.245l0.744-1.489L15.058,23.442z M19.473,20.593l0.85,1.701c-0.385,1.115-0.854,2.203-1.399,3.246
	l-2.122-2.122L19.473,20.593z M14.125,17.063c0-0.345,0.28-0.625,0.625-0.625H16c0.345,0,0.625,0.28,0.625,0.625
	c0,0.345-0.28,0.625-0.625,0.625h-1.25C14.405,17.688,14.125,17.407,14.125,17.063z M2.9,30.75c0.248-3.096,2.308-5.91,5.081-6.835
	l2.631-0.877c0.482,1.333,1.079,2.628,1.779,3.859c0.001,0.002,0.002,0.004,0.003,0.006c0,0,0,0,0,0
	c0.511,0.899,1.087,1.778,1.711,2.612l0.769,1.234H2.9z M16,30.193l-0.848-1.361c-0.009-0.015-0.02-0.03-0.03-0.045
	c-0.506-0.675-0.978-1.381-1.408-2.104l2.229-2.357l2.349,2.349c-0.433,0.728-0.907,1.437-1.413,2.112
	C16.847,28.828,16.891,28.764,16,30.193z M17.126,30.75l0.769-1.234c0.627-0.837,1.206-1.723,1.723-2.633
	c0.003-0.005,0.006-0.011,0.009-0.017c0-0.001,0.001-0.001,0.001-0.002c0.691-1.219,1.282-2.503,1.76-3.826l2.631,0.877
	c2.773,0.925,4.834,3.739,5.081,6.835H17.126z"/>
<path fill="#0099BB" d="M27.222,28.221c-0.418-0.836-1.03-1.579-1.769-2.148c-0.274-0.211-0.666-0.159-0.876,0.114
	c-0.211,0.274-0.159,0.666,0.114,0.876c0.591,0.455,1.079,1.048,1.413,1.716c0.155,0.309,0.53,0.434,0.838,0.28
	C27.251,28.905,27.376,28.529,27.222,28.221z"/>
</svg>
