<?xml version="1.0" encoding="utf-8"?>
<!-- Generator: Adobe Illustrator 17.0.0, SVG Export Plug-In . SVG Version: 6.00 Build 0)  -->
<!DOCTYPE svg PUBLIC "-//W3C//DTD SVG 1.1//EN" "http://www.w3.org/Graphics/SVG/1.1/DTD/svg11.dtd">
<svg version="1.1" id="Layer_1" xmlns="http://www.w3.org/2000/svg" xmlns:xlink="http://www.w3.org/1999/xlink" x="0px" y="0px"
	 width="38px" height="38px" viewBox="-5 -5 38 38" enable-background="new -5 -5 38 38" xml:space="preserve">
<path fill="#0099BB" d="M23.899,4.1C21.255,1.456,17.739,0,14,0S6.745,1.456,4.1,4.1C1.456,6.745,0,10.26,0,14
	s1.456,7.255,4.1,9.899C6.745,26.544,10.26,28,14,28s7.255-1.456,9.899-4.101C26.544,21.255,28,17.74,28,14S26.544,6.745,23.899,4.1
	z M14.82,8.765c1.481-0.045,2.923-0.209,4.277-0.483c0.38,1.509,0.605,3.168,0.659,4.897H14.82V8.765z M14.82,7.124V1.779
	c1.134,0.378,2.233,1.523,3.106,3.269c0.258,0.517,0.492,1.072,0.698,1.658C17.421,6.94,16.14,7.082,14.82,7.124z M13.18,1.779
	v5.345c-1.32-0.042-2.601-0.184-3.804-0.418c0.207-0.587,0.44-1.142,0.698-1.658C10.947,3.302,12.046,2.157,13.18,1.779z
	 M13.18,8.765v4.415H8.244c0.054-1.729,0.279-3.388,0.659-4.897C10.257,8.556,11.699,8.721,13.18,8.765z M6.602,13.18H1.668
	c0.155-2.387,0.987-4.643,2.403-6.544C5.032,7.14,6.124,7.564,7.309,7.898C6.899,9.535,6.658,11.324,6.602,13.18z M6.602,14.82
	c0.055,1.856,0.297,3.645,0.707,5.281c-1.185,0.334-2.277,0.758-3.238,1.262c-1.416-1.901-2.248-4.157-2.403-6.544H6.602z
	 M8.244,14.82h4.936v4.415c-1.481,0.045-2.923,0.209-4.277,0.483C8.523,18.209,8.298,16.549,8.244,14.82z M13.18,20.876v5.345
	c-1.134-0.378-2.233-1.523-3.106-3.269c-0.258-0.517-0.492-1.072-0.698-1.658C10.579,21.06,11.86,20.918,13.18,20.876z
	 M14.82,26.221v-5.345c1.32,0.042,2.601,0.184,3.804,0.418c-0.207,0.587-0.44,1.142-0.698,1.659
	C17.053,24.698,15.954,25.843,14.82,26.221z M14.82,19.235V14.82h4.936c-0.054,1.729-0.279,3.388-0.659,4.897
	C17.743,19.444,16.301,19.279,14.82,19.235z M21.397,14.82h4.934c-0.155,2.387-0.987,4.643-2.403,6.544
	c-0.961-0.505-2.053-0.929-3.238-1.263C21.101,18.465,21.342,16.676,21.397,14.82z M21.397,13.18
	c-0.055-1.856-0.296-3.645-0.707-5.281c1.185-0.334,2.278-0.758,3.238-1.262c1.416,1.901,2.248,4.157,2.403,6.544H21.397z
	 M22.83,5.354c-0.784,0.382-1.659,0.709-2.602,0.974c-0.243-0.714-0.522-1.388-0.835-2.014c-0.371-0.742-0.78-1.395-1.219-1.954
	c1.697,0.607,3.253,1.588,4.565,2.901C22.77,5.291,22.8,5.323,22.83,5.354z M9.826,2.36C9.387,2.919,8.978,3.571,8.607,4.314
	c-0.313,0.626-0.591,1.3-0.835,2.014C6.828,6.063,5.953,5.736,5.169,5.354C5.2,5.323,5.23,5.291,5.261,5.261
	C6.573,3.948,8.129,2.967,9.826,2.36z M5.169,22.646c0.784-0.382,1.659-0.708,2.602-0.973c0.243,0.714,0.522,1.388,0.835,2.014
	c0.371,0.742,0.78,1.395,1.219,1.954c-1.697-0.607-3.253-1.588-4.565-2.901C5.23,22.709,5.2,22.677,5.169,22.646z M18.174,25.64
	c0.439-0.559,0.848-1.211,1.219-1.954c0.313-0.626,0.591-1.3,0.835-2.014c0.943,0.265,1.819,0.591,2.602,0.974
	c-0.031,0.031-0.06,0.063-0.091,0.093C21.427,24.052,19.871,25.033,18.174,25.64z"/>
</svg>
