<?xml version="1.0" encoding="utf-8"?>
<!-- Generator: Adobe Illustrator 17.0.0, SVG Export Plug-In . SVG Version: 6.00 Build 0)  -->
<!DOCTYPE svg PUBLIC "-//W3C//DTD SVG 1.1//EN" "http://www.w3.org/Graphics/SVG/1.1/DTD/svg11.dtd">
<svg version="1.1" id="Layer_1" xmlns="http://www.w3.org/2000/svg" xmlns:xlink="http://www.w3.org/1999/xlink" x="0px" y="0px"
	 width="38px" height="38px" viewBox="-5 -5 38 38" enable-background="new -5 -5 38 38" xml:space="preserve">
<path fill="#0099BB" d="M25.205,13.226c0-1.407-1.061-2.57-2.424-2.733V3.432c0-0.432-0.28-0.798-0.698-0.911
	c-0.417-0.112-0.844,0.063-1.061,0.437c-1.491,2.566-3.841,4.32-6.982,5.213c-2.376,0.675-4.336,0.578-4.355,0.576
	c-0.029-0.002-0.057,0-0.086,0.003H4.576C2.053,8.75,0,10.803,0,13.326c0,2.377,1.821,4.335,4.142,4.555l1.515,6.23
	c0.201,0.825,0.934,1.401,1.783,1.401h1.052c0.567,0,1.092-0.255,1.442-0.701c0.35-0.446,0.474-1.017,0.34-1.567l-1.299-5.342h0.624
	c0.028,0.003,0.057,0.004,0.086,0.003c0.019-0.001,1.98-0.099,4.355,0.576c3.141,0.893,5.491,2.647,6.982,5.213
	c0.173,0.298,0.48,0.47,0.809,0.47c0.083,0,0.168-0.011,0.252-0.034c0.418-0.113,0.698-0.479,0.698-0.911V16.16
	c1.364-0.163,2.424-1.326,2.424-2.733V13.226z M9.038,22.792l0.173,0.711c0.054,0.222,0.004,0.453-0.137,0.633
	c-0.141,0.18-0.354,0.283-0.582,0.283H7.439c-0.343,0-0.639-0.233-0.72-0.566l-1.447-5.951h2.576l0.386,1.588H7.974
	c-0.302,0-0.547,0.245-0.547,0.547c0,0.302,0.245,0.547,0.547,0.547h0.527l0.271,1.114H8.6c-0.302,0-0.547,0.245-0.547,0.547
	c0,0.302,0.245,0.547,0.547,0.547H9.038z M9.107,14.488H5.709c-0.302,0-0.547,0.245-0.547,0.547c0,0.302,0.245,0.547,0.547,0.547
	h3.399v1.227H8.308c-0.01-0.001-0.02-0.001-0.03-0.001H4.576c-0.005,0-0.01,0.001-0.016,0.001c-1.913-0.009-3.467-1.567-3.467-3.482
	c0-1.92,1.562-3.483,3.483-3.483h4.531V14.488z M21.687,11.019v4.614v7.053c-1.639-2.549-4.181-4.365-7.385-5.267
	c-1.774-0.5-3.306-0.6-4.101-0.612v-1.772V9.846c0.795-0.013,2.327-0.113,4.101-0.613c3.204-0.903,5.746-2.719,7.385-5.267V11.019z
	 M24.111,13.427c0,0.802-0.572,1.474-1.331,1.627v-3.455c0.758,0.153,1.331,0.824,1.331,1.627V13.427z"/>
<path fill="#0099BB" d="M25.369,10.136c0.131,0,0.263-0.047,0.368-0.142l1.577-1.437c0.223-0.203,0.24-0.549,0.036-0.773
	c-0.203-0.223-0.549-0.239-0.773-0.036L25,9.184c-0.223,0.203-0.24,0.549-0.036,0.773C25.072,10.076,25.22,10.136,25.369,10.136z"/>
<path fill="#0099BB" d="M25.737,16.659c-0.223-0.203-0.569-0.187-0.773,0.036c-0.203,0.223-0.187,0.569,0.036,0.773l1.577,1.436
	c0.105,0.096,0.237,0.143,0.368,0.143c0.149,0,0.297-0.06,0.404-0.179c0.203-0.223,0.187-0.569-0.036-0.773L25.737,16.659z"/>
<path fill="#0099BB" d="M27.453,12.779h-1.211c-0.302,0-0.547,0.245-0.547,0.547s0.245,0.547,0.547,0.547h1.211
	c0.302,0,0.547-0.245,0.547-0.547S27.755,12.779,27.453,12.779z"/>
<path fill="#0099BB" d="M3.96,14.826c-0.014-0.033-0.031-0.065-0.05-0.095c-0.02-0.03-0.043-0.058-0.068-0.083
	C3.817,14.623,3.789,14.6,3.759,14.58c-0.03-0.02-0.061-0.037-0.094-0.05c-0.033-0.014-0.068-0.024-0.102-0.031
	c-0.071-0.014-0.143-0.014-0.214,0c-0.035,0.007-0.069,0.017-0.102,0.031c-0.033,0.014-0.065,0.031-0.095,0.05
	c-0.03,0.02-0.058,0.043-0.083,0.068c-0.025,0.025-0.048,0.053-0.068,0.083c-0.02,0.03-0.037,0.061-0.05,0.095
	c-0.014,0.033-0.024,0.067-0.031,0.102c-0.007,0.035-0.011,0.071-0.011,0.107c0,0.036,0.004,0.072,0.011,0.107
	c0.007,0.034,0.017,0.069,0.031,0.102c0.014,0.033,0.031,0.065,0.05,0.094c0.02,0.03,0.043,0.058,0.068,0.083
	c0.025,0.025,0.053,0.048,0.083,0.068c0.03,0.02,0.062,0.037,0.095,0.05c0.033,0.014,0.067,0.024,0.102,0.031
	c0.036,0.007,0.071,0.01,0.107,0.01c0.036,0,0.072-0.003,0.107-0.01c0.035-0.007,0.069-0.017,0.102-0.031
	c0.033-0.014,0.065-0.031,0.094-0.05c0.03-0.02,0.058-0.043,0.084-0.068c0.025-0.025,0.048-0.053,0.068-0.083
	c0.02-0.03,0.037-0.061,0.05-0.094c0.014-0.033,0.024-0.068,0.031-0.102c0.007-0.036,0.01-0.072,0.01-0.107
	c0-0.036-0.003-0.072-0.01-0.107C3.984,14.893,3.974,14.859,3.96,14.826z"/>
</svg>
