<?xml version="1.0" encoding="utf-8"?>
<!-- Generator: Adobe Illustrator 17.0.0, SVG Export Plug-In . SVG Version: 6.00 Build 0)  -->
<!DOCTYPE svg PUBLIC "-//W3C//DTD SVG 1.1//EN" "http://www.w3.org/Graphics/SVG/1.1/DTD/svg11.dtd">
<svg version="1.1" id="Layer_1" xmlns="http://www.w3.org/2000/svg" xmlns:xlink="http://www.w3.org/1999/xlink" x="0px" y="0px"
	 width="38px" height="38px" viewBox="-4 -4 38 38" enable-background="new -4 -4 38 38" xml:space="preserve">
<g>
	<defs>
		<rect id="SVGID_1_" width="30" height="30"/>
	</defs>
	<clipPath id="SVGID_2_">
		<use xlink:href="#SVGID_1_"  overflow="visible"/>
	</clipPath>
	<g clip-path="url(#SVGID_2_)">
		<path fill="#0099BB" d="M23.345,5.127c-0.348-0.38-0.938-0.407-1.319-0.058l-6.326,5.787l-4.04-3.501
			c-0.351-0.304-0.872-0.304-1.223,0l-6.971,6.037c-0.39,0.337-0.432,0.927-0.095,1.317c0.185,0.213,0.445,0.323,0.706,0.323
			c0.216,0,0.434-0.075,0.611-0.228l6.36-5.508l4.057,3.516c0.358,0.31,0.891,0.303,1.242-0.017l6.94-6.349
			C23.666,6.098,23.692,5.507,23.345,5.127z"/>
		<path fill="#0099BB" d="M26.586,2.049c-0.219-0.22-0.531-0.316-0.835-0.26l-5.29,0.996c-0.34,0.064-0.617,0.311-0.719,0.642
			c-0.102,0.331-0.013,0.691,0.232,0.936l4.264,4.263c0.178,0.177,0.416,0.273,0.66,0.273c0.091,0,0.183-0.013,0.273-0.041
			c0.33-0.101,0.577-0.375,0.644-0.714l1.027-5.259C26.899,2.583,26.804,2.269,26.586,2.049z M24.316,6.066l-1.773-1.773l2.2-0.414
			L24.316,6.066z"/>
		<path fill="#0099BB" d="M29.066,26.359H0.934C0.418,26.359,0,26.777,0,27.292c0,0.516,0.418,0.934,0.934,0.934h28.133
			c0.516,0,0.934-0.418,0.934-0.934C30,26.777,29.582,26.359,29.066,26.359z"/>
		<path fill="#0099BB" d="M15,19.73c-0.516,0-0.934,0.418-0.934,0.934v6.629c0,0.516,0.418,0.934,0.934,0.934
			c0.516,0,0.934-0.418,0.934-0.934v-6.629C15.934,20.148,15.516,19.73,15,19.73z"/>
		<path fill="#0099BB" d="M11.266,14.128c-0.516,0-0.934,0.418-0.934,0.934v12.23c0,0.516,0.418,0.934,0.934,0.934
			c0.516,0,0.934-0.418,0.934-0.934v-12.23C12.199,14.547,11.781,14.128,11.266,14.128z"/>
		<path fill="#0099BB" d="M18.734,17.241c-0.516,0-0.934,0.418-0.934,0.934v9.118c0,0.516,0.418,0.934,0.934,0.934
			s0.934-0.418,0.934-0.934v-9.118C19.668,17.659,19.25,17.241,18.734,17.241z"/>
		<path fill="#0099BB" d="M22.469,10.705c-0.516,0-0.934,0.418-0.934,0.934v15.653c0,0.516,0.418,0.934,0.934,0.934
			s0.934-0.418,0.934-0.934V11.639C23.403,11.123,22.985,10.705,22.469,10.705z"/>
		<path fill="#0099BB" d="M25.934,14C25.418,14,25,14.418,25,14.934v12.23c0,0.516,0.418,0.934,0.934,0.934
			c0.516,0,0.934-0.418,0.934-0.934v-12.23C26.867,14.418,26.449,14,25.934,14z"/>
		<path fill="#0099BB" d="M7.531,22.22c-0.516,0-0.934,0.418-0.934,0.934v4.139c0,0.516,0.418,0.934,0.934,0.934
			s0.934-0.418,0.934-0.934v-4.139C8.465,22.638,8.047,22.22,7.531,22.22z"/>
		<path fill="#0099BB" d="M3.797,19.419c-0.516,0-0.934,0.418-0.934,0.934v6.94c0,0.516,0.418,0.934,0.934,0.934
			s0.934-0.418,0.934-0.934v-6.94C4.73,19.837,4.312,19.419,3.797,19.419z"/>
	</g>
</g>
</svg>
