<?xml version="1.0" encoding="utf-8"?>
<!-- Generator: Adobe Illustrator 17.0.0, SVG Export Plug-In . SVG Version: 6.00 Build 0)  -->
<!DOCTYPE svg PUBLIC "-//W3C//DTD SVG 1.1//EN" "http://www.w3.org/Graphics/SVG/1.1/DTD/svg11.dtd">
<svg version="1.1" id="Layer_1" xmlns="http://www.w3.org/2000/svg" xmlns:xlink="http://www.w3.org/1999/xlink" x="0px" y="0px"
	 width="38px" height="38px" viewBox="-5 -5 38 38" enable-background="new -5 -5 38 38" xml:space="preserve">
<g>
	<defs>
		<rect id="SVGID_1_" width="28" height="28"/>
	</defs>
	<clipPath id="SVGID_2_">
		<use xlink:href="#SVGID_1_"  overflow="visible"/>
	</clipPath>
	<g clip-path="url(#SVGID_2_)">
		<path fill="#0099BB" d="M25.124,7.269L18.095,0.24C17.941,0.086,17.732,0,17.515,0H5.653C3.989,0,2.636,1.353,2.636,3.017v21.966
			C2.636,26.647,3.989,28,5.653,28h16.694c1.664,0,3.017-1.353,3.017-3.017V7.849C25.364,7.632,25.278,7.423,25.124,7.269z
			 M18.335,2.801l4.228,4.228h-2.852c-0.759,0-1.376-0.617-1.376-1.376V2.801z M22.347,26.359H5.653
			c-0.759,0-1.376-0.617-1.376-1.376V3.017c0-0.759,0.617-1.376,1.376-1.376h11.041v4.012c0,1.664,1.353,3.017,3.017,3.017h4.012
			v16.313C23.723,25.742,23.106,26.359,22.347,26.359z"/>
		<path fill="#0099BB" d="M10.485,12.301H6.971c-0.453,0-0.82,0.367-0.82,0.82v3.515c0,0.453,0.367,0.82,0.82,0.82h3.515
			c0.453,0,0.82-0.367,0.82-0.82v-3.515C11.306,12.668,10.938,12.301,10.485,12.301z M9.665,15.816H7.791v-1.874h1.874V15.816z"/>
		<path fill="#0099BB" d="M10.485,19.33H6.971c-0.453,0-0.82,0.367-0.82,0.82v3.515c0,0.453,0.367,0.82,0.82,0.82h3.515
			c0.453,0,0.82-0.367,0.82-0.82V20.15C11.306,19.698,10.938,19.33,10.485,19.33z M9.665,22.845H7.791v-1.874h1.874V22.845z"/>
		<path fill="#0099BB" d="M13.18,13.121c0,0.453,0.367,0.82,0.82,0.82h3.515c0.453,0,0.82-0.367,0.82-0.82
			c0-0.453-0.367-0.82-0.82-0.82H14C13.547,12.301,13.18,12.668,13.18,13.121z"/>
		<path fill="#0099BB" d="M21.029,15.816H14c-0.453,0-0.82,0.367-0.82,0.82c0,0.453,0.367,0.82,0.82,0.82h7.029
			c0.453,0,0.82-0.367,0.82-0.82C21.849,16.183,21.482,15.816,21.029,15.816z"/>
		<path fill="#0099BB" d="M14,20.971h3.515c0.453,0,0.82-0.367,0.82-0.82c0-0.453-0.367-0.82-0.82-0.82H14
			c-0.453,0-0.82,0.367-0.82,0.82C13.18,20.604,13.547,20.971,14,20.971z"/>
		<path fill="#0099BB" d="M21.029,22.845H14c-0.453,0-0.82,0.367-0.82,0.82c0,0.453,0.367,0.82,0.82,0.82h7.029
			c0.453,0,0.82-0.367,0.82-0.82C21.849,23.212,21.482,22.845,21.029,22.845z"/>
		<path fill="#0099BB" d="M6.971,6.034h4.393c0.453,0,0.82-0.367,0.82-0.82s-0.367-0.82-0.82-0.82H6.971
			c-0.453,0-0.82,0.367-0.82,0.82S6.518,6.034,6.971,6.034z"/>
		<path fill="#0099BB" d="M6.971,9.548H14c0.453,0,0.82-0.367,0.82-0.82c0-0.453-0.367-0.82-0.82-0.82H6.971
			c-0.453,0-0.82,0.367-0.82,0.82C6.151,9.181,6.518,9.548,6.971,9.548z"/>
	</g>
</g>
</svg>
