<?xml version="1.0" encoding="utf-8"?>
<!-- Generator: Adobe Illustrator 17.0.0, SVG Export Plug-In . SVG Version: 6.00 Build 0)  -->
<!DOCTYPE svg PUBLIC "-//W3C//DTD SVG 1.1//EN" "http://www.w3.org/Graphics/SVG/1.1/DTD/svg11.dtd">
<svg version="1.1" id="Layer_1" xmlns="http://www.w3.org/2000/svg" xmlns:xlink="http://www.w3.org/1999/xlink" x="0px" y="0px"
	 width="38px" height="38px" viewBox="-5 -5 38 38" enable-background="new -5 -5 38 38" xml:space="preserve">
<g>
	<defs>
		<rect id="SVGID_1_" width="28" height="28"/>
	</defs>
	<clipPath id="SVGID_2_">
		<use xlink:href="#SVGID_1_"  overflow="visible"/>
	</clipPath>
	<g clip-path="url(#SVGID_2_)">
		<path fill="#0099BB" d="M19.906,9.41c0.966,0,1.75-0.783,1.75-1.75c0-0.967-0.784-1.75-1.75-1.75c-0.967,0-1.75,0.783-1.75,1.75
			C18.156,8.626,18.94,9.41,19.906,9.41z"/>
		<path fill="#0099BB" d="M27.698,9.075c-0.584-1.487-1.655-3.633-3.441-5.41c-1.779-1.771-3.902-2.811-5.37-3.372
			c-1.611-0.616-3.442-0.228-4.665,0.989L9.928,5.556c-1.273,1.267-1.64,3.217-0.913,4.852c0.225,0.507,0.471,1.003,0.733,1.482
			L0.32,21.317C0.115,21.522,0,21.8,0,22.09v4.812c0,0.604,0.49,1.094,1.094,1.094h4.812C6.51,27.996,7,27.507,7,26.903v-1.969
			l1.969,0c0.604,0,1.094-0.49,1.094-1.094v-1.969h1.969c0.604,0,1.094-0.49,1.094-1.094c0-0.604-0.49-1.094-1.094-1.094H8.969
			c-0.604,0-1.094,0.49-1.094,1.094v1.969H5.906c-0.604,0-1.094,0.49-1.094,1.094v1.969H2.187v-3.266l9.699-9.699
			c0.356-0.356,0.423-0.91,0.162-1.341c-0.379-0.625-0.727-1.292-1.035-1.984c-0.361-0.812-0.177-1.781,0.457-2.413l4.295-4.275
			c0.613-0.61,1.532-0.805,2.341-0.496c1.27,0.485,3.1,1.379,4.608,2.879c1.517,1.51,2.44,3.367,2.948,4.659
			c0.317,0.807,0.124,1.723-0.49,2.334l-4.347,4.327c-0.633,0.63-1.578,0.814-2.407,0.469c-0.684-0.285-1.346-0.622-1.969-1.005
			c-0.515-0.316-1.188-0.155-1.504,0.36c-0.316,0.515-0.155,1.188,0.36,1.504c0.719,0.441,1.484,0.832,2.273,1.16
			c1.648,0.686,3.529,0.317,4.79-0.938l4.347-4.326C27.948,12.532,28.333,10.693,27.698,9.075z"/>
	</g>
</g>
</svg>
