<?xml version="1.0" encoding="utf-8"?>
<!-- Generator: Adobe Illustrator 17.0.0, SVG Export Plug-In . SVG Version: 6.00 Build 0)  -->
<!DOCTYPE svg PUBLIC "-//W3C//DTD SVG 1.1//EN" "http://www.w3.org/Graphics/SVG/1.1/DTD/svg11.dtd">
<svg version="1.1" id="Layer_1" xmlns="http://www.w3.org/2000/svg" xmlns:xlink="http://www.w3.org/1999/xlink" x="0px" y="0px"
	 width="38px" height="38px" viewBox="-3 -3 38 38" enable-background="new -3 -3 38 38" xml:space="preserve">
<g>
	<defs>
		<rect id="SVGID_1_" width="32" height="32"/>
	</defs>
	<clipPath id="SVGID_2_">
		<use xlink:href="#SVGID_1_"  overflow="visible"/>
	</clipPath>
	<g clip-path="url(#SVGID_2_)">
		<path fill="#0099BB" d="M13.039,16.116c0.738,0,1.337-0.626,1.351-1.354l0.021-1.134c0.001-0.066,0.045-0.113,0.083-0.113h2.758
			c0.743,0,1.347-0.619,1.347-1.379V7.095c0-0.812-1.264-0.813-1.264,0v5.041c0,0.068-0.044,0.115-0.083,0.115h-2.758
			c-0.729,0-1.333,0.607-1.347,1.353c-0.002,0.139,0.007,1.337-0.158,1.217l-1.712-2.08c-0.257-0.312-0.632-0.49-1.03-0.49H1.347
			c-0.039,0-0.083-0.047-0.083-0.115V1.379c0-0.068,0.044-0.115,0.083-0.115h15.905c0.039,0,0.083,0.047,0.083,0.115v0.705
			c0,0.812,1.264,0.813,1.264,0V1.379C18.599,0.619,17.995,0,17.252,0H1.347C0.604,0,0,0.619,0,1.379v10.757
			c0,0.76,0.604,1.379,1.347,1.379h8.899c0.019,0,0.039,0.011,0.054,0.03l1.712,2.079C12.274,15.942,12.65,16.116,13.039,16.116z"/>
		<path fill="#0099BB" d="M30.414,19.417h-2.397c-0.684,0-1.265,0.446-1.47,1.062c-1.44-1.532-2.766-2.981-2.973-3.28
			c-0.157-0.369-0.616-1.485-0.891-2.55c-0.239-0.924-1.119-1.532-2.048-1.413c-0.468,0.06-1.127,0.326-1.605,1.255
			c-0.737,1.43-0.156,4.049,0.224,5.396l-4.662-0.003l-0.463,0.001c-0.013,0-0.026,0-0.039,0.001
			c-0.534,0.034-0.985,0.225-1.343,0.567c-0.392,0.367-0.619,0.866-0.637,1.406c-0.018,0.501,0.146,0.98,0.463,1.362
			c-0.035,0.036-0.068,0.074-0.099,0.113c-0.658,0.818-0.589,1.981,0.16,2.714c-0.231,0.244-0.394,0.546-0.473,0.882
			c-0.149,0.631,0.042,1.312,0.496,1.774c-0.307,0.35-0.493,0.808-0.493,1.309c0,1.096,0.892,1.987,1.988,1.987h9.921
			c0.709-0.005,1.032-0.251,1.407-0.537c0.171-0.13,0.345-0.258,0.519-0.385c0.173-0.127,0.376-0.197,0.59-0.203
			c0.234,0.56,0.786,0.954,1.429,0.954h2.397c0.854,0,1.549-0.695,1.549-1.548v-9.314C31.962,20.112,31.268,19.417,30.414,19.417z
			 M25.248,30.06c-0.349,0.254-0.721,0.673-1.181,0.676H14.15c-0.866,0-0.961-1.308-0.11-1.438l2.871-0.008
			c0.81-0.003,0.81-1.264-0.002-1.264H14.15c-1.057,0-0.914-1.289,0.066-1.4l2.729-0.027c0.81-0.008,0.802-1.264-0.01-1.264
			l-2.567,0.017c-0.426,0.003-0.842,0.003-1.024-0.487c-0.217-0.584,0.242-0.945,0.777-0.947l2.431-0.034
			c0.809-0.027,0.802-1.271-0.016-1.264l-2.463,0.034c-0.614-0.02-0.896-0.739-0.522-1.204c0.264-0.328,0.661-0.302,1.042-0.303
			l5.509,0.004h0.001c0.435,0,0.735-0.461,0.598-0.864c-0.003-0.01-0.336-0.992-0.56-2.155c-0.274-1.424-0.27-2.512,0.014-3.063
			c0.256-0.497,1.084-0.963,1.306-0.104c0.299,1.155,0.776,2.319,0.968,2.766c0.048,0.113,0.194,0.452,4.042,4.505v7.379
			C26.027,29.644,25.607,29.795,25.248,30.06z M30.698,30.28c0,0.157-0.127,0.284-0.284,0.284h-2.397
			c-0.157,0-0.284-0.127-0.284-0.284v-9.314c0-0.157,0.127-0.284,0.284-0.284h2.397c0.157,0,0.284,0.128,0.284,0.284V30.28z"/>
		<path fill="#0099BB" d="M13.643,3.525H5.056c-0.812,0-0.813,1.264,0,1.264h8.586C14.454,4.79,14.455,3.525,13.643,3.525z"/>
		<path fill="#0099BB" d="M13.643,5.996H5.056c-0.812,0-0.813,1.264,0,1.264h8.586C14.454,7.26,14.455,5.996,13.643,5.996z"/>
		<path fill="#0099BB" d="M13.643,8.467H5.056c-0.812,0-0.813,1.264,0,1.264h8.586C14.454,9.731,14.455,8.467,13.643,8.467z"/>
		<path fill="#0099BB" d="M18.492,4.235c-0.188-0.288-0.591-0.364-0.876-0.175c-0.287,0.191-0.365,0.59-0.174,0.876
			C17.894,5.615,18.945,4.912,18.492,4.235z"/>
		<path fill="#0099BB" d="M19.621,22.986c-0.122-0.297-0.461-0.455-0.767-0.363c-0.353,0.107-0.54,0.507-0.4,0.846
			c0.132,0.318,0.507,0.474,0.824,0.341C19.596,23.678,19.754,23.305,19.621,22.986z"/>
	</g>
</g>
</svg>
