<?xml version="1.0" encoding="utf-8"?>
<!-- Generator: Adobe Illustrator 17.0.0, SVG Export Plug-In . SVG Version: 6.00 Build 0)  -->
<!DOCTYPE svg PUBLIC "-//W3C//DTD SVG 1.1//EN" "http://www.w3.org/Graphics/SVG/1.1/DTD/svg11.dtd">
<svg version="1.1" id="Layer_1" xmlns="http://www.w3.org/2000/svg" xmlns:xlink="http://www.w3.org/1999/xlink" x="0px" y="0px"
	 width="38px" height="38px" viewBox="-5 -5 38 38" enable-background="new -5 -5 38 38" xml:space="preserve">
<g>
	<defs>
		<rect id="SVGID_1_" width="28" height="28"/>
	</defs>
	<clipPath id="SVGID_2_">
		<use xlink:href="#SVGID_1_"  overflow="visible"/>
	</clipPath>
	<g clip-path="url(#SVGID_2_)">
		<path fill="#0099BB" d="M27.125,1.75h-21c-0.484,0-0.875,0.391-0.875,0.875V7H7V3.5h19.25v21H7V21H5.25v4.375
			c0,0.484,0.391,0.875,0.875,0.875h21c0.484,0,0.875-0.391,0.875-0.875V2.625C28,2.141,27.609,1.75,27.125,1.75z"/>
		<path fill="#0099BB" d="M10.394,18.631l1.237,1.237L17.5,14l-5.869-5.869l-1.237,1.237l3.756,3.756H0v1.75h14.15L10.394,18.631z"
			/>
	</g>
</g>
</svg>
