<svg width="26" height="26" viewBox="0 0 26 26" fill="none" xmlns="http://www.w3.org/2000/svg">
<path d="M9.40752 25.9999C5.53794 25.9776 2.3371 18.0785 2.3371 14.0557C2.3371 7.48438 7.26669 6.04575 9.16651 6.04575C10.0227 6.04575 10.9369 6.38197 11.7433 6.6795C12.3071 6.88704 12.8903 7.10129 13.2146 7.10129C13.4088 7.10129 13.8663 6.91903 14.2702 6.75912C15.1316 6.4162 16.2035 5.98999 17.4517 5.98999C17.4539 5.98999 17.4569 5.98999 17.4591 5.98999C18.3911 5.98999 21.2171 6.19454 22.9161 8.74599L23.3141 9.34404L22.7413 9.77624C21.9231 10.3936 20.4301 11.5199 20.4301 13.7507C20.4301 16.3929 22.1209 17.4091 22.9332 17.8978C23.2918 18.1135 23.6629 18.3359 23.6629 18.8224C23.6629 19.14 21.1278 25.9605 17.4464 25.9605C16.5456 25.9605 15.9089 25.6898 15.3473 25.451C14.779 25.2092 14.2887 25.001 13.4787 25.001C13.068 25.001 12.5488 25.1951 11.9991 25.4012C11.2479 25.6815 10.3976 25.9999 9.43281 25.9999H9.40752Z" fill="#8E8E8E"/>
<path d="M17.8417 0C17.9376 3.45698 15.4653 5.85528 12.9959 5.70487C12.589 2.94607 15.465 0 17.8417 0Z" fill="#8E8E8E"/>
</svg>
