<svg width="28" height="30" viewBox="0 0 28 30" fill="none" xmlns="http://www.w3.org/2000/svg">
<path d="M25.9771 12.7506L20.8964 9.81641L13.9355 15.0174L20.8963 20.2184L25.9943 17.2741C26.7892 16.7912 27.2635 15.9473 27.2635 15.0175C27.2635 14.0877 26.7891 13.2439 25.9771 12.7506Z" fill="#FF9100"/>
<path d="M15.6954 15.0177C15.6878 15.0275 9.54083 22.9308 9.53584 22.9372L1.5284 29.2434C1.03557 28.7506 0.73645 28.082 0.73645 27.3427V2.64915C0.73645 1.91006 1.03557 1.24124 1.5284 0.748535L9.53584 7.09829C9.54083 7.10469 15.6878 15.0079 15.6954 15.0177Z" fill="#25D9F8"/>
<path d="M15.6954 15.0179L13.9355 17.288V12.7476L15.6954 15.0179Z" fill="#00C0F1"/>
<path d="M20.9047 9.8083L15.6954 15.0176L1.52838 0.748449C1.70431 0.590001 1.88036 0.46681 2.07394 0.343618C2.91863 -0.13149 3.92182 -0.11395 4.74902 0.396473L13.9355 5.79584L20.9047 9.8083Z" fill="#7FE881"/>
<path d="M20.9047 9.80861L15.6954 15.0179L13.9355 13.258V5.79614L20.9047 9.80861Z" fill="#5BC980"/>
<path d="M20.9047 20.2268L13.9355 24.2393L4.73142 29.6128C4.30905 29.8592 3.85148 30 3.37625 30C2.93628 30 2.49631 29.8768 2.07394 29.648C1.88036 29.5248 1.70431 29.4017 1.52838 29.2433L15.6954 15.0176L20.9047 20.2268Z" fill="#FF637B"/>
<path d="M20.9047 20.2267L13.9355 24.2393V16.7775L15.6954 15.0176L20.9047 20.2267Z" fill="#E63950"/>
</svg>
