<svg width="60" height="60" viewBox="0 0 60 60" fill="none" xmlns="http://www.w3.org/2000/svg">
<circle cx="30" cy="30" r="25.5" stroke="#CFCFCF"/>
<circle cx="30" cy="30" r="29.5" stroke="#0099BB"/>
<path d="M25.972 43.56C25.3 43.56 24.748 43.368 24.316 42.984C23.884 42.6 23.668 42.096 23.668 41.472V19.944C23.668 19.296 23.872 18.78 24.28 18.396C24.688 18.012 25.228 17.82 25.9 17.82C26.572 17.82 27.112 18.012 27.52 18.396C27.928 18.78 28.132 19.296 28.132 19.944V20.844C28.66 19.86 29.428 19.092 30.436 18.54C31.42 17.988 32.548 17.712 33.82 17.712C35.332 17.712 36.688 18.096 37.888 18.864C39.064 19.632 39.988 20.712 40.66 22.104C41.308 23.52 41.632 25.14 41.632 26.964C41.632 28.788 41.308 30.384 40.66 31.752C39.988 33.12 39.064 34.176 37.888 34.92C36.712 35.664 35.356 36.036 33.82 36.036C32.548 36.036 31.42 35.772 30.436 35.244C29.452 34.716 28.696 33.972 28.168 33.012V41.544C28.168 42.144 27.976 42.624 27.592 42.984C27.184 43.368 26.644 43.56 25.972 43.56ZM32.632 21.204C31.192 21.204 30.088 21.696 29.32 22.68C28.528 23.664 28.132 25.068 28.132 26.892C28.132 28.716 28.528 30.108 29.32 31.068C30.088 32.052 31.18 32.544 32.596 32.544C34.036 32.544 35.152 32.064 35.944 31.104C36.736 30.144 37.132 28.764 37.132 26.964C37.132 25.14 36.736 23.724 35.944 22.716C35.152 21.708 34.048 21.204 32.632 21.204Z" fill="#0099BB"/>
</svg>
