<?xml version="1.0" encoding="utf-8"?>
<!-- Generator: Adobe Illustrator 17.0.0, SVG Export Plug-In . SVG Version: 6.00 Build 0)  -->
<!DOCTYPE svg PUBLIC "-//W3C//DTD SVG 1.1//EN" "http://www.w3.org/Graphics/SVG/1.1/DTD/svg11.dtd">
<svg version="1.1" id="Layer_1" xmlns="http://www.w3.org/2000/svg" xmlns:xlink="http://www.w3.org/1999/xlink" x="0px" y="0px"
	 width="60px" height="60px" viewBox="0 0 60 60" enable-background="new 0 0 60 60" xml:space="preserve">
<path fill="#0099BB" d="M25.972,43.56c-0.672,0-1.224-0.192-1.656-0.576c-0.432-0.384-0.648-0.888-0.648-1.512V19.944
	c0-0.648,0.204-1.164,0.612-1.548c0.408-0.384,0.948-0.576,1.62-0.576c0.672,0,1.212,0.192,1.62,0.576
	c0.408,0.384,0.612,0.9,0.612,1.548v0.9c0.528-0.984,1.296-1.752,2.304-2.304c0.984-0.552,2.112-0.828,3.384-0.828
	c1.512,0,2.868,0.384,4.068,1.152c1.176,0.768,2.1,1.848,2.772,3.24c0.648,1.416,0.972,3.036,0.972,4.86
	c0,1.824-0.324,3.42-0.972,4.788c-0.672,1.368-1.596,2.424-2.772,3.168c-1.176,0.744-2.532,1.116-4.068,1.116
	c-1.272,0-2.4-0.264-3.384-0.792c-0.984-0.528-1.74-1.272-2.268-2.232v8.532c0,0.6-0.192,1.08-0.576,1.44
	C27.184,43.368,26.644,43.56,25.972,43.56z M32.632,21.204c-1.44,0-2.544,0.492-3.312,1.476c-0.792,0.984-1.188,2.388-1.188,4.212
	s0.396,3.216,1.188,4.176c0.768,0.984,1.86,1.476,3.276,1.476c1.44,0,2.556-0.48,3.348-1.44c0.792-0.96,1.188-2.34,1.188-4.14
	c0-1.824-0.396-3.24-1.188-4.248C35.152,21.708,34.048,21.204,32.632,21.204z"/>
</svg>
