<svg width="20" height="20" viewBox="0 0 20 20" fill="none" xmlns="http://www.w3.org/2000/svg">
<path d="M15.8984 0H4.10156C1.83996 0 0 1.83996 0 4.10156V15.8984C0 18.16 1.83996 20 4.10156 20H15.8984C18.16 20 20 18.16 20 15.8984V4.10156C20 1.83996 18.16 0 15.8984 0ZM18.8281 15.8984C18.8281 17.5139 17.5139 18.8281 15.8984 18.8281H4.10156C2.48613 18.8281 1.17188 17.5139 1.17188 15.8984V4.10156C1.17188 2.48613 2.48613 1.17188 4.10156 1.17188H15.8984C17.5139 1.17188 18.8281 2.48613 18.8281 4.10156V15.8984Z" fill="white"/>
<path d="M11.9393 4.82542C11.8718 4.57347 11.7102 4.36284 11.4843 4.23245C11.018 3.96323 10.4196 4.12351 10.1503 4.58991L10 4.85023L9.84969 4.58987C9.58043 4.12359 8.98203 3.96323 8.5157 4.23241H8.51566C8.04934 4.50167 7.88902 5.10007 8.15824 5.56644L8.87234 6.80331L6.23742 11.3672H4.31641C3.77793 11.3672 3.33984 11.8053 3.33984 12.3437C3.33984 12.8822 3.77793 13.3203 4.31641 13.3203H11.7328L10.6052 11.3672H8.49269L11.8417 5.56648C11.9721 5.34058 12.0068 5.07737 11.9393 4.82542Z" fill="white"/>
<path d="M15.6836 11.367H13.7626L11.5787 7.58447L10.4511 9.53759L13.8419 15.4106C13.9723 15.6365 14.1829 15.7981 14.4349 15.8656C14.5191 15.8882 14.6044 15.8993 14.6892 15.8993C14.8585 15.8993 15.0255 15.855 15.176 15.7681C15.6423 15.4988 15.8026 14.9004 15.5334 14.4341L14.8902 13.3202H15.6836C16.2221 13.3202 16.6602 12.8821 16.6602 12.3436C16.6602 11.8051 16.2221 11.367 15.6836 11.367Z" fill="white"/>
<path d="M4.65872 14.1016L4.46665 14.4342C4.19743 14.9005 4.35778 15.499 4.82411 15.7682C4.97751 15.8568 5.14517 15.8989 5.31075 15.8988C5.64849 15.8988 5.97743 15.7237 6.15813 15.4107L6.91399 14.1016H4.65872Z" fill="white"/>
</svg>
