<?xml version="1.0" encoding="utf-8"?>
<!-- Generator: Adobe Illustrator 17.0.0, SVG Export Plug-In . SVG Version: 6.00 Build 0)  -->
<!DOCTYPE svg PUBLIC "-//W3C//DTD SVG 1.1//EN" "http://www.w3.org/Graphics/SVG/1.1/DTD/svg11.dtd">
<svg version="1.1" id="Layer_1" xmlns="http://www.w3.org/2000/svg" xmlns:xlink="http://www.w3.org/1999/xlink" x="0px" y="0px"
	 width="600px" height="550px" viewBox="0 0 600 550" enable-background="new 0 0 600 550" xml:space="preserve">
<g>
	<path fill="#7BACE0" d="M188.769,533.686l-96.512-55.708c-3.012-1.741-3.012-4.556,0-6.297l169.258-97.716
		c1.696-0.865,3.572-1.316,5.476-1.316s3.78,0.451,5.476,1.316l96.469,55.762c3.012,1.741,3.012,4.556,0,6.297l-169.258,97.661
		c-1.69,0.858-3.559,1.305-5.454,1.305C192.328,534.991,190.459,534.544,188.769,533.686z"/>
	<path fill="#0099BB" d="M355.07,396.01c0,2.924-2.048,4.786-4.589,6.242l-145.053,83.775c-2.53,1.456-4.589,0.274-4.589-2.661
		v-295.26c0.087-1.594,0.548-3.145,1.345-4.528c0.797-1.383,1.908-2.559,3.244-3.434l145.053-83.731
		c2.541-1.467,4.589-0.274,4.589,2.65V396.01z M357.435,62.006l-158.426,91.452c-1.557,1.021-2.851,2.393-3.78,4.006
		c-0.928,1.613-1.464,3.422-1.565,5.28v356.421c0,3.417,2.399,4.807,5.345,3.088l158.426-91.43c1.555-1.022,2.849-2.394,3.778-4.007
		c0.928-1.613,1.465-3.421,1.567-5.279V65.061C362.78,61.677,360.382,60.286,357.435,62.006z"/>
	<path opacity="0.5" d="M355.07,396.01c0,2.924-2.048,4.786-4.589,6.242l-145.053,83.775c-2.53,1.456-4.589,0.274-4.589-2.661
		v-295.26c0.087-1.594,0.548-3.145,1.345-4.528c0.797-1.383,1.908-2.559,3.244-3.434l145.053-83.731
		c2.541-1.467,4.589-0.274,4.589,2.65V396.01z M357.435,62.006l-158.426,91.452c-1.557,1.021-2.851,2.393-3.78,4.006
		c-0.928,1.613-1.464,3.422-1.565,5.28v356.421c0,3.417,2.399,4.807,5.345,3.088l158.426-91.43c1.555-1.022,2.849-2.394,3.778-4.007
		c0.928-1.613,1.465-3.421,1.567-5.279V65.061C362.78,61.677,360.382,60.286,357.435,62.006z"/>
	<path fill="#0099BB" d="M198.363,522.592c-1.6,0.677-3.327,0.999-5.063,0.942c-1.736-0.057-3.439-0.49-4.991-1.27l-6.122-3.548
		c-1.566-1.011-2.87-2.378-3.805-3.991c-0.935-1.612-1.474-3.424-1.573-5.285V153.03c0.035-1.382,0.352-2.742,0.931-3.997
		c0.187-0.442,0.399-0.874,0.635-1.292l16.867,9.735c-0.361,0.628-0.672,1.284-0.931,1.96c-0.405,1.049-0.624,2.161-0.646,3.285
		v356.443C193.664,522.308,195.702,523.742,198.363,522.592z"/>
	<path opacity="0.6" d="M198.363,522.592c-1.6,0.677-3.327,0.999-5.063,0.942c-1.736-0.057-3.439-0.49-4.991-1.27l-6.122-3.548
		c-1.566-1.011-2.87-2.378-3.805-3.991c-0.935-1.612-1.474-3.424-1.573-5.285V153.03c0.035-1.382,0.352-2.742,0.931-3.997
		c0.187-0.442,0.399-0.874,0.635-1.292l16.867,9.735c-0.361,0.628-0.672,1.284-0.931,1.96c-0.405,1.049-0.624,2.161-0.646,3.285
		v356.443C193.664,522.308,195.702,523.742,198.363,522.592z"/>
	<path fill="#37474F" d="M281.733,450.426c-1.338,0.049-2.64,0.446-3.779,1.15c-2.451,1.612-4.489,3.779-5.948,6.324
		c-1.459,2.545-2.299,5.398-2.452,8.328c0,3.822,1.906,6.034,4.677,6.034c1.339-0.05,2.642-0.45,3.779-1.161
		c2.465-1.6,4.516-3.761,5.986-6.306c1.47-2.545,2.316-5.401,2.469-8.336c0-3.822-1.906-6.034-4.677-6.034H281.733z
		 M281.733,452.068c2.738,0,3.034,3.066,3.034,4.38c-0.17,2.647-0.951,5.219-2.281,7.514s-3.174,4.251-5.386,5.715
		c-0.892,0.554-1.909,0.875-2.957,0.931c-2.738,0-3.034-3.077-3.034-4.38c0.167-2.648,0.947-5.22,2.277-7.516
		c1.33-2.295,3.175-4.251,5.389-5.713C279.665,452.44,280.683,452.119,281.733,452.068z"/>
	<path fill="#37474F" d="M278.107,113.245c1.982-1.095,3.592-0.219,3.592,2.07c-0.069,1.246-0.43,2.458-1.054,3.539
		s-1.494,1.999-2.539,2.681c-1.982,1.095-3.592,0.219-3.592-2.081c0.068-1.245,0.428-2.456,1.053-3.535
		C276.192,114.841,277.062,113.924,278.107,113.245z"/>
	<path fill="#37474F" d="M258.809,135.443l38.826-22.428c1.654-0.953,3.001-0.274,3.001,1.511c-0.075,1.008-0.386,1.983-0.907,2.849
		c-0.521,0.865-1.239,1.596-2.094,2.134l-38.826,22.428c-1.665,0.953-3.001,0.274-3.001-1.522c0.076-1.006,0.387-1.98,0.908-2.843
		C257.238,136.708,257.955,135.979,258.809,135.443z"/>
	<path fill="#0099BB" d="M355.07,396.032c0,2.924-2.048,4.786-4.589,6.242l-145.053,83.753c-2.53,1.456-4.589,0.274-4.589-2.661
		v-295.26c0.087-1.594,0.548-3.145,1.345-4.528c0.797-1.383,1.908-2.559,3.244-3.434l145.053-83.731
		c2.541-1.467,4.589-0.274,4.589,2.65V396.032z"/>
	<path opacity="0.8" fill="#FFFFFF" d="M355.07,396.032c0,2.924-2.048,4.786-4.589,6.242l-145.053,83.753
		c-2.53,1.456-4.589,0.274-4.589-2.661v-295.26c0.087-1.594,0.548-3.145,1.345-4.528c0.797-1.383,1.908-2.559,3.244-3.434
		l145.053-83.731c2.541-1.467,4.589-0.274,4.589,2.65V396.032z"/>
	<path fill="#FFFFFF" d="M323.45,403.95L216.117,465.91c-2.026,1.172-3.669-0.405-3.669-3.526v-6.373
		c0-3.121,1.643-6.571,3.669-7.764l107.333-61.961c2.026-1.172,3.669,0.405,3.669,3.526v6.363
		C327.119,399.306,325.476,402.778,323.45,403.95z"/>
	<path fill="#0099BB" d="M332.847,395.693v-11.958c0-1.555,0.482-2.278,2.114-2.42l11.336-0.679c1.172,0.219,1.5,1.237,0.734,2.267
		L334.227,396.7C333.505,397.467,332.847,397.259,332.847,395.693z"/>
	<path fill="#0099BB" d="M362.737,64.24c-0.383-2.781-2.618-3.789-5.301-2.19l-158.426,91.408c-1.586,0.986-2.888,2.367-3.779,4.008
		l-16.867-9.735c0.903-1.631,2.212-3,3.8-3.975l158.404-91.473c1.661-0.843,3.498-1.282,5.361-1.282c1.863,0,3.7,0.439,5.361,1.282
		l6.144,3.526c1.434,0.946,2.649,2.188,3.563,3.643S362.505,62.537,362.737,64.24z"/>
	<path opacity="0.3" d="M362.737,64.24c-0.383-2.781-2.618-3.789-5.301-2.19l-158.426,91.408c-1.586,0.986-2.888,2.367-3.779,4.008
		l-16.867-9.735c0.903-1.631,2.212-3,3.8-3.975l158.404-91.473c1.661-0.843,3.498-1.282,5.361-1.282c1.863,0,3.7,0.439,5.361,1.282
		l6.144,3.526c1.434,0.946,2.649,2.188,3.563,3.643S362.505,62.537,362.737,64.24z"/>
	<path fill="#37474F" d="M311.928,394.335l-3.866-2.19c-0.411-0.272-0.753-0.637-0.998-1.065s-0.387-0.907-0.414-1.399v-99.49
		c0.028-0.494,0.171-0.974,0.418-1.402c0.247-0.428,0.592-0.792,1.006-1.062l197.362-113.89c0.44-0.227,0.929-0.345,1.424-0.345
		s0.983,0.118,1.424,0.345l3.855,2.19c0.414,0.27,0.759,0.633,1.007,1.062c0.247,0.428,0.39,0.909,0.417,1.402v99.446
		c-0.026,0.494-0.168,0.975-0.416,1.403c-0.247,0.428-0.593,0.792-1.008,1.061l-197.351,113.89c-0.44,0.23-0.928,0.354-1.424,0.362
		C312.866,394.66,312.375,394.551,311.928,394.335z"/>
	<path fill="#455A64" d="M314.776,291.604l197.351-113.89c0.789-0.449,1.424-0.088,1.424,0.821v99.446
		c-0.026,0.494-0.168,0.975-0.416,1.403s-0.593,0.792-1.008,1.061l-197.351,113.89c-0.789,0.449-1.424,0.077-1.424-0.821v-99.446
		c0.026-0.494,0.168-0.975,0.416-1.403C314.015,292.236,314.361,291.873,314.776,291.604z"/>
	<path fill="#263238" d="M314.458,394.477c-0.408,0.15-0.842,0.214-1.276,0.187c-0.434-0.026-0.857-0.142-1.243-0.341l-3.855-2.19
		c-0.413-0.271-0.757-0.635-1.004-1.063c-0.247-0.428-0.391-0.908-0.419-1.401v-99.479c0.015-0.495,0.159-0.978,0.416-1.402
		l6.703,3.866c-0.257,0.423-0.401,0.906-0.416,1.402v99.446C313.363,394.28,313.812,394.685,314.458,394.477z"/>
	<path fill="#E0E0E0" d="M323.636,333.896l10.952-6.33c1.314-0.756,2.377-0.219,2.377,1.194c-0.058,0.798-0.303,1.571-0.716,2.256
		c-0.413,0.685-0.982,1.263-1.66,1.687l-10.952,6.33c-1.303,0.756-2.366,0.219-2.366-1.205c0.059-0.795,0.304-1.564,0.715-2.247
		C322.396,334.898,322.962,334.321,323.636,333.896z"/>
	<path fill="#E0E0E0" d="M342.737,322.858l27.907-16.109c1.303-0.756,2.366-0.219,2.366,1.205c-0.059,0.795-0.304,1.564-0.715,2.247
		c-0.411,0.683-0.976,1.26-1.651,1.684l-27.918,16.12c-1.303,0.756-2.366,0.219-2.366-1.205c0.058-0.798,0.303-1.571,0.716-2.256
		C341.49,323.859,342.059,323.281,342.737,322.858z"/>
	<path fill="#E0E0E0" d="M377.61,302.697l30.086-17.346c1.314-0.756,2.377-0.219,2.377,1.194c-0.058,0.798-0.303,1.571-0.716,2.256
		c-0.413,0.685-0.982,1.263-1.66,1.687l-30.086,17.346c-1.314,0.756-2.377,0.219-2.377-1.194c0.058-0.798,0.303-1.571,0.716-2.256
		C376.362,303.699,376.931,303.121,377.61,302.697z"/>
	<path fill="#E0E0E0" d="M323.625,303.08l27.918-16.109c1.303-0.756,2.366-0.219,2.366,1.194c-0.058,0.797-0.302,1.568-0.713,2.253
		c-0.411,0.685-0.977,1.263-1.653,1.689l-27.918,16.065c-1.303,0.756-2.366,0.219-2.366-1.205c0.066-0.787,0.314-1.548,0.724-2.223
		S322.956,303.5,323.625,303.08z"/>
	<path fill="#E0E0E0" d="M358.509,282.985l25.804-14.893c1.314-0.756,2.366-0.219,2.366,1.205c-0.057,0.795-0.3,1.566-0.712,2.249
		c-0.411,0.683-0.978,1.26-1.654,1.682l-25.815,14.904c-1.303,0.756-2.366,0.219-2.366-1.205c0.058-0.798,0.303-1.571,0.716-2.256
		C357.261,283.987,357.83,283.409,358.509,282.985z"/>
	<path fill="#E0E0E0" d="M391.432,263.92l17.02-9.856c1.303-0.756,2.366-0.219,2.366,1.205c-0.059,0.795-0.304,1.564-0.715,2.247
		c-0.411,0.683-0.976,1.26-1.651,1.684l-17.02,9.856c-1.314,0.756-2.377,0.219-2.377-1.205c0.06-0.796,0.306-1.567,0.719-2.25
		C390.186,264.918,390.754,264.342,391.432,263.92z"/>
	<path fill="#E0E0E0" d="M323.625,349.283l27.918-16.109c1.303-0.756,2.366-0.219,2.366,1.205c-0.059,0.795-0.304,1.564-0.715,2.247
		c-0.411,0.683-0.976,1.26-1.651,1.684l-27.918,16.12c-1.303,0.756-2.366,0.219-2.366-1.205c0.057-0.797,0.302-1.568,0.713-2.253
		S322.949,349.708,323.625,349.283z"/>
	<path fill="#E0E0E0" d="M358.509,329.155l25.804-14.893c1.314-0.767,2.366-0.219,2.366,1.194c-0.056,0.797-0.299,1.57-0.71,2.255
		c-0.411,0.685-0.978,1.263-1.655,1.688l-25.815,14.893c-1.303,0.756-2.366,0.219-2.366-1.194c0.058-0.798,0.303-1.571,0.716-2.256
		C357.261,330.156,357.83,329.578,358.509,329.155z"/>
	<path fill="#E0E0E0" d="M391.432,310.122l17.02-9.801c1.303-0.756,2.366-0.219,2.366,1.194c-0.058,0.797-0.302,1.568-0.713,2.253
		s-0.977,1.263-1.653,1.689l-17.02,9.856c-1.314,0.756-2.377,0.219-2.377-1.205c0.051-0.805,0.293-1.587,0.707-2.28
		S390.747,310.55,391.432,310.122z"/>
	<path fill="#E0E0E0" d="M323.625,318.488l52.626-30.367c1.314-0.756,2.377-0.219,2.377,1.205c-0.06,0.796-0.306,1.567-0.719,2.25
		c-0.413,0.683-0.981,1.259-1.658,1.682l-52.626,30.378c-1.303,0.756-2.366,0.219-2.366-1.205c0.057-0.797,0.302-1.569,0.713-2.253
		C322.383,319.492,322.949,318.914,323.625,318.488z"/>
	<path fill="#E0E0E0" d="M383.885,283.697l23.778-13.689c1.314-0.756,2.377-0.219,2.377,1.194c-0.058,0.798-0.303,1.571-0.716,2.256
		c-0.413,0.685-0.982,1.263-1.66,1.687l-23.778,13.689c-1.314,0.767-2.377,0.219-2.377-1.194c0.058-0.798,0.303-1.571,0.716-2.256
		C382.638,284.699,383.207,284.121,383.885,283.697z"/>
	<path fill="#455A64" d="M509.104,282.142l1.588,13.141c0.037,0.303-0.011,0.611-0.139,0.888c-0.128,0.277-0.331,0.513-0.586,0.682
		c-0.255,0.168-0.552,0.262-0.857,0.271c-0.305,0.009-0.607-0.067-0.871-0.22l-12.573-7.206L509.104,282.142z"/>
	<path fill="#27DEBF" d="M334.6,358.81c-0.201-0.088-0.418-0.136-0.637-0.139c-0.22-0.004-0.438,0.036-0.642,0.118
		c-0.204,0.082-0.39,0.203-0.546,0.357c-0.156,0.154-0.281,0.338-0.365,0.54l-6.199,14.751l-1.479-1.435
		c-0.319-0.265-0.726-0.399-1.139-0.377s-0.804,0.2-1.092,0.498c-0.288,0.298-0.453,0.693-0.462,1.107
		c-0.009,0.414,0.139,0.816,0.414,1.126l3.198,3.11c0.294,0.285,0.685,0.45,1.095,0.46c0.109,0.011,0.219,0.011,0.329,0
		c0.261-0.052,0.505-0.167,0.711-0.335c0.206-0.168,0.368-0.384,0.472-0.629l7.13-16.974c0.183-0.394,0.203-0.844,0.056-1.252
		C335.296,359.328,334.993,358.995,334.6,358.81z"/>
	<path fill="#27DEBF" d="M348.487,350.739c-0.201-0.09-0.418-0.138-0.638-0.143s-0.439,0.035-0.643,0.117
		c-0.204,0.082-0.39,0.204-0.546,0.359c-0.156,0.155-0.28,0.34-0.363,0.543l-6.199,14.751l-1.479-1.435
		c-0.152-0.167-0.337-0.301-0.543-0.393s-0.429-0.141-0.655-0.143c-0.226-0.002-0.45,0.042-0.658,0.13
		c-0.208,0.088-0.395,0.218-0.551,0.382c-0.155,0.164-0.276,0.358-0.353,0.57c-0.077,0.212-0.11,0.438-0.096,0.663
		c0.014,0.225,0.074,0.445,0.177,0.646c0.103,0.201,0.246,0.379,0.421,0.522l3.198,3.11c0.194,0.185,0.43,0.32,0.687,0.395
		c0.257,0.074,0.529,0.085,0.792,0.032c0.262-0.054,0.506-0.171,0.712-0.341s0.368-0.387,0.471-0.634l7.13-16.963
		c0.087-0.199,0.133-0.413,0.136-0.63c0.003-0.217-0.036-0.433-0.117-0.634c-0.08-0.202-0.2-0.385-0.352-0.54
		S348.687,350.823,348.487,350.739z"/>
	<path fill="#27DEBF" d="M463.52,209.888c-22.058,12.747-39.943,43.705-39.943,69.177c0,25.472,17.929,35.799,39.943,23.063
		c22.014-12.736,39.965-43.716,39.943-69.177C503.442,207.489,485.556,197.152,463.52,209.888z"/>
	<path opacity="0.4" fill="#FFFFFF" d="M463.52,209.888c-22.058,12.747-39.943,43.705-39.943,69.177
		c0,25.472,17.929,35.799,39.943,23.063c22.014-12.736,39.965-43.716,39.943-69.177C503.442,207.489,485.556,197.152,463.52,209.888
		z"/>
	<path fill="#FFA8A7" d="M382.363,266.789c4.745,8.255,9.906,16.263,15.465,23.994c1.369,1.84,5.224,6.91,7.24,7.414
		c2.574,0.635,4.753-1.391,6.111-2.333c4.644-3.231,28.673-27.115,28.673-27.115c7.48-10.425,5.597-17.073,4.578-17.073
		c-1.019,0-8.685-2.015-15.246,4.38c-4.972,4.851-21.96,22.406-21.96,22.406c-4.009-4.709-6.637-7.041-10.635-11.761
		c-1.95-2.3-4.907-4.775-5.049-7.928c0.017-1.446,0.148-2.889,0.394-4.315c0.231-3.299,0.018-6.614-0.635-9.856
		c-0.014-0.147-0.051-0.291-0.11-0.427c-0.104-0.184-0.272-0.324-0.471-0.394c-0.37-0.106-0.764-0.086-1.121,0.056
		c-0.357,0.143-0.656,0.4-0.851,0.732c-0.374,0.67-0.578,1.423-0.591,2.19c-0.023,0.755-0.191,1.498-0.493,2.19
		c-0.065,0.141-0.163,0.265-0.285,0.361c-0.139,0.083-0.298,0.128-0.46,0.131c-0.92,0-1.402-0.997-1.741-1.719
		c-0.787-1.69-1.425-3.445-1.906-5.246c-0.329-1.237-0.898-2.431-1.325-3.658c-0.166-0.731-0.547-1.395-1.095-1.905
		c-0.997-0.723-2.399-0.318-3.494,0.23c-0.615,0.301-1.195,0.668-1.73,1.095c-1.57,1.442-2.607,3.371-2.946,5.475
		c-0.438,2.441-0.272,4.953,0.482,7.315c0.946,3.316,2.507,6.425,4.6,9.166C379.296,262.386,380.983,264.478,382.363,266.789z"/>
	<path fill="#27DEBF" d="M446.566,251.643c0,0-7.48-2.946-14.238,1.413c-6.758,4.358-25.103,25.417-25.103,25.417l-4.611-5.125
		c0,0-2.442,9.056-10.087,9.856c0,0,6.002,9.79,9.353,13.404c3.351,3.614,6.024,2.946,9.857,0
		c3.833-2.946,22.518-20.194,22.518-20.194c4.161-2.567,7.52-6.249,9.695-10.627C446.127,261.41,447.033,256.51,446.566,251.643z"/>
	<path opacity="0.25" d="M446.566,251.643c0,0-7.48-2.946-14.238,1.413c-6.758,4.358-25.103,25.417-25.103,25.417l-4.611-5.125
		c0,0-2.442,9.056-10.087,9.856c0,0,6.002,9.79,9.353,13.404c3.351,3.614,6.024,2.946,9.857,0
		c3.833-2.946,22.518-20.194,22.518-20.194c4.161-2.567,7.52-6.249,9.695-10.627C446.127,261.41,447.033,256.51,446.566,251.643z"/>
	<path fill="#F5F5F5" d="M484.483,274.148l-0.329,9.451c-0.821,1.095-1.676,2.092-2.541,3.099
		c-5.127,6.118-11.243,11.333-18.093,15.43c-12.606,7.282-23.843,7.02-31.16,0.712c-0.099-11.499-0.077-25.724,0.537-32.141
		c1.095-11.696,5.027-17.642,10.952-18.934c2.826-0.624,24.008,1.303,24.008,1.303l11.73,2.935c0.253,0.12,0.498,0.255,0.734,0.405
		c1.796,1.095,2.683,3.143,3.614,6.089C484.604,264.631,484.483,270.172,484.483,274.148z"/>
	<path fill="#263238" d="M466.576,218.375c-0.204,2.833-1.244,5.542-2.989,7.784c-1.745,2.242-4.116,3.915-6.813,4.807
		s-5.598,0.965-8.336,0.207s-5.189-2.311-7.043-4.463c-1.854-2.152-3.028-4.806-3.372-7.626s0.157-5.678,1.439-8.212
		c1.282-2.535,3.288-4.632,5.764-6.025c2.475-1.394,5.309-2.021,8.141-1.803c3.781,0.291,7.293,2.068,9.768,4.94
		C465.611,210.857,466.848,214.592,466.576,218.375z"/>
	<path fill="#263238" d="M476.225,229.325c0,0-3.154,10.721-4.228,12.44c-0.705,1.052-1.787,1.793-3.023,2.07l0.756-7.666
		L476.225,229.325z"/>
	<path fill="#263238" d="M474.429,213.501c0.123-0.337,0.315-0.645,0.564-0.903c0.249-0.258,0.549-0.462,0.882-0.597
		c0.447-0.135,0.92-0.161,1.38-0.077c2.902,0.383,4.589,2.99,4.753,5.782c0.031,2.049-0.368,4.083-1.172,5.968
		c-0.481,1.485-1.247,2.861-2.256,4.052c-0.483,0.535-1.073,0.965-1.731,1.261c-0.658,0.296-1.37,0.452-2.092,0.459
		c-0.979-0.085-1.964-0.055-2.935,0.088c0.329-2,0.664-3.997,1.008-5.99l0.821-4.906c0.12-0.723,0.274-1.446,0.361-2.19
		c0.016-0.976,0.148-1.947,0.394-2.891L474.429,213.501z"/>
	<path fill="#FFA8A7" d="M470.508,229.435c0.832,0.591,2.19-0.997,3.384-2.048c1.194-1.051,4.808-2.322,6.287,1.522
		c1.479,3.844-2.19,8.64-5.071,9.308c-4.896,1.095-5.378-1.993-5.378-1.993l-1.687,17.741c-6.571,7.162-23.142,6.899-15.662-0.537
		l0.548-6.877c-2.157,0.173-4.327,0.118-6.473-0.164c-3.483-0.81-5.476-3.756-6.254-7.666c-1.249-6.253-1.522-11.236,0.854-23.15
		c2.607-13.064,17.951-12.046,25.837-6.176C474.779,215.264,470.508,229.435,470.508,229.435z"/>
	<path fill="#263238" d="M475.875,218.495c0.35-1.259-0.274-2.552,0-3.833c0.274-1.281,1.095-1.807,1.555-2.847
		c0.843-1.993-0.263-3.57-1.818-4.84c-6.122-4.983-14.775-5.399-21.664-9.232c-0.994-0.626-2.042-1.161-3.132-1.599
		c-0.549-0.212-1.137-0.308-1.725-0.281c-0.588,0.026-1.164,0.174-1.692,0.435c-0.449,0.294-0.834,0.676-1.133,1.122
		c-0.299,0.446-0.506,0.947-0.608,1.474c-0.14,1.06-0.188,2.13-0.142,3.198c-1.008,0-1.906-0.69-2.935-0.788
		c-1.103-0.123-2.219,0.067-3.22,0.548c-0.673,0.281-1.227,0.789-1.566,1.435c-0.204,0.515-0.29,1.068-0.252,1.621
		c0.056,1.774,0.534,3.509,1.395,5.062c0.861,1.552,2.08,2.877,3.556,3.863c1.03,0.657,2.133,1.193,3.286,1.599
		c1.932,0.777,3.996,1.179,6.079,1.183c2.1-0.006,4.124-0.786,5.684-2.19c0.932,1.939,2.47,3.523,4.381,4.512
		c0.967,0.476,2.034,0.715,3.111,0.698c1.078-0.017,2.136-0.29,3.088-0.797c0.12,2.913,0.471,5.804,0.646,8.761
		c-0.055,0.944,0.255,1.873,0.865,2.595c1.698,1.577,3.165-1.938,4.195-2.738c0.602-0.471,0.657-1.654,0.734-2.333
		s0.142-1.413,0.164-2.114c-0.079-0.452-0.115-0.91-0.109-1.369C474.944,220.477,475.59,219.535,475.875,218.495z"/>
	<path fill="#263238" d="M477.353,213.085l5.476-2.442c-0.142-0.369-0.357-0.705-0.632-0.988c-0.275-0.283-0.605-0.508-0.969-0.661
		s-0.756-0.23-1.151-0.227c-0.395,0.003-0.785,0.086-1.147,0.244c-0.734,0.348-1.307,0.965-1.6,1.723
		C477.037,211.492,477.045,212.333,477.353,213.085z"/>
	<path fill="#F28F8F" d="M452.929,246.551c0,0,7.973-0.986,10.832-2.19c1.676-0.717,3.096-1.923,4.074-3.461
		c-0.536,1.574-1.386,3.023-2.497,4.26c-2.19,2.42-12.573,3.526-12.573,3.526L452.929,246.551z"/>
	<path fill="#263238" d="M454.868,226.259c-0.01,0.309,0.071,0.613,0.233,0.877c0.162,0.263,0.397,0.473,0.677,0.603
		s0.592,0.176,0.898,0.13c0.306-0.045,0.591-0.18,0.821-0.386c0.23-0.206,0.394-0.475,0.473-0.774
		c0.078-0.299,0.067-0.614-0.032-0.906s-0.282-0.549-0.526-0.739s-0.538-0.303-0.846-0.327c-0.211-0.012-0.423,0.018-0.623,0.088
		c-0.2,0.07-0.384,0.179-0.542,0.32c-0.158,0.141-0.286,0.313-0.377,0.504C454.932,225.84,454.879,226.048,454.868,226.259z"/>
	<path fill="#263238" d="M456.993,220.444l3.22,2.114c0.277-0.443,0.371-0.975,0.263-1.486s-0.411-0.959-0.843-1.252
		c-0.212-0.138-0.451-0.232-0.701-0.276c-0.25-0.044-0.506-0.036-0.753,0.022c-0.247,0.058-0.479,0.166-0.683,0.317
		C457.292,220.035,457.121,220.225,456.993,220.444z"/>
	<path fill="#F28F8F" d="M454.966,236.553l-4.49,1.303c0.074,0.3,0.207,0.582,0.392,0.83c0.185,0.248,0.417,0.456,0.684,0.612
		c0.267,0.156,0.562,0.257,0.868,0.298c0.306,0.04,0.618,0.019,0.915-0.064c0.604-0.19,1.111-0.606,1.415-1.161
		C455.054,237.815,455.131,237.164,454.966,236.553z"/>
	<path fill="#263238" d="M441.648,220.565l3.286-2.124c-0.128-0.219-0.299-0.41-0.503-0.561c-0.204-0.151-0.437-0.258-0.684-0.315
		s-0.504-0.064-0.753-0.019c-0.25,0.045-0.488,0.141-0.699,0.281c-0.439,0.286-0.751,0.73-0.872,1.239
		C441.302,219.576,441.383,220.113,441.648,220.565z"/>
	<path fill="#263238" d="M442.273,224.846c-0.01,0.309,0.071,0.613,0.233,0.877c0.162,0.263,0.397,0.473,0.677,0.603
		s0.592,0.176,0.898,0.13s0.591-0.18,0.821-0.386c0.23-0.206,0.394-0.475,0.473-0.774c0.078-0.299,0.067-0.614-0.032-0.906
		c-0.099-0.292-0.282-0.549-0.526-0.739s-0.538-0.303-0.846-0.327c-0.212-0.012-0.423,0.018-0.623,0.088
		c-0.2,0.07-0.384,0.179-0.542,0.32c-0.158,0.141-0.286,0.313-0.377,0.504C442.337,224.428,442.284,224.635,442.273,224.846z"/>
	<polygon fill="#F28F8F" points="449.709,223.97 448.461,233.388 443.653,231.33 	"/>
	<path fill="#27DEBF" d="M495.173,265.803c-3.041,6.31-6.75,12.275-11.062,17.795c-0.821,1.095-1.676,2.092-2.541,3.099
		c-5.553-9.856-6.9-26.282-3.899-31.166l3.1,0.471c3.003,0.384,5.873,1.472,8.376,3.175
		C491.649,260.88,493.714,263.151,495.173,265.803z"/>
	<path opacity="0.0625" d="M495.173,265.803c-3.041,6.31-6.75,12.275-11.062,17.795c-0.821,1.095-1.676,2.092-2.541,3.099
		c-5.553-9.856-6.9-26.282-3.899-31.166l3.1,0.471c3.003,0.384,5.873,1.472,8.376,3.175
		C491.649,260.88,493.714,263.151,495.173,265.803z"/>
	<path fill="#E76B9B" d="M218.504,304.427l-3.866-2.19c-0.414-0.27-0.759-0.633-1.007-1.062c-0.247-0.428-0.39-0.909-0.417-1.402
		v-99.479c0.026-0.494,0.168-0.975,0.416-1.403c0.247-0.428,0.593-0.792,1.008-1.061L411.989,83.94
		c0.442-0.222,0.929-0.337,1.424-0.337s0.982,0.115,1.424,0.337l3.866,2.19c0.414,0.27,0.759,0.634,1.007,1.062
		c0.247,0.428,0.39,0.909,0.417,1.402v99.446c-0.026,0.494-0.168,0.975-0.416,1.403c-0.247,0.428-0.593,0.792-1.008,1.061
		l-197.34,113.923c-0.442,0.228-0.932,0.348-1.429,0.348S218.946,304.656,218.504,304.427z"/>
	<path opacity="0.4" fill="#FFFFFF" d="M420.072,88.168c-0.186-0.591-0.734-0.778-1.369-0.394l-197.34,113.923
		c-0.422,0.276-0.768,0.652-1.008,1.095l-6.714-3.866c0.237-0.445,0.584-0.822,1.008-1.095L412.011,83.94
		c0.442-0.222,0.929-0.337,1.424-0.337c0.494,0,0.982,0.115,1.424,0.337l3.855,2.19c0.352,0.231,0.653,0.53,0.886,0.88
		C419.834,87.361,419.994,87.754,420.072,88.168z"/>
	<path fill="#E76B9B" d="M221.363,201.707l197.351-113.89c0.789-0.449,1.424-0.088,1.424,0.821v99.402
		c-0.026,0.494-0.168,0.975-0.416,1.403c-0.247,0.428-0.593,0.792-1.008,1.061L221.363,304.427c-0.789,0.46-1.424,0.088-1.424-0.821
		v-99.468c0.031-0.488,0.176-0.962,0.423-1.385C220.609,202.331,220.952,201.973,221.363,201.707z"/>
	<path opacity="0.15" d="M221.012,304.581c-0.406,0.15-0.838,0.213-1.27,0.187c-0.432-0.026-0.853-0.142-1.238-0.34l-3.855-2.19
		c-0.413-0.271-0.757-0.635-1.004-1.063c-0.247-0.428-0.391-0.908-0.419-1.401v-99.479c0.012-0.494,0.151-0.977,0.405-1.402
		l6.714,3.866c-0.26,0.423-0.408,0.906-0.427,1.402v99.446C219.917,304.384,220.388,304.767,221.012,304.581z"/>
	<path fill="#E76B9B" d="M224.375,302.697v10.141c-0.001,0.352,0.11,0.695,0.318,0.978c0.208,0.284,0.502,0.493,0.838,0.597
		s0.697,0.098,1.029-0.018c0.332-0.116,0.618-0.336,0.816-0.626l14.797-21.354L224.375,302.697z"/>
	<path fill="#FAFAFA" d="M320.186,190.877l10.952-6.33c1.303-0.756,2.366-0.219,2.366,1.205c-0.059,0.795-0.304,1.564-0.715,2.247
		c-0.411,0.683-0.976,1.26-1.651,1.684l-10.952,6.33c-1.314,0.756-2.377,0.219-2.377-1.194c0.058-0.798,0.303-1.571,0.716-2.256
		C318.939,191.878,319.508,191.301,320.186,190.877z"/>
	<path fill="#FAFAFA" d="M339.276,179.849l27.907-16.109c1.314-0.756,2.377-0.219,2.377,1.194c-0.058,0.798-0.303,1.571-0.716,2.256
		c-0.413,0.685-0.982,1.263-1.66,1.687l-27.907,16.109c-1.314,0.756-2.377,0.219-2.377-1.205c0.06-0.796,0.306-1.567,0.719-2.25
		C338.031,180.848,338.599,180.272,339.276,179.849z"/>
	<path fill="#FAFAFA" d="M374.149,159.71l31.499-18.168c1.303-0.756,2.366-0.219,2.366,1.205c-0.059,0.795-0.304,1.564-0.715,2.247
		c-0.411,0.683-0.976,1.26-1.651,1.684l-31.499,18.168c-1.303,0.756-2.366,0.219-2.366-1.194c0.057-0.797,0.302-1.568,0.713-2.253
		S373.473,160.136,374.149,159.71z"/>
	<path fill="#FAFAFA" d="M320.175,160.061l27.907-16.153c1.314-0.756,2.366-0.219,2.366,1.205c-0.057,0.795-0.3,1.566-0.711,2.249
		c-0.411,0.683-0.978,1.26-1.654,1.682l-27.907,16.109c-1.314,0.756-2.377,0.219-2.377-1.194c0.065-0.79,0.313-1.554,0.726-2.231
		C318.937,161.051,319.503,160.48,320.175,160.061z"/>
	<path fill="#FAFAFA" d="M355.048,139.933l25.804-14.904c1.314-0.756,2.377-0.219,2.377,1.205c-0.06,0.796-0.306,1.567-0.719,2.25
		s-0.981,1.259-1.658,1.682l-25.804,14.904c-1.314,0.756-2.377,0.219-2.377-1.205c0.061-0.795,0.308-1.565,0.721-2.248
		S354.372,140.357,355.048,139.933z"/>
	<path fill="#FAFAFA" d="M387.971,120.911l18.422-10.633c1.314-0.756,2.377-0.219,2.377,1.205c-0.056,0.8-0.301,1.575-0.714,2.262
		c-0.413,0.687-0.983,1.267-1.663,1.691l-18.422,10.633c-1.303,0.756-2.366,0.219-2.366-1.194c0.054-0.8,0.297-1.577,0.708-2.266
		C386.724,121.921,387.292,121.339,387.971,120.911z"/>
	<path fill="#FAFAFA" d="M320.175,206.328l27.907-16.109c1.314-0.756,2.366-0.219,2.366,1.194c-0.056,0.797-0.299,1.57-0.71,2.255
		c-0.411,0.685-0.978,1.263-1.655,1.688l-27.907,16.109c-1.314,0.756-2.377,0.219-2.377-1.205c0.06-0.796,0.306-1.567,0.719-2.25
		C318.93,207.327,319.498,206.751,320.175,206.328z"/>
	<path fill="#FAFAFA" d="M355.048,186.135l25.804-14.85c1.314-0.756,2.377-0.219,2.377,1.194c-0.058,0.798-0.303,1.571-0.716,2.256
		c-0.413,0.685-0.982,1.263-1.66,1.687l-25.804,14.893c-1.314,0.756-2.377,0.219-2.377-1.194c0.053-0.805,0.296-1.586,0.709-2.279
		C353.793,187.149,354.365,186.564,355.048,186.135z"/>
	<path fill="#FAFAFA" d="M387.971,167.113l18.422-10.633c1.314-0.756,2.377-0.219,2.377,1.194c-0.058,0.798-0.303,1.571-0.716,2.256
		c-0.413,0.685-0.982,1.263-1.66,1.687l-18.422,10.633c-1.303,0.756-2.366,0.219-2.366-1.205c0.059-0.795,0.304-1.564,0.715-2.247
		C386.731,168.115,387.296,167.538,387.971,167.113z"/>
	<path fill="#FAFAFA" d="M320.175,175.48l52.571-30.378c1.303-0.756,2.366-0.219,2.366,1.205c-0.059,0.795-0.304,1.564-0.715,2.247
		c-0.411,0.683-0.976,1.26-1.651,1.684l-52.571,30.378c-1.314,0.756-2.377,0.219-2.377-1.205c0.06-0.796,0.306-1.567,0.719-2.25
		C318.93,176.478,319.498,175.902,320.175,175.48z"/>
	<path fill="#FAFAFA" d="M380.424,140.688l25.191-14.521c1.314-0.756,2.377-0.219,2.377,1.194c-0.058,0.798-0.303,1.571-0.716,2.256
		c-0.413,0.685-0.982,1.263-1.66,1.687l-25.191,14.521c-1.314,0.756-2.377,0.219-2.366-1.205c0.059-0.795,0.304-1.564,0.715-2.247
		C379.185,141.69,379.75,141.113,380.424,140.688z"/>
	<path fill="#455A64" d="M396.875,179.028c-0.201-0.088-0.418-0.136-0.637-0.139c-0.22-0.004-0.438,0.036-0.642,0.118
		c-0.204,0.082-0.39,0.203-0.546,0.357c-0.156,0.154-0.281,0.338-0.365,0.54l-6.199,14.762l-1.435-1.478
		c-0.315-0.287-0.73-0.441-1.156-0.428c-0.426,0.013-0.831,0.191-1.128,0.497c-0.297,0.306-0.464,0.715-0.465,1.142
		c-0.001,0.426,0.164,0.837,0.46,1.144l3.209,3.11c0.291,0.292,0.683,0.461,1.095,0.471c0.109,0.011,0.219,0.011,0.329,0
		c0.262-0.052,0.508-0.169,0.714-0.339c0.206-0.17,0.367-0.389,0.469-0.636l7.174-17.007c0.155-0.397,0.15-0.839-0.014-1.233
		C397.574,179.515,397.265,179.199,396.875,179.028z"/>
	<path fill="#455A64" d="M410.774,170.957c-0.201-0.09-0.418-0.138-0.638-0.143s-0.439,0.035-0.643,0.117
		c-0.204,0.082-0.39,0.204-0.546,0.359c-0.156,0.155-0.28,0.34-0.363,0.543l-6.166,14.784l-1.435-1.467
		c-0.315-0.287-0.73-0.441-1.156-0.428s-0.831,0.191-1.128,0.497c-0.297,0.306-0.464,0.715-0.465,1.142
		c-0.001,0.426,0.164,0.837,0.46,1.144l3.198,3.11c0.151,0.151,0.33,0.27,0.528,0.351c0.197,0.081,0.409,0.122,0.622,0.12h0.318
		c0.262-0.056,0.507-0.173,0.715-0.343s0.372-0.386,0.479-0.632l7.13-16.974c0.087-0.202,0.133-0.42,0.134-0.64
		c0.001-0.22-0.042-0.439-0.127-0.642c-0.085-0.203-0.21-0.388-0.367-0.542C411.166,171.158,410.979,171.037,410.774,170.957z"/>
	<path fill="#455A64" d="M268.743,179.663c-22.058,12.747-39.943,43.705-39.932,69.177c0.011,25.472,17.885,35.799,39.943,23.063
		c22.058-12.736,39.954-43.716,39.932-69.177C308.664,177.265,290.779,166.905,268.743,179.663z"/>
	<path fill="#263238" d="M285.434,240.276c-7.448-0.307-27.228-2.825-27.228-2.825c-5.896-3.84-10.657-9.188-13.788-15.489
		c-3.132-6.301-4.52-13.325-4.02-20.343l0.438-6.154c0.371-5.675,2.664-11.054,6.503-15.251c3.839-4.197,8.993-6.96,14.613-7.834
		c3.396-0.514,6.863-0.258,10.147,0.749s6.299,2.739,8.822,5.068c2.524,2.329,4.492,5.195,5.758,8.387
		c1.266,3.192,1.799,6.628,1.558,10.053c-0.219,3.022,0.11,5.782,2.19,8.148c1.196,1.189,2.522,2.24,3.954,3.132
		c2.033,1.321,3.805,3.006,5.224,4.972c0.703,0.989,1.195,2.111,1.445,3.298c0.251,1.187,0.254,2.412,0.011,3.601
		c-0.42,1.512-1.264,2.872-2.431,3.92c-0.211,0.147-0.357,0.371-0.405,0.624c0.007,0.183,0.064,0.361,0.164,0.515
		c1.774,3.22,2.3,7.37,0.405,10.524c-1.292,1.967-3.228,3.423-5.476,4.118c-2.222,0.681-4.545,0.977-6.867,0.876
		C286.19,240.276,285.807,240.276,285.434,240.276z"/>
	<path fill="#FFA8A7" d="M250.551,240.474c-0.554,4.123-2.705,7.863-5.991,10.414c-1.081,0.849-2.285,1.529-3.57,2.015l0,0
		l-5.619,17.423c-4.14-4.873-6.571-12.177-6.571-21.508c0.029-3.752,0.396-7.494,1.095-11.181c2.88-7.14,6.571-10.119,14.611-10.951
		C244.9,226.927,251.909,231.691,250.551,240.474z"/>
	<path fill="#FFA8A7" d="M336.363,239.674c-4.739,8.256-9.897,16.264-15.454,23.994c-1.38,1.84-5.235,6.921-7.251,7.414
		c-2.563,0.635-4.742-1.391-6.111-2.333c-4.644-3.22-28.673-27.104-28.673-27.104c-7.48-10.425-5.597-17.073-4.578-17.084
		c1.019-0.011,8.685-2.015,15.246,4.38c4.972,4.851,21.96,22.406,21.96,22.406c4.009-4.709,6.637-7.041,10.635-11.761
		c1.95-2.3,4.918-4.775,5.049-7.939c-0.014-1.446-0.142-2.889-0.383-4.315c-0.242-3.298-0.032-6.614,0.624-9.856
		c0.013-0.147,0.05-0.292,0.11-0.427c0.107-0.181,0.273-0.321,0.471-0.394c0.368-0.107,0.762-0.089,1.119,0.052
		c0.357,0.141,0.657,0.396,0.853,0.726c0.376,0.67,0.583,1.422,0.602,2.19c0.019,0.754,0.183,1.498,0.482,2.19
		c0.063,0.142,0.161,0.267,0.285,0.361c0.139,0.093,0.304,0.139,0.471,0.131c0.909,0,1.402-0.986,1.73-1.708
		c0.792-1.691,1.43-3.451,1.906-5.256c0.329-1.237,0.898-2.431,1.325-3.658c0.167-0.727,0.549-1.387,1.095-1.895
		c0.986-0.734,2.388-0.329,3.494,0.23c0.61,0.303,1.187,0.671,1.72,1.095c1.575,1.438,2.614,3.369,2.946,5.475
		c0.443,2.437,0.278,4.946-0.482,7.304c-0.939,3.319-2.5,6.429-4.6,9.166C339.462,235.272,337.765,237.364,336.363,239.674z"/>
	<path fill="#FAFAFA" d="M282.904,255.159l-0.274,5.859c-4.121,4.229-8.788,7.889-13.877,10.885
		c-4.517,2.738-9.544,4.53-14.775,5.267c-3.679,0.497-7.424,0.072-10.898-1.237l0.821-2.584l-2.935-20.424
		c0.439-0.418,0.829-0.884,1.161-1.391c0.164-0.23,0.329-0.482,0.515-0.777c0.212-0.328,0.406-0.668,0.58-1.018
		c0.131-0.241,0.252-0.493,0.383-0.767c0.131-0.274,0.252-0.548,0.383-0.843l0.219-0.493c0.131-0.329,0.263-0.69,0.394-1.095
		c0.043-0.103,0.08-0.21,0.11-0.318c0.62-1.87,1.06-3.795,1.314-5.749c1.095-8.115-0.92-12.977-1.566-13.809
		c0.34-0.11,7.809-0.526,7.809-0.526l14.972-1.752l7.174,0.274c5.464,3.376,9.69,8.427,12.048,14.401
		C290.286,248.468,282.904,255.159,282.904,255.159z"/>
	<path opacity="0.1" d="M253.979,277.17c-3.679,0.497-7.424,0.072-10.898-1.237l0.821-2.584l-2.935-20.424
		c0.439-0.418,0.829-0.884,1.161-1.391c0.164-0.23,0.329-0.482,0.515-0.778c0.212-0.328,0.406-0.668,0.58-1.018
		c0.131-0.241,0.252-0.493,0.383-0.767c0.131-0.274,0.252-0.548,0.383-0.843l0.219-0.493c0.131-0.329,0.263-0.69,0.394-1.095
		c0.043-0.103,0.08-0.21,0.11-0.318c-0.066,1.095-0.153,2.803-0.175,4.654c-0.031,2.092,0.064,4.184,0.285,6.264
		c0.657,5.344,6.385,16.996,8.63,18.847c0.194,0.124,0.347,0.302,0.441,0.512S254.017,276.943,253.979,277.17z"/>
	<path fill="#FFA8A7" d="M282.149,185.905c1.413,1.686,3.165,5.968,1.72,19.602c-1.227,11.553-5.213,14.105-7.163,14.773
		s-5.542-0.142-9.025-1.018l-0.471,5.64c3.342,2.617,6.206,5.792,8.466,9.385c2.672,4.599-10.098,5.475-17.633-1.632
		c-4.03-3.8-6.571-6.483-6.571-6.483l1.479-16.711c0,0-2.19,1.851-5.476-1.522c-2.694-2.782-3.286-7.151-0.865-9.275
		c0.633-0.499,1.376-0.84,2.167-0.995c0.791-0.155,1.607-0.12,2.382,0.102c0.775,0.223,1.485,0.626,2.073,1.177
		c0.588,0.551,1.036,1.234,1.308,1.993c0,0,5.619,0.679,13.46-2.825S281.272,190.351,282.149,185.905z"/>
	<path fill="#263238" d="M271.744,201.828c0.008,0.202-0.026,0.404-0.099,0.592c-0.074,0.189-0.185,0.36-0.328,0.503
		s-0.314,0.255-0.502,0.33c-0.188,0.074-0.39,0.108-0.592,0.101s-0.401-0.057-0.583-0.145c-0.182-0.088-0.344-0.213-0.476-0.366
		s-0.23-0.333-0.289-0.526c-0.059-0.193-0.078-0.397-0.054-0.598c-0.008-0.202,0.026-0.404,0.099-0.592
		c0.073-0.189,0.185-0.36,0.328-0.503c0.143-0.143,0.314-0.255,0.502-0.33c0.188-0.074,0.39-0.108,0.592-0.101
		s0.401,0.057,0.583,0.145c0.182,0.088,0.344,0.213,0.476,0.366c0.132,0.154,0.23,0.333,0.29,0.526
		C271.749,201.423,271.767,201.627,271.744,201.828z"/>
	<path fill="#F28F8F" d="M270.101,210.994l3.757,1.544c-0.09,0.253-0.23,0.485-0.412,0.682c-0.182,0.197-0.401,0.356-0.646,0.466
		c-0.244,0.11-0.509,0.17-0.777,0.176c-0.268,0.006-0.535-0.042-0.784-0.142c-0.496-0.23-0.888-0.638-1.099-1.142
		C269.931,212.073,269.916,211.508,270.101,210.994z"/>
	<path fill="#263238" d="M283.704,198.893l-3.198-1.61c0.094-0.215,0.231-0.408,0.402-0.567c0.171-0.16,0.373-0.283,0.594-0.362
		c0.22-0.079,0.455-0.112,0.689-0.097c0.234,0.015,0.462,0.077,0.671,0.183c0.428,0.223,0.754,0.602,0.911,1.058
		C283.929,197.954,283.904,198.454,283.704,198.893z"/>
	<path fill="#263238" d="M282.149,202.353c-0.022,0.284-0.126,0.556-0.301,0.781c-0.174,0.225-0.411,0.395-0.681,0.487
		c-0.27,0.092-0.561,0.103-0.837,0.032c-0.276-0.072-0.525-0.223-0.716-0.434c-0.191-0.212-0.316-0.475-0.359-0.757
		c-0.043-0.282-0.002-0.57,0.117-0.829c0.119-0.259,0.312-0.477,0.554-0.627c0.242-0.15,0.523-0.226,0.808-0.219
		c0.196,0.01,0.388,0.058,0.565,0.142c0.177,0.084,0.336,0.202,0.467,0.348s0.233,0.315,0.298,0.5S282.159,202.158,282.149,202.353z
		"/>
	<polygon fill="#F28F8F" points="276.3,200.262 275.435,209.734 280.166,208.694 	"/>
	<path fill="#F28F8F" d="M267.681,219.262c-3.691-0.799-11.16-3.636-12.048-6.757c0.351,1.572,1.177,2.998,2.366,4.085
		c2.125,2.19,9.54,4.983,9.54,4.983L267.681,219.262z"/>
	<path fill="#263238" d="M253.683,205.135c0.776,0,1.519-0.308,2.068-0.856c0.548-0.548,0.856-1.292,0.856-2.068
		c0-0.775-0.308-1.519-0.856-2.068c-0.548-0.548-1.292-0.856-2.068-0.856V205.135z"/>
	<polygon fill="#0099BB" points="436.315,394.554 482.643,364.888 503.048,371.447 	"/>
	<polygon fill="#0099BB" points="436.315,394.554 476.357,361.164 467.463,350.892 	"/>
	<polygon fill="#0099BB" points="476.357,361.164 476.357,368.918 436.315,394.554 	"/>
	<polygon opacity="0.3" points="476.357,361.164 476.357,368.918 436.315,394.554 	"/>
	<polygon fill="#0099BB" points="533.638,157.684 499.466,135.804 484.418,140.634 	"/>
	<polygon fill="#0099BB" points="533.638,157.684 504.099,133.056 510.67,125.478 	"/>
	<polygon fill="#0099BB" points="504.099,133.056 504.099,138.772 533.638,157.684 	"/>
	<polygon opacity="0.3" points="504.099,133.056 504.099,138.772 533.638,157.684 	"/>
	<path fill="#E0E0E0" d="M498.053,131.402c-0.237,0-0.468-0.077-0.657-0.219c-0.427-0.329-0.865-0.646-1.303-0.964
		c-0.118-0.084-0.217-0.19-0.294-0.313c-0.076-0.123-0.128-0.259-0.151-0.402c-0.023-0.142-0.018-0.288,0.015-0.429
		c0.033-0.141,0.094-0.273,0.178-0.39c0.085-0.117,0.192-0.216,0.315-0.291c0.123-0.075,0.26-0.126,0.402-0.148
		c0.142-0.022,0.288-0.016,0.428,0.018s0.272,0.095,0.389,0.18c0.449,0.318,0.898,0.646,1.336,0.986
		c0.184,0.138,0.32,0.33,0.388,0.55s0.066,0.455-0.006,0.673s-0.212,0.408-0.399,0.542
		C498.507,131.33,498.283,131.402,498.053,131.402z"/>
	<path fill="#E0E0E0" d="M456.971,115.819c-1.095,0-2.289,0-3.428,0c-0.29,0-0.569-0.115-0.774-0.321
		c-0.205-0.205-0.321-0.484-0.321-0.774s0.115-0.569,0.321-0.774c0.205-0.205,0.484-0.321,0.774-0.321c1.194,0,2.366,0,3.549,0
		c0.29,0,0.569,0.115,0.774,0.321c0.205,0.205,0.321,0.484,0.321,0.774s-0.115,0.569-0.321,0.774
		c-0.205,0.205-0.484,0.321-0.774,0.321H456.971z M444.244,116.684c-0.144,0.012-0.289-0.004-0.426-0.048
		c-0.138-0.044-0.265-0.114-0.375-0.207s-0.201-0.207-0.268-0.335c-0.066-0.128-0.107-0.268-0.119-0.412
		c-0.012-0.144,0.004-0.289,0.048-0.426c0.044-0.138,0.114-0.265,0.207-0.375c0.093-0.11,0.207-0.201,0.335-0.268
		c0.128-0.066,0.268-0.107,0.412-0.119c1.161-0.197,2.344-0.372,3.516-0.504c0.29-0.033,0.582,0.05,0.811,0.232
		c0.229,0.182,0.376,0.447,0.41,0.737c0.033,0.29-0.05,0.582-0.232,0.811c-0.182,0.229-0.447,0.376-0.738,0.41
		c-1.095,0.131-2.267,0.296-3.395,0.493L444.244,116.684z M466.149,116.859h-0.208c-1.095-0.208-2.256-0.394-3.373-0.537
		c-0.144-0.019-0.283-0.066-0.408-0.138c-0.126-0.072-0.236-0.169-0.324-0.284c-0.089-0.115-0.153-0.246-0.191-0.386
		c-0.038-0.14-0.048-0.286-0.029-0.43c0.019-0.144,0.066-0.283,0.138-0.408c0.072-0.126,0.169-0.236,0.284-0.324
		c0.115-0.088,0.246-0.153,0.386-0.191c0.14-0.038,0.286-0.048,0.43-0.029c1.161,0.153,2.333,0.339,3.494,0.559
		c0.29,0.026,0.559,0.167,0.746,0.39s0.277,0.513,0.251,0.803c-0.026,0.29-0.167,0.559-0.39,0.745s-0.513,0.277-0.803,0.251V116.859
		z M435.197,118.973c-0.231,0-0.456-0.073-0.643-0.209c-0.187-0.136-0.326-0.327-0.398-0.547c-0.09-0.274-0.068-0.574,0.061-0.832
		c0.129-0.258,0.355-0.455,0.629-0.548c1.095-0.383,2.256-0.723,3.384-1.095c0.139-0.038,0.284-0.049,0.427-0.031
		s0.281,0.064,0.406,0.135s0.235,0.166,0.323,0.28c0.088,0.114,0.153,0.244,0.191,0.383c0.038,0.139,0.049,0.284,0.031,0.427
		c-0.018,0.143-0.064,0.281-0.135,0.406s-0.166,0.235-0.28,0.323s-0.244,0.153-0.383,0.191c-1.095,0.307-2.19,0.635-3.286,0.997
		c-0.091,0.057-0.191,0.098-0.296,0.12H435.197z M475.141,119.192c-0.119-0.002-0.237-0.021-0.35-0.055
		c-1.095-0.361-2.19-0.701-3.286-1.008c-0.15-0.027-0.292-0.085-0.418-0.17s-0.233-0.196-0.314-0.324
		c-0.081-0.129-0.134-0.273-0.156-0.424s-0.013-0.304,0.028-0.451s0.111-0.283,0.207-0.401c0.096-0.118,0.216-0.214,0.352-0.283
		s0.284-0.109,0.436-0.117c0.152-0.008,0.304,0.015,0.446,0.068c1.095,0.307,2.267,0.657,3.384,1.029
		c0.138,0.045,0.265,0.116,0.375,0.21c0.11,0.094,0.2,0.209,0.265,0.339c0.065,0.129,0.104,0.27,0.114,0.415
		s-0.008,0.29-0.054,0.427c-0.071,0.211-0.204,0.395-0.382,0.528c-0.178,0.133-0.392,0.209-0.614,0.217H475.141z M483.749,122.685
		c-0.163,0.001-0.325-0.036-0.471-0.109c-1.03-0.493-2.092-0.975-3.132-1.413c-0.138-0.052-0.264-0.132-0.37-0.234
		c-0.106-0.102-0.191-0.224-0.249-0.36c-0.058-0.135-0.088-0.281-0.088-0.429s0.029-0.293,0.087-0.429
		c0.058-0.136,0.142-0.258,0.248-0.361s0.232-0.182,0.369-0.235c0.138-0.053,0.285-0.077,0.432-0.071s0.292,0.041,0.425,0.103
		c1.095,0.46,2.19,0.942,3.22,1.456c0.223,0.108,0.402,0.288,0.509,0.511c0.107,0.223,0.136,0.475,0.081,0.717
		c-0.055,0.241-0.189,0.457-0.382,0.612C484.236,122.599,483.997,122.684,483.749,122.685z M491.887,127.175
		c-0.205,0.001-0.406-0.056-0.58-0.164c-0.971-0.613-1.957-1.205-2.957-1.774c-0.253-0.145-0.437-0.385-0.513-0.666
		c-0.076-0.281-0.037-0.581,0.108-0.834s0.385-0.437,0.666-0.513s0.581-0.037,0.834,0.108c1.03,0.591,2.037,1.194,3.034,1.818
		c0.203,0.126,0.359,0.314,0.445,0.536c0.086,0.222,0.097,0.467,0.031,0.696c-0.066,0.229-0.204,0.431-0.395,0.574
		s-0.423,0.22-0.661,0.22H491.887z"/>
	<path fill="#E0E0E0" d="M428.297,121.743c-0.247-0.001-0.487-0.087-0.68-0.242c-0.193-0.155-0.327-0.371-0.382-0.612
		c-0.055-0.241-0.026-0.494,0.081-0.717c0.107-0.223,0.287-0.403,0.509-0.511l1.522-0.69c0.132-0.058,0.273-0.09,0.417-0.093
		c0.144-0.003,0.287,0.021,0.421,0.073c0.134,0.052,0.257,0.13,0.361,0.229c0.104,0.099,0.188,0.218,0.246,0.35
		s0.09,0.273,0.093,0.417s-0.021,0.287-0.073,0.421c-0.052,0.134-0.13,0.257-0.229,0.361c-0.099,0.104-0.218,0.188-0.35,0.246
		c-0.493,0.208-0.986,0.438-1.479,0.668C428.613,121.711,428.456,121.744,428.297,121.743z"/>
	<path fill="#E0E0E0" d="M489.883,357.08c-0.231-0.001-0.455-0.076-0.641-0.212c-0.186-0.137-0.324-0.329-0.395-0.548
		c-0.07-0.22-0.07-0.456,0.002-0.676c0.072-0.219,0.211-0.41,0.398-0.546l1.336-0.953c0.116-0.086,0.249-0.147,0.389-0.182
		c0.14-0.034,0.286-0.041,0.429-0.019c0.143,0.022,0.28,0.072,0.404,0.147c0.124,0.075,0.231,0.173,0.317,0.29
		s0.147,0.249,0.182,0.389c0.034,0.14,0.041,0.286,0.019,0.429c-0.022,0.143-0.072,0.28-0.147,0.404
		c-0.075,0.124-0.173,0.231-0.29,0.317l-1.336,0.964C490.356,357.019,490.121,357.088,489.883,357.08z"/>
	<path fill="#E0E0E0" d="M533.9,306.508c-0.105,0.015-0.212,0.015-0.318,0c-0.275-0.086-0.505-0.277-0.64-0.531
		c-0.135-0.254-0.165-0.551-0.083-0.827c0.307-1.029,0.591-2.07,0.832-3.099c0.067-0.283,0.243-0.528,0.491-0.681
		c0.247-0.153,0.546-0.201,0.829-0.135s0.528,0.243,0.681,0.491c0.153,0.247,0.201,0.546,0.135,0.829
		c-0.252,1.095-0.548,2.19-0.876,3.285c-0.087,0.205-0.234,0.379-0.422,0.498C534.343,306.457,534.123,306.517,533.9,306.508z
		 M530.724,314.634c-0.163-0.005-0.323-0.042-0.471-0.109c-0.131-0.062-0.248-0.149-0.344-0.257
		c-0.097-0.108-0.171-0.233-0.219-0.37c-0.048-0.136-0.068-0.281-0.06-0.425c0.008-0.144,0.045-0.286,0.108-0.416
		c0.471-0.975,0.909-1.96,1.314-2.935c0.055-0.133,0.136-0.254,0.238-0.356s0.223-0.182,0.356-0.237
		c0.133-0.055,0.276-0.083,0.42-0.083s0.287,0.029,0.42,0.084c0.133,0.055,0.254,0.136,0.356,0.238s0.182,0.223,0.237,0.356
		s0.083,0.276,0.083,0.42c0,0.144-0.029,0.287-0.084,0.42c-0.416,1.007-0.876,2.026-1.369,3.044
		c-0.089,0.186-0.228,0.344-0.403,0.454C531.133,314.574,530.931,314.633,530.724,314.634z M526.42,322.223
		c-0.196,0-0.389-0.053-0.558-0.154c-0.169-0.1-0.308-0.244-0.402-0.417c-0.094-0.172-0.14-0.367-0.133-0.563
		c0.007-0.196,0.067-0.387,0.173-0.552c0.591-0.898,1.161-1.818,1.709-2.738c0.063-0.14,0.155-0.264,0.269-0.366
		s0.249-0.179,0.395-0.226c0.146-0.047,0.3-0.062,0.452-0.046s0.299,0.065,0.432,0.142c0.133,0.077,0.247,0.181,0.337,0.305
		c0.09,0.124,0.153,0.266,0.184,0.416c0.032,0.15,0.031,0.305-0.001,0.455c-0.032,0.15-0.095,0.291-0.185,0.415
		c-0.559,0.953-1.15,1.905-1.752,2.825c-0.099,0.154-0.235,0.281-0.396,0.369C526.783,322.176,526.603,322.222,526.42,322.223z
		 M521.25,329.264c-0.256,0-0.504-0.089-0.701-0.252c-0.112-0.091-0.204-0.203-0.273-0.33c-0.068-0.127-0.111-0.266-0.125-0.41
		c-0.014-0.143,0-0.288,0.042-0.426c0.042-0.138,0.111-0.266,0.202-0.378c0.69-0.843,1.358-1.686,2.004-2.541
		c0.181-0.217,0.438-0.355,0.718-0.387c0.28-0.032,0.562,0.046,0.787,0.217s0.374,0.422,0.419,0.7
		c0.044,0.279-0.021,0.563-0.182,0.795c-0.657,0.876-1.347,1.741-2.048,2.606c-0.102,0.126-0.23,0.227-0.376,0.297
		C521.572,329.226,521.412,329.263,521.25,329.264z M515.435,335.769c-0.286,0.002-0.561-0.108-0.767-0.307
		c-0.204-0.205-0.318-0.483-0.318-0.772s0.115-0.567,0.318-0.772c0.756-0.788,1.5-1.577,2.19-2.365
		c0.201-0.192,0.468-0.301,0.746-0.304s0.547,0.1,0.752,0.288c0.205,0.188,0.331,0.447,0.351,0.725
		c0.021,0.277-0.065,0.552-0.24,0.769c-0.734,0.81-1.49,1.61-2.256,2.409c-0.101,0.103-0.222,0.186-0.356,0.242
		S515.58,335.768,515.435,335.769z M509.148,341.836c-0.222,0.002-0.439-0.064-0.622-0.188c-0.184-0.124-0.325-0.301-0.406-0.508
		c-0.081-0.207-0.097-0.433-0.046-0.649c0.051-0.216,0.166-0.411,0.33-0.56c0.81-0.734,1.61-1.467,2.388-2.19
		c0.102-0.103,0.223-0.184,0.356-0.24c0.133-0.056,0.277-0.084,0.421-0.084s0.288,0.029,0.421,0.084
		c0.134,0.056,0.255,0.137,0.356,0.24c0.204,0.205,0.318,0.483,0.318,0.772c0,0.289-0.115,0.567-0.318,0.772
		c-0.8,0.756-1.599,1.5-2.42,2.245C509.717,341.73,509.438,341.84,509.148,341.836z M502.511,347.519
		c-0.225-0.002-0.443-0.073-0.626-0.203c-0.183-0.13-0.322-0.314-0.397-0.525c-0.075-0.212-0.084-0.441-0.024-0.658
		s0.184-0.409,0.357-0.553l2.508-2.081c0.107-0.107,0.235-0.19,0.376-0.245c0.141-0.055,0.292-0.08,0.443-0.074
		c0.151,0.006,0.299,0.044,0.435,0.11s0.257,0.16,0.354,0.275s0.171,0.25,0.214,0.394c0.043,0.145,0.056,0.297,0.038,0.447
		s-0.068,0.295-0.145,0.425c-0.077,0.13-0.18,0.243-0.303,0.331c-0.832,0.712-1.687,1.413-2.541,2.114
		C503.005,347.435,502.762,347.52,502.511,347.519z M495.622,352.896c-0.17,0-0.338-0.04-0.49-0.116
		c-0.152-0.076-0.284-0.186-0.386-0.322c-0.174-0.232-0.249-0.524-0.208-0.812c0.041-0.288,0.195-0.547,0.427-0.721l2.596-1.971
		c0.231-0.156,0.512-0.219,0.788-0.175c0.275,0.044,0.523,0.191,0.694,0.412c0.17,0.221,0.25,0.498,0.223,0.775
		s-0.159,0.534-0.369,0.718c-0.865,0.668-1.73,1.336-2.618,1.993C496.089,352.819,495.859,352.896,495.622,352.896z"/>
	<path fill="#E0E0E0" d="M535.697,297.966h-0.142c-0.287-0.038-0.548-0.189-0.724-0.419c-0.177-0.23-0.255-0.52-0.217-0.808
		c0.066-0.526,0.12-1.095,0.164-1.588c0.026-0.29,0.167-0.559,0.391-0.745c0.224-0.187,0.513-0.277,0.803-0.251
		c0.29,0.026,0.559,0.167,0.746,0.39c0.187,0.224,0.277,0.513,0.251,0.803c-0.055,0.559-0.12,1.095-0.186,1.665
		c-0.035,0.263-0.164,0.505-0.363,0.68C536.219,297.869,535.962,297.966,535.697,297.966z"/>
</g>
</svg>
