<svg width="18" height="18" viewBox="0 0 18 18" fill="none" xmlns="http://www.w3.org/2000/svg">
<g clip-path="url(#clip0)">
<path d="M4.35347 16.7156C5.7442 17.5524 7.33434 17.9935 8.96814 17.9935C13.919 17.9935 18 13.9536 18 8.9967C18 4.04558 13.9248 0 8.96814 0C4.02663 0 0.00645448 4.03596 0.00645448 8.9967C0.00645448 10.6523 0.447693 12.2546 1.28444 13.6464L0 18L4.35347 16.7156ZM1.06087 8.9967C1.06087 4.61728 4.60808 1.05428 8.96814 1.05428C13.3669 1.05428 16.9457 4.61728 16.9457 8.9967C16.9457 13.3763 13.3669 16.9391 8.96814 16.9391C7.4545 16.9391 5.98357 16.5104 4.71478 15.6991L4.51208 15.5695L1.55937 16.4408L2.43045 13.4879L2.30095 13.2854C1.48961 12.0163 1.06087 10.5334 1.06087 8.9967Z" fill="#8B8B8B"/>
<path d="M4.3814 7.339C4.55553 8.25348 5.07244 10.0124 6.57743 11.5174C8.08242 13.0224 9.84133 13.5394 10.7559 13.7135C11.8032 13.9129 13.3401 13.943 14.0911 13.192L14.5098 12.7733C14.7212 12.5619 14.8376 12.2808 14.8376 11.9818C14.8376 11.6829 14.7212 11.4019 14.5098 11.1905L12.8354 9.51608C12.6239 9.30459 12.3429 9.18827 12.0439 9.18827C11.745 9.18827 11.464 9.30459 11.2525 9.51608L10.8339 9.93466C10.5782 10.1904 10.0955 10.1915 9.83789 9.93782L8.1677 8.19758C8.16523 8.19497 8.16275 8.19236 8.16014 8.18989C7.90403 7.93377 7.90403 7.51698 8.16014 7.26086L8.57872 6.84228C9.01625 6.40475 9.01625 5.69682 8.57872 5.25943L6.90427 3.58497C6.46798 3.14868 5.75798 3.14868 5.32155 3.58497L4.90297 4.00369V4.00355C4.30353 4.60313 4.10372 5.88112 4.3814 7.339ZM5.64853 4.74925C6.08799 4.31982 6.0645 4.31158 6.11298 4.31158C6.1296 4.31158 6.14621 4.3179 6.15885 4.33053C7.92325 6.10441 7.85239 6.00018 7.85239 6.05099C7.85239 6.06871 7.84594 6.08422 7.83344 6.09686L7.41472 6.51544C6.74799 7.18217 6.74538 8.26144 7.41046 8.93119L9.08162 10.6725C9.08423 10.675 9.0867 10.6776 9.08931 10.6802C9.75591 11.3468 10.9107 11.349 11.5795 10.6802L11.9981 10.2616C12.0233 10.2364 12.0645 10.2364 12.0898 10.2616C13.8542 12.0354 13.7834 11.9311 13.7834 11.982C13.7834 11.9998 13.7769 12.0152 13.7644 12.0278L13.3457 12.4464C13.0588 12.7333 12.145 12.905 10.9531 12.6779C10.1577 12.5263 8.6283 12.0773 7.32299 10.772C6.01767 9.46664 5.56861 7.93721 5.41713 7.1418C5.18999 5.94992 5.36165 5.03599 5.64853 4.74925Z" fill="#8B8B8B"/>
</g>
<defs>
<clipPath id="clip0">
<rect width="18" height="18" fill="white"/>
</clipPath>
</defs>
</svg>
