<?xml version="1.0" encoding="utf-8"?>
<!-- Generator: Adobe Illustrator 17.0.0, SVG Export Plug-In . SVG Version: 6.00 Build 0)  -->
<!DOCTYPE svg PUBLIC "-//W3C//DTD SVG 1.1//EN" "http://www.w3.org/Graphics/SVG/1.1/DTD/svg11.dtd">
<svg version="1.1" id="Layer_1" xmlns="http://www.w3.org/2000/svg" xmlns:xlink="http://www.w3.org/1999/xlink" x="0px" y="0px"
	 width="600px" height="550px" viewBox="0 0 600 550" enable-background="new 0 0 600 550" xml:space="preserve">
<g>
	<path fill="#EBEBEB" d="M445.8,83.392l9.242,5.339c-0.05-0.4-0.079-0.802-0.084-1.205v-2.7c0-4.821,3.35-6.701,7.471-4.315
		c1.775,1.091,3.295,2.55,4.458,4.279c0.675-6.026,5.374-8.22,11.086-4.929c6.169,3.616,11.17,12.233,11.17,19.368v4.001
		c0.043,1.599-0.283,3.187-0.952,4.64l7.676,4.435c1.214,0.792,2.222,1.86,2.943,3.117c0.721,1.257,1.133,2.667,1.203,4.115
		c0,2.639-1.856,3.712-4.145,2.41L445.8,93.022c-1.214-0.792-2.222-1.86-2.943-3.117c-0.721-1.257-1.133-2.667-1.202-4.115
		C441.679,83.139,443.511,82.018,445.8,83.392z"/>
	<path fill="#EBEBEB" d="M406.253,110.317l6.977,4.025c-0.038-0.304-0.058-0.61-0.06-0.916v-2.025c0-3.616,2.53-5.05,5.639-3.254
		c1.341,0.82,2.489,1.922,3.362,3.23c0.506-4.52,4.049-6.207,8.362-3.724c2.456,1.602,4.499,3.761,5.965,6.301
		c1.465,2.54,2.312,5.39,2.47,8.318v3.025c0.032,1.204-0.211,2.399-0.711,3.495l5.784,3.351c0.911,0.592,1.67,1.39,2.214,2.331
		s0.859,1.996,0.919,3.081c0,2.001-1.398,2.808-3.133,1.808l-37.788-21.827c-0.908-0.59-1.664-1.384-2.209-2.32
		c-0.544-0.936-0.861-1.987-0.924-3.067C403.12,110.124,404.53,109.316,406.253,110.317z"/>
	<path fill="#37474F" d="M101.796,346.686c0.129,1.753,0.668,3.45,1.575,4.956s2.154,2.776,3.643,3.71l146.198,84.366
		c1.617,0.821,3.404,1.248,5.217,1.248s3.601-0.428,5.217-1.248L463.67,324.197c1.577-0.832,2.896-2.079,3.817-3.606
		c0.921-1.527,1.407-3.276,1.407-5.059s-0.487-3.532-1.407-5.059c-0.92-1.527-2.24-2.774-3.817-3.606L317.484,222.5
		c-1.617-0.821-3.404-1.248-5.217-1.248s-3.601,0.428-5.217,1.248L107.026,338.021c-1.491,0.932-2.741,2.202-3.65,3.708
		C102.468,343.234,101.926,344.933,101.796,346.686z"/>
	<path fill="#263238" d="M258.429,429.727v11.293c-1.813,0.05-3.609-0.365-5.217-1.205l-146.198-84.366
		c-1.528-0.806-2.816-2.002-3.732-3.468c-0.916-1.466-1.426-3.148-1.48-4.875s0.351-3.438,1.173-4.958
		c0.822-1.52,2.033-2.794,3.508-3.694c-2.338,1.675-2.157,4.134,0.53,5.689l146.198,84.366
		C254.818,429.354,256.615,429.773,258.429,429.727z"/>
	<path fill="#455A64" d="M96.905,338.202c-1.455-0.985-2.656-2.299-3.506-3.837c-0.85-1.537-1.325-3.254-1.386-5.01V154.85
		c0.099-1.811,0.623-3.573,1.529-5.143c0.906-1.57,2.17-2.905,3.688-3.896L297.253,30.302c1.552-0.822,3.276-1.268,5.032-1.302
		c1.756-0.034,3.495,0.346,5.078,1.109c1.456,0.987,2.658,2.304,3.51,3.843c0.852,1.539,1.33,3.257,1.394,5.015V213.46
		c-0.097,1.811-0.62,3.574-1.527,5.144c-0.907,1.571-2.171,2.905-3.691,3.895L107.026,338.021c-1.554,0.825-3.28,1.272-5.039,1.303
		S98.487,338.971,96.905,338.202z"/>
	<path fill="#263238" d="M106.399,338.334c-1.496,0.675-3.122,1.012-4.762,0.989s-3.256-0.406-4.733-1.122
		c-1.453-0.987-2.652-2.302-3.502-3.839s-1.326-3.252-1.39-5.008V154.85c0.059-1.815,0.586-3.583,1.53-5.134l9.784,5.641
		c-0.937,1.554-1.464,3.321-1.53,5.134v174.517C101.796,338.093,103.809,339.479,106.399,338.334z"/>
	<path fill="#37474F" d="M101.796,160.503v174.505c0,3.326,2.338,4.676,5.217,3.013L307.037,222.5
		c1.52-0.99,2.784-2.324,3.691-3.895c0.907-1.571,1.43-3.333,1.527-5.144V38.967c0-3.326-2.338-4.676-5.217-3.013L107.014,151.464
		c-1.518,0.992-2.781,2.327-3.687,3.897C102.421,156.931,101.896,158.692,101.796,160.503z"/>
	<path fill="#455A64" d="M107.014,344.047l146.198,84.366c1.617,0.82,3.404,1.248,5.217,1.248s3.601-0.428,5.217-1.248
		L463.67,312.892c2.88-1.663,2.88-4.363,0-6.026L317.484,222.5c-1.617-0.821-3.404-1.248-5.217-1.248
		c-1.813,0-3.601,0.428-5.217,1.248L107.026,338.021C104.134,339.684,104.134,342.348,107.014,344.047z"/>
	<path fill="#FFFFFF" d="M109.821,161.154L302.615,49.814c1.735-1,3.133-0.193,3.133,1.808v151.051
		c-0.058,1.087-0.372,2.145-0.916,3.087s-1.304,1.743-2.217,2.336L109.821,319.449c-1.735,1-3.133,0.193-3.133-1.808V166.577
		c0.058-1.087,0.372-2.145,0.916-3.087C108.149,162.547,108.909,161.747,109.821,161.154z"/>
	<path opacity="0.6" fill="#E76B9B" d="M109.821,161.154L302.615,49.814c1.735-1,3.133-0.193,3.133,1.808v151.051
		c-0.058,1.087-0.372,2.145-0.916,3.087s-1.304,1.743-2.217,2.336L109.821,319.449c-1.735,1-3.133,0.193-3.133-1.808V166.577
		c0.058-1.087,0.372-2.145,0.916-3.087C108.149,162.547,108.909,161.747,109.821,161.154z"/>
	<path fill="#F0F0F0" d="M205.832,151.596c5.133-2.965,9.302-0.554,9.302,5.375c-0.177,3.226-1.111,6.365-2.727,9.163
		s-3.869,5.175-6.575,6.939c-5.133,2.965-9.29,0.566-9.29-5.363c0.173-3.227,1.105-6.368,2.719-9.168
		C200.876,155.742,203.127,153.363,205.832,151.596z"/>
	<path fill="#F0F0F0" d="M224.16,183.318c0-9.738-6.844-14.065-15.279-9.196l-5.266,3.109c-8.435,4.821-15.279,16.717-15.279,26.515
		v2.627l35.823-20.682V183.318z"/>
	<path fill="#F0F0F0" d="M242.27,188.078c-0.337-0.783-1.205-0.976-2.181-0.422l-62.561,36.157
		c-0.672,0.442-1.231,1.035-1.633,1.732c-0.402,0.697-0.635,1.478-0.681,2.281v7.352c0,1.205,0.747,1.868,1.759,1.591l0.169-0.06
		c0.132-0.053,0.261-0.113,0.386-0.181l62.561-36.157c0.674-0.439,1.236-1.032,1.638-1.729c0.402-0.697,0.634-1.48,0.676-2.284
		v-7.316C242.414,188.716,242.369,188.39,242.27,188.078z"/>
	<path fill="#27DEBF" d="M183.179,224.729c1.205-0.711,2.205-0.133,2.205,1.266c-0.039,0.764-0.259,1.508-0.643,2.171
		s-0.919,1.224-1.562,1.638c-1.205,0.699-2.193,0.133-2.193-1.278c0.039-0.761,0.259-1.502,0.64-2.162
		C182.007,225.704,182.54,225.144,183.179,224.729z"/>
	<path fill="#27DEBF" d="M190.457,220.523c1.205-0.699,2.193-0.133,2.193,1.278c-0.039,0.761-0.259,1.502-0.64,2.162
		s-0.913,1.22-1.553,1.634c-1.205,0.711-2.205,0.133-2.205-1.205c0.029-0.775,0.245-1.531,0.629-2.204
		C189.265,221.514,189.806,220.943,190.457,220.523z"/>
	<path fill="#27DEBF" d="M197.723,216.329c1.205-0.699,2.193-0.133,2.193,1.266c-0.038,0.763-0.256,1.507-0.637,2.169
		c-0.381,0.662-0.915,1.224-1.556,1.64c-1.205,0.699-2.205,0.133-2.205-1.265c0.039-0.764,0.259-1.508,0.643-2.171
		C196.544,217.305,197.08,216.743,197.723,216.329z"/>
	<path fill="#27DEBF" d="M204.989,212.183c1.205-0.711,2.205-0.133,2.205,1.205c-0.039,0.764-0.259,1.508-0.643,2.171
		c-0.383,0.662-0.919,1.224-1.562,1.638c-1.205,0.699-2.193,0.133-2.193-1.205c0.038-0.763,0.256-1.507,0.637-2.169
		C203.815,213.161,204.348,212.599,204.989,212.183z"/>
	<path fill="#27DEBF" d="M212.255,207.929c1.205-0.699,2.205-0.133,2.205,1.278c-0.044,0.763-0.266,1.505-0.649,2.167
		c-0.383,0.661-0.916,1.224-1.556,1.642c-1.205,0.699-2.193,0.133-2.193-1.278c0.042-0.762,0.263-1.504,0.644-2.165
		C211.086,208.911,211.617,208.348,212.255,207.929z"/>
	<path fill="#27DEBF" d="M219.533,203.746c1.205-0.699,2.193-0.133,2.193,1.205c-0.038,0.763-0.256,1.507-0.637,2.169
		s-0.915,1.224-1.556,1.64c-1.205,0.699-2.205,0.133-2.205-1.205c0.039-0.764,0.259-1.508,0.643-2.171
		S218.889,204.16,219.533,203.746z"/>
	<path fill="#27DEBF" d="M226.799,199.54c1.205-0.699,2.193-0.133,2.193,1.266c-0.038,0.763-0.256,1.507-0.637,2.169
		c-0.381,0.662-0.915,1.224-1.556,1.64c-1.205,0.699-2.193,0.133-2.193-1.266c0.038-0.763,0.256-1.507,0.637-2.169
		C225.624,200.518,226.158,199.956,226.799,199.54z"/>
	<path fill="#27DEBF" d="M234.065,195.31c1.205-0.699,2.205-0.133,2.205,1.278c-0.044,0.763-0.266,1.505-0.649,2.167
		c-0.383,0.661-0.916,1.224-1.556,1.642c-1.205,0.699-2.193,0.133-2.193-1.278c0.044-0.762,0.265-1.503,0.646-2.164
		S233.428,195.73,234.065,195.31z"/>
	<path fill="#37474F" d="M123.98,339.527l185.672-107.265c0.809-0.41,1.702-0.623,2.609-0.623c0.906,0,1.8,0.214,2.609,0.623
		l9.495,5.484c0.315,0.107,0.588,0.31,0.782,0.58c0.194,0.27,0.298,0.594,0.298,0.927c0,0.332-0.104,0.657-0.298,0.927
		c-0.194,0.27-0.467,0.473-0.782,0.58L138.668,348.012c-0.809,0.41-1.702,0.623-2.609,0.623c-0.906,0-1.8-0.214-2.609-0.623
		l-9.471-5.472c-0.315-0.107-0.588-0.31-0.782-0.58c-0.194-0.27-0.298-0.594-0.298-0.927c0-0.332,0.104-0.657,0.298-0.927
		C123.391,339.837,123.665,339.634,123.98,339.527z"/>
	<path fill="#263238" d="M148.452,353.665l185.672-107.266c0.809-0.41,1.702-0.623,2.609-0.623c0.906,0,1.8,0.214,2.609,0.623
		l58.416,33.746c0.315,0.107,0.588,0.31,0.782,0.58s0.298,0.594,0.298,0.927c0,0.332-0.104,0.657-0.298,0.927
		s-0.467,0.473-0.782,0.58L212.303,390.256c-0.812,0.407-1.707,0.619-2.615,0.619c-0.908,0-1.803-0.212-2.615-0.619l-58.609-33.602
		c-0.312-0.105-0.584-0.305-0.777-0.572s-0.297-0.588-0.299-0.918s0.1-0.651,0.291-0.92
		C147.871,353.975,148.141,353.773,148.452,353.665z"/>
	<path fill="#455A64" d="M248.343,307.999c0.143,0.074,0.303,0.113,0.464,0.113c0.161,0,0.32-0.039,0.464-0.113l5.82-3.363
		c0.241-0.145,0.229-0.386,0-0.53l-6.724-3.881c-0.143-0.074-0.303-0.113-0.464-0.113c-0.161,0-0.32,0.039-0.464,0.113l-5.784,3.363
		c-0.253,0.133-0.229,0.374,0,0.53L248.343,307.999z M317.568,265.213c0.143,0.074,0.303,0.113,0.464,0.113
		c0.161,0,0.32-0.039,0.464-0.113l5.808-3.363c0.253-0.133,0.241-0.374,0-0.53l-1.795-1.036c-0.144-0.071-0.303-0.108-0.464-0.108
		s-0.32,0.037-0.464,0.108l-5.808,3.351c-0.253,0.145-0.229,0.386,0,0.542L317.568,265.213z M369.803,285.16l5.808-3.363
		c0.253-0.145,0.241-0.374,0-0.53l-6.724-3.881c-0.143-0.074-0.303-0.113-0.464-0.113c-0.161,0-0.32,0.039-0.464,0.113l-5.808,3.29
		c-0.241,0.145-0.229,0.374,0,0.53l6.724,3.881c0.15,0.09,0.322,0.14,0.497,0.144c0.175,0.004,0.349-0.037,0.503-0.12
		L369.803,285.16z M348.56,263.598c0.144,0.071,0.303,0.108,0.464,0.108s0.32-0.037,0.464-0.108l5.82-3.351
		c0.241-0.145,0.229-0.386,0-0.542l-6.724-3.881c-0.144-0.071-0.303-0.108-0.464-0.108c-0.161,0-0.32,0.037-0.464,0.108
		l-5.772,3.363c-0.253,0.145-0.241,0.386,0,0.542L348.56,263.598z M334.438,255.439c0.143,0.074,0.303,0.113,0.464,0.113
		s0.32-0.039,0.464-0.113l5.82-3.363c0.241-0.145,0.229-0.386,0-0.53l-1.783-1.036c-0.144-0.071-0.303-0.108-0.464-0.108
		s-0.32,0.037-0.464,0.108l-5.82,3.363c-0.241,0.145-0.229,0.386,0,0.53L334.438,255.439z M308.953,270.155
		c0.143,0.074,0.302,0.113,0.464,0.113s0.32-0.039,0.464-0.113l5.808-3.363c0.253-0.133,0.241-0.374,0-0.53l-1.735-1.049
		c-0.144-0.071-0.303-0.108-0.464-0.108c-0.161,0-0.32,0.037-0.464,0.108l-5.808,3.351c-0.253,0.145-0.241,0.386,0,0.542
		L308.953,270.155z M265.273,298.236c0.143,0.074,0.303,0.113,0.464,0.113c0.161,0,0.32-0.039,0.464-0.113l5.808-3.351
		c0.253-0.145,0.229-0.386,0-0.542l-6.724-3.881c-0.142-0.071-0.299-0.108-0.458-0.108c-0.159,0-0.316,0.037-0.458,0.108
		l-5.82,3.351c-0.241,0.145-0.229,0.386,0,0.542L265.273,298.236z M256.838,303.142c0.142,0.071,0.299,0.108,0.458,0.108
		s0.316-0.037,0.458-0.108l5.82-3.363c0.241-0.145,0.229-0.386,0-0.53l-6.748-3.905c-0.144-0.071-0.303-0.108-0.464-0.108
		s-0.32,0.037-0.464,0.108l-5.808,3.326c-0.253,0.145-0.229,0.386,0,0.542L256.838,303.142z M292.698,282.436
		c0.144,0.071,0.303,0.108,0.464,0.108s0.32-0.037,0.464-0.108l5.808-3.351c0.253-0.145,0.241-0.386,0-0.542l-6.724-3.881
		c-0.144-0.071-0.303-0.108-0.464-0.108c-0.161,0-0.32,0.037-0.464,0.108l-5.82,3.363c-0.241,0.145-0.229,0.386,0,0.53
		L292.698,282.436z M273.828,293.283c0.144,0.071,0.303,0.108,0.464,0.108c0.161,0,0.32-0.037,0.464-0.108l5.808-3.351
		c0.253-0.145,0.229-0.386,0-0.542l-6.712-3.881c-0.144-0.071-0.303-0.108-0.464-0.108c-0.161,0-0.32,0.037-0.464,0.108l-5.82,3.351
		c-0.241,0.145-0.229,0.386,0,0.542L273.828,293.283z M301.193,277.47c0.143,0.074,0.302,0.113,0.464,0.113s0.32-0.039,0.464-0.113
		l5.808-3.339c0.253-0.133,0.241-0.374,0-0.53l-6.724-3.881c-0.144-0.071-0.303-0.108-0.464-0.108c-0.161,0-0.32,0.037-0.464,0.108
		l-5.82,3.363c-0.241,0.145-0.229,0.386,0,0.53L301.193,277.47z M284.203,287.293c0.144,0.071,0.303,0.108,0.464,0.108
		s0.32-0.037,0.464-0.108l5.808-3.351c0.253-0.145,0.241-0.386,0-0.542l-6.712-3.881c-0.143-0.074-0.303-0.113-0.464-0.113
		c-0.161,0-0.32,0.039-0.464,0.113l-5.82,3.351c-0.241,0.145-0.229,0.386,0,0.542L284.203,287.293z M326.003,260.296
		c0.143,0.074,0.303,0.113,0.464,0.113c0.161,0,0.32-0.039,0.464-0.113l5.82-3.363c0.241-0.145,0.229-0.374,0-0.53l-1.795-1.036
		c-0.143-0.074-0.302-0.113-0.464-0.113s-0.32,0.039-0.464,0.113l-5.808,3.351c-0.241,0.145-0.229,0.386,0,0.542L326.003,260.296z
		 M287.203,332.887l5.82-3.363c0.241-0.145,0.229-0.386,0-0.53l-6.784-3.881c-0.143-0.074-0.302-0.113-0.464-0.113
		s-0.32,0.039-0.464,0.113l-5.808,3.363c-0.253,0.133-0.241,0.374,0,0.53l6.724,3.881c0.142,0.072,0.299,0.11,0.458,0.11
		s0.316-0.038,0.458-0.11H287.203z M270.213,342.697l5.808-3.363c0.253-0.133,0.241-0.374,0-0.53l-6.724-3.881
		c-0.143-0.074-0.303-0.113-0.464-0.113s-0.32,0.039-0.464,0.113l-5.82,3.363c-0.241,0.145-0.229,0.386,0,0.53l6.724,3.881
		c0.137,0.066,0.288,0.101,0.44,0.101c0.152,0,0.303-0.034,0.44-0.101H270.213z M278.648,337.792l5.82-3.363
		c0.241-0.145,0.229-0.374,0-0.53l-6.724-3.881c-0.143-0.074-0.302-0.113-0.464-0.113s-0.32,0.039-0.464,0.113l-5.808,3.363
		c-0.253,0.145-0.241,0.374,0,0.53l6.724,3.881c0.142,0.072,0.299,0.109,0.458,0.109
		C278.349,337.902,278.506,337.864,278.648,337.792z M244.668,357.413l5.808-3.351c0.253-0.145,0.229-0.386,0-0.542l-6.724-3.881
		c-0.144-0.071-0.303-0.108-0.464-0.108c-0.161,0-0.32,0.037-0.464,0.108l-5.808,3.351c-0.241,0.145-0.229,0.386,0,0.542
		l6.724,3.881c0.144,0.071,0.303,0.108,0.464,0.108S244.524,357.484,244.668,357.413z M261.658,347.603l5.808-3.351
		c0.253-0.145,0.241-0.386,0-0.542l-6.724-3.881c-0.144-0.071-0.303-0.108-0.464-0.108c-0.161,0-0.32,0.037-0.464,0.108l-5.82,3.363
		c-0.241,0.145-0.229,0.386,0,0.53l6.724,3.881c0.145,0.076,0.306,0.116,0.47,0.116S261.513,347.679,261.658,347.603z
		 M253.224,352.508l5.808-3.351c0.253-0.145,0.229-0.386,0-0.542l-6.808-3.857c-0.143-0.074-0.303-0.113-0.464-0.113
		c-0.161,0-0.32,0.039-0.464,0.113l-5.82,3.351c-0.241,0.145-0.229,0.386,0,0.542l6.724,3.881c0.151,0.073,0.317,0.11,0.485,0.105
		c0.168-0.004,0.332-0.049,0.479-0.129H253.224z M333.233,305.745c0.143,0.074,0.303,0.113,0.464,0.113s0.32-0.039,0.464-0.113
		l5.808-3.363c0.253-0.133,0.241-0.374,0-0.53l-6.724-3.881c-0.143-0.074-0.303-0.113-0.464-0.113c-0.161,0-0.32,0.039-0.464,0.113
		l-5.904,3.399c-0.241,0.145-0.229,0.386,0,0.53L333.233,305.745z M295.662,327.945l5.82-3.363c0.241-0.145,0.229-0.386,0-0.53
		l-6.808-3.845c-0.143-0.074-0.303-0.113-0.464-0.113c-0.161,0-0.32,0.039-0.464,0.113l-5.808,3.363
		c-0.253,0.133-0.229,0.374,0,0.53l6.712,3.881c0.152,0.081,0.322,0.124,0.494,0.124c0.172,0,0.342-0.043,0.494-0.124
		L295.662,327.945z M343.306,289.378l5.808-3.363c0.253-0.133,0.241-0.374,0-0.53l-6.712-3.881
		c-0.143-0.074-0.302-0.113-0.464-0.113s-0.32,0.039-0.464,0.113l-5.832,3.338c-0.241,0.145-0.229,0.386,0,0.53l6.724,3.881
		c0.14,0.076,0.296,0.117,0.455,0.122c0.159,0.004,0.317-0.029,0.461-0.098H343.306z M351.982,294.898
		c0.143,0.074,0.303,0.113,0.464,0.113c0.161,0,0.32-0.039,0.464-0.113l5.808-3.351c0.253-0.145,0.229-0.386,0-0.542l-6.712-3.881
		c-0.144-0.071-0.303-0.108-0.464-0.108s-0.32,0.037-0.464,0.108l-5.88,3.399c-0.241,0.145-0.229,0.386,0,0.53L351.982,294.898z
		 M304.169,323.076l16.99-9.823c0.241-0.133,0.229-0.374,0-0.53l-6.724-3.881c-0.143-0.074-0.302-0.113-0.464-0.113
		s-0.32,0.039-0.464,0.113l-16.99,9.811c-0.253,0.145-0.229,0.386,0,0.542l6.724,3.881c0.142,0.066,0.297,0.098,0.453,0.096
		c0.156-0.002,0.31-0.039,0.451-0.108L304.169,323.076z M323.449,289.776l5.82-3.363c0.241-0.145,0.229-0.386,0-0.53l-6.724-3.881
		c-0.143-0.074-0.303-0.113-0.464-0.113c-0.161,0-0.32,0.039-0.464,0.113l-5.808,3.351c-0.253,0.145-0.241,0.386,0,0.542
		l6.724,3.881c0.135,0.06,0.28,0.091,0.428,0.091c0.147,0,0.293-0.031,0.428-0.091H323.449z M361.441,290.017l5.808-3.363
		c0.253-0.133,0.241-0.374,0-0.53l-6.724-3.881c-0.143-0.074-0.302-0.113-0.464-0.113s-0.32,0.039-0.464,0.113l-5.88,3.338
		c-0.241,0.145-0.229,0.386,0,0.53l6.724,3.881c0.143,0.08,0.303,0.124,0.467,0.128c0.164,0.004,0.326-0.031,0.473-0.104H361.441z
		 M342.824,303.539c-0.144-0.071-0.303-0.108-0.464-0.108s-0.32,0.037-0.464,0.108l-5.82,3.363c-0.241,0.145-0.229,0.386,0,0.53
		l6.724,3.893c0.144,0.071,0.303,0.108,0.464,0.108s0.32-0.037,0.464-0.108l5.808-3.351c0.253-0.145,0.241-0.386,0-0.542
		L342.824,303.539z M312.411,321.1c-0.144-0.071-0.303-0.108-0.464-0.108s-0.32,0.037-0.464,0.108l-7.169,4.11
		c-0.241,0.145-0.229,0.386,0,0.542l6.724,3.881c0.143,0.074,0.303,0.113,0.464,0.113c0.161,0,0.32-0.039,0.464-0.113l7.157-4.122
		c0.241-0.145,0.229-0.386,0-0.542L312.411,321.1z M222.533,373.009c-0.143-0.074-0.303-0.113-0.464-0.113
		c-0.161,0-0.32,0.039-0.464,0.113l-7.157,4.134c-0.253,0.145-0.229,0.386,0,0.53l6.724,3.893c0.142,0.071,0.299,0.108,0.458,0.108
		c0.159,0,0.316-0.037,0.458-0.108l7.157-4.134c0.253-0.145,0.241-0.374,0-0.53L222.533,373.009z M292.734,332.465
		c-0.143-0.074-0.302-0.113-0.464-0.113c-0.161,0-0.32,0.039-0.464,0.113l-7.145,4.134c-0.253,0.145-0.241,0.386,0,0.53l6.724,3.893
		c0.144,0.071,0.303,0.108,0.464,0.108c0.161,0,0.32-0.037,0.464-0.108l7.157-4.134c0.241-0.145,0.229-0.374,0-0.53L292.734,332.465
		z M232.366,367.32c-0.144-0.071-0.303-0.108-0.464-0.108s-0.32,0.037-0.464,0.108l-7.157,4.134c-0.241,0.133-0.229,0.374,0,0.53
		l6.724,3.881c0.143,0.074,0.303,0.113,0.464,0.113c0.161,0,0.32-0.039,0.464-0.113l7.157-4.134c0.241-0.145,0.229-0.386,0-0.53
		L232.366,367.32z M282.902,338.142c-0.143-0.074-0.302-0.113-0.464-0.113s-0.32,0.039-0.464,0.113l-47.909,27.612
		c-0.253,0.145-0.229,0.386,0,0.542l6.712,3.881c0.144,0.071,0.303,0.108,0.464,0.108c0.161,0,0.32-0.037,0.464-0.108l47.849-27.624
		c0.253-0.145,0.241-0.386,0-0.542L282.902,338.142z M324.039,314.387c-0.144-0.071-0.303-0.108-0.464-0.108
		c-0.161,0-0.32,0.037-0.464,0.108l-8.941,5.17c-0.253,0.145-0.229,0.386,0,0.53l6.724,3.881c0.143,0.074,0.302,0.113,0.464,0.113
		s0.32-0.039,0.464-0.113l8.941-5.17c0.241-0.133,0.229-0.374,0-0.53L324.039,314.387z M302.579,326.776
		c-0.144-0.071-0.303-0.108-0.464-0.108s-0.32,0.037-0.464,0.108l-7.157,4.134c-0.253,0.133-0.229,0.374,0,0.53l6.724,3.881
		c0.143,0.074,0.303,0.113,0.464,0.113s0.32-0.039,0.464-0.113l7.145-4.134c0.253-0.145,0.241-0.386,0-0.53L302.579,326.776z
		 M393.818,281.857l-16.387-9.413c-0.143-0.074-0.302-0.113-0.464-0.113s-0.32,0.039-0.464,0.113l-5.808,3.363
		c-0.253,0.133-0.241,0.374,0,0.53l16.351,9.365c0.143,0.074,0.303,0.113,0.464,0.113c0.161,0,0.32-0.039,0.464-0.113l5.82-3.363
		c0.241-0.096,0.229-0.325-0.036-0.482H393.818z M378.599,282.882c-0.143-0.074-0.302-0.113-0.464-0.113
		c-0.161,0-0.32,0.039-0.464,0.113l-5.88,3.338c-0.241,0.145-0.229,0.386,0,0.53l6.724,3.881c0.143,0.074,0.303,0.113,0.464,0.113
		c0.161,0,0.32-0.039,0.464-0.113l5.808-3.363c0.253-0.133,0.241-0.374,0-0.53L378.599,282.882z M334.329,308.445
		c-0.143-0.074-0.303-0.113-0.464-0.113s-0.32,0.039-0.464,0.113l-5.82,3.351c-0.241,0.145-0.229,0.386,0,0.542l6.724,3.881
		c0.144,0.071,0.303,0.108,0.464,0.108s0.32-0.037,0.464-0.108l5.808-3.351c0.253-0.145,0.241-0.386,0-0.542L334.329,308.445z
		 M236.222,362.319l5.82-3.351c0.241-0.145,0.229-0.386,0-0.542l-6.724-3.881c-0.144-0.071-0.303-0.108-0.464-0.108
		s-0.32,0.037-0.464,0.108l-5.808,3.351c-0.253,0.145-0.229,0.386,0,0.542l6.724,3.881c0.133,0.064,0.28,0.097,0.428,0.097
		c0.148,0,0.294-0.033,0.428-0.097H236.222z M351.319,298.634c-0.143-0.074-0.303-0.113-0.464-0.113s-0.32,0.039-0.464,0.113
		l-5.808,3.363c-0.253,0.145-0.241,0.386,0,0.53l6.724,3.881c0.143,0.074,0.303,0.113,0.464,0.113c0.161,0,0.32-0.039,0.464-0.113
		l5.82-3.363c0.241-0.133,0.229-0.374,0-0.53L351.319,298.634z M370.105,287.787c-0.144-0.071-0.303-0.108-0.464-0.108
		s-0.32,0.037-0.464,0.108l-14.315,8.268c-0.241,0.145-0.229,0.386,0,0.542l6.724,3.881c0.144,0.071,0.303,0.108,0.464,0.108
		c0.161,0,0.32-0.037,0.464-0.108l14.303-8.268c0.253-0.133,0.241-0.374,0-0.53L370.105,287.787z M190.035,341.709
		c0.144,0.071,0.303,0.108,0.464,0.108s0.32-0.037,0.464-0.108l5.808-3.363c0.253-0.145,0.241-0.386,0-0.53l-6.808-3.905
		c-0.143-0.074-0.303-0.113-0.464-0.113c-0.161,0-0.32,0.039-0.464,0.113l-5.82,3.351c-0.241,0.145-0.229,0.386,0,0.542
		L190.035,341.709z M198.47,336.804c0.143,0.074,0.303,0.113,0.464,0.113c0.161,0,0.32-0.039,0.464-0.113l5.82-3.351
		c0.241-0.145,0.229-0.386,0-0.542l-6.76-3.821c-0.144-0.071-0.303-0.108-0.464-0.108c-0.161,0-0.32,0.037-0.464,0.108l-5.808,3.351
		c-0.253,0.145-0.241,0.386,0,0.542L198.47,336.804z M212.616,378.686c-0.143-0.074-0.303-0.113-0.464-0.113
		c-0.161,0-0.32,0.039-0.464,0.113l-8.941,5.158c-0.241,0.145-0.229,0.386,0,0.542l6.724,3.881c0.144,0.071,0.303,0.108,0.464,0.108
		c0.161,0,0.32-0.037,0.464-0.108l8.941-5.158c0.241-0.145,0.229-0.386,0-0.542L212.616,378.686z M210.652,329.765
		c0.144,0.071,0.303,0.108,0.464,0.108s0.32-0.037,0.464-0.108l5.82-3.351c0.241-0.145,0.229-0.386,0-0.542l-6.724-3.881
		c-0.143-0.074-0.303-0.113-0.464-0.113c-0.161,0-0.32,0.039-0.464,0.113l-5.82,3.351c-0.241,0.145-0.229,0.386,0,0.542
		L210.652,329.765z M227.642,319.943c0.143,0.074,0.303,0.113,0.464,0.113c0.161,0,0.32-0.039,0.464-0.113l5.82-3.363
		c0.241-0.133,0.229-0.374,0-0.53l-6.748-3.833c-0.144-0.071-0.303-0.108-0.464-0.108s-0.32,0.037-0.464,0.108l-5.808,3.363
		c-0.253,0.145-0.241,0.386,0,0.53L227.642,319.943z M181.468,346.614c0.143,0.074,0.303,0.113,0.464,0.113
		c0.161,0,0.32-0.039,0.464-0.113l5.808-3.363c0.253-0.145,0.241-0.386,0-0.53l-6.724-3.881c-0.143-0.074-0.303-0.113-0.464-0.113
		c-0.161,0-0.32,0.039-0.464,0.113l-5.82,3.363c-0.241,0.133-0.229,0.374,0,0.53L181.468,346.614z M219.147,324.86
		c0.144,0.071,0.303,0.108,0.464,0.108s0.32-0.037,0.464-0.108l5.82-3.351c0.241-0.145,0.229-0.386,0-0.542l-6.724-3.881
		c-0.144-0.071-0.303-0.108-0.464-0.108c-0.161,0-0.32,0.037-0.464,0.108l-5.808,3.363c-0.253,0.145-0.241,0.386,0,0.53
		L219.147,324.86z M236.137,315.037c0.143,0.074,0.303,0.113,0.464,0.113c0.161,0,0.32-0.039,0.464-0.113l5.82-3.363
		c0.241-0.133,0.229-0.374,0-0.53l-6.724-3.881c-0.143-0.074-0.303-0.113-0.464-0.113c-0.161,0-0.32,0.039-0.464,0.113l-5.808,3.363
		c-0.253,0.145-0.229,0.386,0,0.53L236.137,315.037z M207.953,378.059l-6.724-3.881c-0.143-0.074-0.303-0.113-0.464-0.113
		c-0.161,0-0.32,0.039-0.464,0.113l-7.157,4.134c-0.241,0.145-0.229,0.386,0,0.53l6.724,3.893c0.144,0.071,0.303,0.108,0.464,0.108
		c0.161,0,0.32-0.037,0.464-0.108l7.145-4.134c0.301-0.096,0.289-0.386-0.024-0.542H207.953z M202.374,370.189l-6.724-3.881
		c-0.143-0.074-0.303-0.113-0.464-0.113c-0.161,0-0.32,0.039-0.464,0.113l-11.182,6.46c-0.241,0.145-0.229,0.386,0,0.53l6.724,3.881
		c0.143,0.074,0.303,0.113,0.464,0.113c0.161,0,0.32-0.039,0.464-0.113l11.17-6.46c0.301-0.145,0.289-0.374,0.024-0.53H202.374z
		 M172.973,351.52c0.143,0.074,0.303,0.113,0.464,0.113c0.161,0,0.32-0.039,0.464-0.113l5.808-3.363c0.253-0.145,0.229-0.374,0-0.53
		l-6.736-3.857c-0.143-0.074-0.303-0.113-0.464-0.113c-0.161,0-0.32,0.039-0.464,0.113l-5.82,3.399c-0.241,0.145-0.229,0.374,0,0.53
		L172.973,351.52z M167.491,354.689l-6.712-3.905c-0.144-0.071-0.303-0.108-0.464-0.108c-0.161,0-0.32,0.037-0.464,0.108
		l-7.157,4.134c-0.253,0.145-0.229,0.386,0,0.542l6.712,3.881c0.144,0.071,0.303,0.108,0.464,0.108s0.32-0.037,0.464-0.108
		l7.157-4.134c0.289-0.121,0.277-0.362,0.012-0.518H167.491z M190.53,365.934l-6.712-3.881c-0.143-0.074-0.303-0.113-0.464-0.113
		c-0.161,0-0.32,0.039-0.464,0.113l-8.941,5.17c-0.241,0.145-0.229,0.374,0,0.53l6.724,3.881c0.143,0.074,0.302,0.113,0.464,0.113
		c0.161,0,0.32-0.039,0.464-0.113l8.941-5.17c0.277-0.145,0.265-0.374,0-0.53H190.53z M177.793,362.198l-6.712-3.881
		c-0.143-0.074-0.302-0.113-0.464-0.113s-0.32,0.039-0.464,0.113l-5.808,3.314c-0.241,0.133-0.229,0.374,0,0.53l6.724,3.881
		c0.143,0.074,0.303,0.113,0.464,0.113c0.161,0,0.32-0.039,0.464-0.113l5.808-3.363C178.094,362.584,178.07,362.343,177.793,362.198
		z M227.606,367.26l5.82-3.363c0.241-0.145,0.229-0.386,0-0.53l-6.724-3.893c-0.144-0.071-0.303-0.108-0.464-0.108
		s-0.32,0.037-0.464,0.108l-5.808,3.363c-0.253,0.145-0.241,0.386,0,0.542l6.712,3.881c0.154,0.078,0.325,0.116,0.497,0.112
		c0.172-0.004,0.341-0.051,0.491-0.136L227.606,367.26z M233.812,332.622l-5.808,3.351c-0.253,0.145-0.241,0.386,0,0.542
		l6.724,3.881c0.144,0.071,0.303,0.108,0.464,0.108s0.32-0.037,0.464-0.108l5.82-3.351c0.241-0.145,0.229-0.386,0-0.542
		l-6.724-3.881c-0.135-0.07-0.285-0.108-0.437-0.113c-0.152-0.004-0.304,0.026-0.443,0.089L233.812,332.622z M225.377,337.527
		l-5.808,3.351c-0.253,0.145-0.241,0.386,0,0.542l6.724,3.881c0.144,0.071,0.303,0.108,0.464,0.108c0.161,0,0.32-0.037,0.464-0.108
		l5.82-3.351c0.241-0.145,0.229-0.386,0-0.542l-6.736-3.881c-0.144-0.071-0.303-0.108-0.464-0.108
		C225.68,337.419,225.521,337.456,225.377,337.527z M259.429,317.846l-5.82,3.363c-0.241,0.145-0.229,0.386,0,0.53l6.724,3.881
		c0.143,0.074,0.302,0.113,0.464,0.113s0.32-0.039,0.464-0.113l5.808-3.363c0.253-0.133,0.229-0.374,0-0.53l-6.724-3.881
		c-0.151-0.081-0.32-0.121-0.491-0.117c-0.171,0.004-0.338,0.053-0.485,0.141L259.429,317.846z M242.427,327.656l-5.808,3.363
		c-0.253,0.145-0.229,0.386,0,0.53l6.712,3.893c0.144,0.071,0.303,0.108,0.464,0.108s0.32-0.037,0.464-0.108l5.82-3.351
		c0.241-0.145,0.229-0.386,0-0.542l-6.724-3.881c-0.153-0.079-0.323-0.12-0.496-0.118s-0.342,0.047-0.493,0.13L242.427,327.656z
		 M250.862,322.751l-5.808,3.363c-0.253,0.145-0.229,0.386,0,0.53l6.724,3.881c0.141,0.074,0.298,0.113,0.458,0.113
		s0.317-0.039,0.458-0.113l5.82-3.363c0.241-0.133,0.229-0.374,0-0.53l-6.724-3.881c-0.146-0.067-0.306-0.1-0.467-0.096
		c-0.161,0.004-0.319,0.045-0.461,0.12V322.751z M216.882,342.384l-5.82,3.351c-0.241,0.145-0.229,0.386,0,0.542l6.724,3.881
		c0.143,0.074,0.303,0.113,0.464,0.113c0.161,0,0.32-0.039,0.464-0.113l5.808-3.351c0.253-0.145,0.241-0.386,0-0.542l-6.724-3.881
		c-0.145-0.066-0.302-0.097-0.461-0.093c-0.159,0.004-0.314,0.044-0.455,0.117V342.384z M208.387,347.289l-5.82,3.351
		c-0.241,0.145-0.229,0.386,0,0.542l6.724,3.881c0.144,0.071,0.303,0.108,0.464,0.108c0.161,0,0.32-0.037,0.464-0.108l5.808-3.363
		c0.253-0.145,0.241-0.386,0-0.53l-6.724-3.893c-0.145-0.064-0.303-0.094-0.462-0.087c-0.159,0.006-0.314,0.048-0.454,0.123V347.289
		z M239.089,349.519l5.808-3.351c0.253-0.145,0.229-0.386,0-0.542l-6.724-3.881c-0.142-0.071-0.299-0.108-0.458-0.108
		c-0.159,0-0.316,0.037-0.458,0.108l-5.82,3.351c-0.241,0.145-0.229,0.386,0,0.542l6.724,3.941c0.144,0.071,0.303,0.108,0.464,0.108
		s0.32-0.037,0.464-0.108V349.519z M230.594,354.424l5.808-3.351c0.241-0.145,0.229-0.386,0-0.542l-6.796-3.857
		c-0.144-0.071-0.303-0.108-0.464-0.108c-0.161,0-0.32,0.037-0.464,0.108l-5.808,3.351c-0.253,0.145-0.229,0.386,0,0.542
		l6.724,3.881c0.157,0.079,0.331,0.117,0.506,0.108s0.345-0.062,0.494-0.156V354.424z M222.087,359.342l5.82-3.363
		c0.241-0.145,0.229-0.386,0-0.53l-6.736-3.869c-0.144-0.071-0.303-0.108-0.464-0.108c-0.161,0-0.32,0.037-0.464,0.108l-5.808,3.351
		c-0.253,0.145-0.229,0.386,0,0.542l6.736,3.869c0.141,0.073,0.296,0.113,0.455,0.117c0.159,0.004,0.316-0.028,0.461-0.093V359.342z
		 M199.892,352.195l-5.82,3.411c-0.241,0.133-0.229,0.374,0,0.53l6.724,3.881c0.144,0.071,0.303,0.108,0.464,0.108
		c0.161,0,0.32-0.037,0.464-0.108l5.808-3.363c0.253-0.145,0.229-0.386,0-0.53l-6.712-3.881c-0.142-0.078-0.3-0.12-0.461-0.125
		c-0.161-0.004-0.321,0.03-0.467,0.101V352.195z M212.665,364.247c0.144,0.071,0.303,0.108,0.464,0.108
		c0.161,0,0.32-0.037,0.464-0.108l5.82-3.363c0.241-0.145,0.229-0.386,0-0.53l-6.724-3.881c-0.143-0.074-0.303-0.113-0.464-0.113
		c-0.161,0-0.32,0.039-0.464,0.113l-5.808,3.363c-0.253,0.133-0.241,0.374,0,0.53L212.665,364.247z M276.359,308.059l-5.784,3.363
		c-0.241,0.133-0.229,0.374,0,0.53l6.724,3.881c0.143,0.074,0.303,0.113,0.464,0.113c0.161,0,0.32-0.039,0.464-0.113l5.808-3.363
		c0.253-0.145,0.241-0.386,0-0.53l-6.724-3.881c-0.147-0.078-0.31-0.119-0.476-0.119S276.505,307.981,276.359,308.059z
		 M350.849,284.497c0.143,0.074,0.303,0.113,0.464,0.113s0.32-0.039,0.464-0.113l5.808-3.363c0.253-0.145,0.241-0.374,0-0.53
		l-6.724-3.881c-0.143-0.074-0.303-0.113-0.464-0.113s-0.32,0.039-0.464,0.113l-5.856,3.314c-0.241,0.145-0.229,0.374,0,0.53
		L350.849,284.497z M267.924,312.989l-5.82,3.363c-0.241,0.145-0.229,0.374,0,0.53l6.724,3.881c0.143,0.074,0.302,0.113,0.464,0.113
		s0.32-0.039,0.464-0.113l5.808-3.363c0.253-0.145,0.229-0.374,0-0.53l-6.712-3.881c-0.149-0.088-0.318-0.137-0.491-0.141
		c-0.173-0.004-0.344,0.036-0.497,0.117L267.924,312.989z M331.871,276.06l-5.868,3.339c-0.241,0.145-0.229,0.374,0,0.53
		l6.724,3.881c0.143,0.074,0.303,0.113,0.464,0.113s0.32-0.039,0.464-0.113l5.808-3.363c0.253-0.145,0.241-0.374,0-0.53
		l-6.724-3.857c-0.143-0.074-0.303-0.113-0.464-0.113s-0.32,0.039-0.464,0.113H331.871z M351.572,265.213l16.327,9.425
		c0.144,0.071,0.303,0.108,0.464,0.108s0.32-0.037,0.464-0.108l5.82-3.363c0.241-0.145,0.229-0.386,0-0.53l-16.327-9.437
		c-0.144-0.071-0.303-0.108-0.464-0.108c-0.161,0-0.32,0.037-0.464,0.108l-5.808,3.351c-0.349,0.157-0.277,0.398-0.072,0.554
		H351.572z M349.789,266.238c-0.144-0.071-0.303-0.108-0.464-0.108s-0.32,0.037-0.464,0.108l-5.82,3.351
		c-0.241,0.145-0.229,0.386,0,0.542l6.724,3.881c0.144,0.071,0.303,0.108,0.464,0.108s0.32-0.037,0.464-0.108l5.82-3.363
		c0.241-0.145,0.229-0.386,0-0.53L349.789,266.238z M342.234,278.929l5.808-3.363c0.253-0.145,0.241-0.386,0-0.53l-6.724-3.881
		c-0.143-0.074-0.302-0.113-0.464-0.113c-0.161,0-0.32,0.039-0.464,0.113l-5.953,3.339c-0.241,0.133-0.229,0.374,0,0.53l6.724,3.881
		c0.152,0.093,0.325,0.143,0.503,0.148s0.353-0.038,0.509-0.124H342.234z M360.308,279.568l5.808-3.363
		c0.253-0.145,0.241-0.386,0-0.53l-6.724-3.881c-0.143-0.074-0.302-0.113-0.464-0.113s-0.32,0.039-0.464,0.113l-5.82,3.363
		c-0.241,0.133-0.229,0.374,0,0.53l6.724,3.881c0.14,0.07,0.295,0.106,0.452,0.106s0.312-0.036,0.452-0.106H360.308z
		 M256.115,339.733l5.808-3.351c0.253-0.145,0.241-0.386,0-0.542l-6.724-3.881c-0.144-0.071-0.303-0.108-0.464-0.108
		s-0.32,0.037-0.464,0.108l-5.82,3.363c-0.241,0.145-0.229,0.386,0,0.53l6.724,3.893c0.147,0.071,0.308,0.107,0.471,0.105
		C255.81,339.848,255.971,339.808,256.115,339.733z M340.125,260.754c-0.144-0.071-0.303-0.108-0.464-0.108
		c-0.161,0-0.32,0.037-0.464,0.108l-5.808,3.254c-0.253,0.145-0.241,0.386,0,0.542l6.724,3.881c0.143,0.074,0.303,0.113,0.464,0.113
		s0.32-0.039,0.464-0.113l5.82-3.351c0.241-0.145,0.229-0.386,0-0.542L340.125,260.754z M286.721,311.012l5.82-3.363
		c0.241-0.145,0.229-0.386,0-0.53l-6.724-3.893c-0.144-0.071-0.303-0.108-0.464-0.108c-0.161,0-0.32,0.037-0.464,0.108l-5.88,3.278
		c-0.241,0.145-0.229,0.386,0,0.542l6.724,3.881c0.145,0.095,0.311,0.152,0.483,0.166S286.563,311.081,286.721,311.012z
		 M330.739,265.587l-5.82,3.351c-0.241,0.145-0.229,0.386,0,0.542l6.724,3.881c0.144,0.071,0.303,0.108,0.464,0.108
		c0.161,0,0.32-0.037,0.464-0.108l5.808-3.363c0.253-0.145,0.241-0.386,0-0.53l-6.724-3.893c-0.148-0.073-0.312-0.11-0.477-0.108
		c-0.165,0.002-0.328,0.043-0.475,0.12H330.739z M311.953,276.434l-5.808,3.351c-0.253,0.145-0.241,0.386,0,0.542l6.724,3.881
		c0.143,0.074,0.303,0.113,0.464,0.113c0.161,0,0.32-0.039,0.464-0.113l5.82-3.351c0.241-0.145,0.229-0.386,0-0.542l-6.724-3.881
		c-0.15-0.079-0.318-0.121-0.488-0.121c-0.17,0-0.337,0.041-0.488,0.121H311.953z M322.244,270.492l-5.88,3.363
		c-0.241,0.133-0.229,0.374,0,0.53l6.724,3.881c0.144,0.071,0.303,0.108,0.464,0.108s0.32-0.037,0.464-0.108l5.808-3.363
		c0.253-0.145,0.241-0.386,0-0.53l-6.724-3.881c-0.139-0.068-0.291-0.103-0.446-0.103s-0.307,0.035-0.446,0.103H322.244z
		 M247.62,344.638l5.808-3.351c0.253-0.145,0.229-0.386,0-0.542l-6.724-3.881c-0.143-0.074-0.303-0.113-0.464-0.113
		c-0.161,0-0.32,0.039-0.464,0.113l-5.82,3.351c-0.241,0.145-0.229,0.386,0,0.542l6.724,3.881c0.141,0.067,0.295,0.102,0.452,0.102
		s0.311-0.035,0.452-0.102H247.62z M204.242,338.672l-5.808,3.351c-0.253,0.145-0.241,0.386,0,0.542l6.724,3.881
		c0.144,0.071,0.303,0.108,0.464,0.108s0.32-0.037,0.464-0.108l5.82-3.351c0.241-0.145,0.229-0.386,0-0.542l-6.832-3.821
		c-0.144-0.071-0.303-0.108-0.464-0.108s-0.32,0.037-0.464,0.108L204.242,338.672z M212.677,333.767l-5.808,3.351
		c-0.253,0.145-0.229,0.386,0,0.53l6.712,3.893c0.144,0.071,0.303,0.108,0.464,0.108s0.32-0.037,0.464-0.108l5.82-3.351
		c0.241-0.145,0.229-0.386,0-0.542l-6.724-3.881c-0.148-0.08-0.314-0.122-0.482-0.122c-0.168,0-0.334,0.042-0.482,0.122H212.677z
		 M221.172,328.849l-5.808,3.363c-0.253,0.145-0.229,0.386,0,0.53l6.724,3.881c0.143,0.074,0.303,0.113,0.464,0.113
		c0.161,0,0.32-0.039,0.464-0.113l5.808-3.351c0.241-0.145,0.229-0.386,0-0.542l-6.724-3.881c-0.144-0.071-0.303-0.108-0.464-0.108
		S221.316,328.778,221.172,328.849z M238.137,319.015l-5.82,3.363c-0.241,0.145-0.229,0.386,0,0.53l6.724,3.881
		c0.143,0.074,0.303,0.113,0.464,0.113c0.161,0,0.32-0.039,0.464-0.113l5.808-3.363c0.253-0.145,0.229-0.374,0-0.53l-6.724-3.881
		c-0.144-0.068-0.302-0.102-0.461-0.098s-0.315,0.046-0.455,0.122V319.015z M195.651,343.553l-5.808,3.375
		c-0.253,0.145-0.241,0.386,0,0.542l6.724,3.881c0.143,0.074,0.303,0.113,0.464,0.113c0.161,0,0.32-0.039,0.464-0.113l5.82-3.351
		c0.241-0.145,0.229-0.386,0-0.542l-6.736-3.905c-0.144-0.071-0.303-0.108-0.464-0.108S195.795,343.482,195.651,343.553z
		 M229.606,323.944l-5.82,3.363c-0.241,0.145-0.229,0.386,0,0.53l6.724,3.881c0.143,0.074,0.303,0.113,0.464,0.113
		c0.161,0,0.32-0.039,0.464-0.113l5.808-3.363c0.253-0.133,0.229-0.374,0-0.53l-6.724-3.881c-0.142-0.071-0.299-0.108-0.458-0.108
		C229.905,323.836,229.749,323.873,229.606,323.944z M187.336,348.41l-5.82,3.351c-0.241,0.145-0.229,0.386,0,0.542l6.724,3.881
		c0.144,0.071,0.303,0.108,0.464,0.108s0.32-0.037,0.464-0.108l5.808-3.363c0.253-0.145,0.241-0.386,0-0.53l-6.724-3.893
		c-0.173-0.089-0.367-0.128-0.56-0.113c-0.194,0.015-0.379,0.083-0.536,0.198L187.336,348.41z M209.929,376.95
		c0.143,0.074,0.303,0.113,0.464,0.113c0.161,0,0.32-0.039,0.464-0.113l5.82-3.363c0.241-0.145,0.229-0.386,0-0.53l-6.724-3.881
		c-0.143-0.074-0.303-0.113-0.464-0.113c-0.161,0-0.32,0.039-0.464,0.113l-5.82,3.363c-0.241,0.133-0.229,0.374,0,0.53
		L209.929,376.95z M219.352,372.129l5.82-3.363c0.241-0.145,0.229-0.386,0-0.53l-6.724-3.881c-0.143-0.074-0.303-0.113-0.464-0.113
		c-0.161,0-0.32,0.039-0.464,0.113l-5.989,3.302c-0.253,0.133-0.241,0.374,0,0.53l6.724,3.881c0.137,0.081,0.291,0.129,0.45,0.142
		c0.159,0.013,0.318-0.011,0.466-0.07L219.352,372.129z M192.518,364.898c0.143,0.074,0.303,0.113,0.464,0.113
		c0.161,0,0.32-0.039,0.464-0.113l5.808-3.363c0.253-0.145,0.229-0.386,0-0.53l-6.724-3.881c-0.143-0.074-0.303-0.113-0.464-0.113
		c-0.161,0-0.32,0.039-0.464,0.113l-5.808,3.363c-0.241,0.145-0.229,0.374,0,0.53L192.518,364.898z M178.841,353.388l-6.001,3.423
		c-0.241,0.133-0.229,0.374,0,0.53l6.724,3.881c0.144,0.071,0.303,0.108,0.464,0.108c0.161,0,0.32-0.037,0.464-0.108l5.808-3.363
		c0.253-0.145,0.241-0.386,0-0.53l-6.724-3.881c-0.137-0.081-0.292-0.129-0.451-0.14c-0.159-0.01-0.318,0.017-0.465,0.08H178.841z
		 M204.35,369.152c0.143,0.074,0.303,0.113,0.464,0.113c0.161,0,0.32-0.039,0.464-0.113l5.82-3.363c0.241-0.145,0.229-0.386,0-0.53
		l-6.724-3.881c-0.143-0.074-0.303-0.113-0.464-0.113c-0.161,0-0.32,0.039-0.464,0.113l-5.808,3.363
		c-0.253,0.133-0.241,0.374,0,0.53L204.35,369.152z M246.813,314.133l-5.82,3.363c-0.241,0.145-0.229,0.374,0,0.53l6.724,3.881
		c0.143,0.074,0.302,0.113,0.464,0.113c0.161,0,0.32-0.039,0.464-0.113l5.808-3.363c0.253-0.145,0.241-0.386,0-0.53l-6.724-3.881
		c-0.163-0.105-0.354-0.161-0.548-0.161c-0.194,0-0.385,0.056-0.548,0.161H246.813z M255.308,309.228l-5.82,3.363
		c-0.241,0.133-0.229,0.374,0,0.53l6.627,3.917c0.144,0.071,0.303,0.108,0.464,0.108s0.32-0.037,0.464-0.108l5.808-3.363
		c0.253-0.145,0.241-0.386,0-0.53l-6.736-3.893c-0.149-0.088-0.318-0.137-0.491-0.141c-0.173-0.004-0.344,0.036-0.497,0.117H255.308
		z M298.687,315.254l12.857-7.545c0.241-0.145,0.229-0.386,0-0.53l-16.375-9.425c-0.143-0.074-0.303-0.113-0.464-0.113
		c-0.161,0-0.32,0.039-0.464,0.113l-6.7,3.869c-0.253,0.145-0.241,0.386,0,0.542l8.652,4.99c0.265,0.157,0.277,0.398,0,0.53
		l-5.362,3.097c-0.253,0.145-0.229,0.386,0,0.542l6.724,3.881c0.155,0.085,0.329,0.13,0.506,0.13c0.177,0,0.351-0.045,0.506-0.13
		L298.687,315.254z M306.519,299.586l5.808-3.363c0.253-0.145,0.241-0.374,0-0.53l-6.808-3.881
		c-0.143-0.074-0.303-0.113-0.464-0.113c-0.161,0-0.32,0.039-0.464,0.113l-5.82,3.363c-0.241,0.145-0.229,0.374,0,0.53l6.748,3.857
		c0.135,0.07,0.285,0.108,0.437,0.113c0.152,0.004,0.304-0.026,0.443-0.089H306.519z M264.695,334.827l5.82-3.363
		c0.241-0.133,0.229-0.374,0-0.53l-6.724-3.881c-0.144-0.071-0.303-0.108-0.464-0.108s-0.32,0.037-0.464,0.108l-5.82,3.363
		c-0.241,0.145-0.229,0.386,0,0.53l6.724,3.881c0.124,0.052,0.257,0.079,0.392,0.079c0.134,0,0.268-0.027,0.392-0.079H264.695z
		 M273.129,329.922l5.82-3.363c0.241-0.133,0.229-0.374,0-0.53l-6.724-3.881c-0.143-0.074-0.303-0.113-0.464-0.113
		c-0.161,0-0.32,0.039-0.464,0.113l-5.904,3.326c-0.253,0.145-0.241,0.386,0,0.53l6.724,3.881c0.144,0.084,0.305,0.131,0.471,0.137
		s0.331-0.028,0.48-0.101H273.129z M281.624,325.017l5.82-3.363c0.241-0.145,0.229-0.374,0-0.53l-6.724-3.881
		c-0.143-0.074-0.303-0.113-0.464-0.113c-0.161,0-0.32,0.039-0.464,0.113l-5.808,3.363c-0.253,0.145-0.241,0.374,0,0.53l6.724,3.881
		c0.134,0.062,0.28,0.095,0.428,0.095s0.294-0.032,0.428-0.095H281.624z M290.059,320.111l5.82-3.363
		c0.241-0.145,0.229-0.386,0-0.53l-6.724-3.881c-0.143-0.074-0.303-0.113-0.464-0.113c-0.161,0-0.32,0.039-0.464,0.113l-5.808,3.363
		c-0.253,0.133-0.229,0.374,0,0.53l6.712,3.881c0.143,0.074,0.303,0.113,0.464,0.113
		C289.757,320.224,289.916,320.185,290.059,320.111z M263.622,304.323l-5.808,3.351c-0.253,0.145-0.241,0.386,0,0.542l6.736,3.881
		c0.144,0.071,0.303,0.108,0.464,0.108c0.161,0,0.32-0.037,0.464-0.108l5.82-3.363c0.241-0.145,0.229-0.386,0-0.53l-6.748-3.857
		c-0.142-0.078-0.3-0.12-0.461-0.125C263.928,304.218,263.768,304.253,263.622,304.323z M272.117,299.418l-5.808,3.351
		c-0.253,0.145-0.241,0.386,0,0.542l6.724,3.881c0.143,0.074,0.303,0.113,0.464,0.113s0.32-0.039,0.464-0.113l5.82-3.351
		c0.241-0.145,0.229-0.386,0-0.542l-6.724-3.881c-0.146-0.073-0.307-0.111-0.47-0.111
		C272.424,299.306,272.263,299.344,272.117,299.418z M294.927,286.244l-5.82,3.363c-0.241,0.133-0.229,0.374,0,0.53l6.772,3.881
		c0.144,0.071,0.303,0.108,0.464,0.108s0.32-0.037,0.464-0.108l5.808-3.363c0.253-0.145,0.241-0.386,0-0.53l-6.736-3.857
		c-0.145-0.082-0.307-0.127-0.473-0.131C295.24,286.133,295.076,286.17,294.927,286.244z M284.637,292.186l-9.832,5.677
		c-0.253,0.145-0.229,0.386,0,0.542l6.712,3.881c0.144,0.071,0.303,0.108,0.464,0.108s0.32-0.037,0.464-0.108l9.845-5.677
		c0.241-0.145,0.229-0.386,0-0.53l-6.724-3.893c-0.144-0.071-0.303-0.108-0.464-0.108
		C284.94,292.078,284.781,292.115,284.637,292.186z M303.422,281.339l-5.808,3.351c-0.253,0.145-0.241,0.386,0,0.542l6.724,3.881
		c0.144,0.071,0.303,0.108,0.464,0.108c0.161,0,0.32-0.037,0.464-0.108l5.82-3.363c0.241-0.145,0.229-0.386,0-0.53l-6.772-3.857
		c-0.137-0.072-0.288-0.111-0.443-0.116S303.563,281.275,303.422,281.339z M314.893,294.681l5.82-3.363
		c0.241-0.145,0.229-0.386,0-0.53l-6.76-3.881c-0.143-0.074-0.303-0.113-0.464-0.113c-0.161,0-0.32,0.039-0.464,0.113l-5.82,3.363
		c-0.241,0.133-0.229,0.374,0,0.53l6.724,3.881c0.148,0.08,0.314,0.122,0.482,0.122C314.58,294.803,314.745,294.761,314.893,294.681
		z"/>
	<path fill="#263238" d="M286.023,359.016l57.368-33.132c0.971-0.493,2.044-0.75,3.133-0.75c1.089,0,2.162,0.257,3.133,0.75
		l32.895,18.994c1.735,1,1.735,2.615,0,3.616l-57.368,33.132c-0.971,0.493-2.044,0.75-3.133,0.75c-1.089,0-2.162-0.257-3.133-0.75
		l-32.895-18.994C284.299,361.631,284.299,360.004,286.023,359.016z"/>
	<path fill="#0099BB" d="M391.529,199.697h-0.072l-9.796-5.64c-0.566-0.253-1.398,0-2.41,0.747
		c-9.109,6.966-21.364,9.136-31.329,5.954c-0.644-0.602-1.255-1.238-1.832-1.904l-0.181-0.205c-0.287-0.333-0.63-0.614-1.012-0.832
		l-0.169-0.096l-9.808-5.628c-1.121-0.53-2.133,0-2.808,1.663c-9.471,23.538-29.654,47.39-43.113,53.355
		c-1.018,0.457-1.923,1.132-2.651,1.977c-0.967,1.051-1.501,2.429-1.494,3.857l1.94,52.849c0,15.27,6.447,31.396,19.593,39.242
		l10.146,5.857l0.181,0.096c5.485,3.081,11.688,4.657,17.978,4.568c1.41,0,2.844-0.06,4.326-0.205
		c2.883-0.474,5.555-1.81,7.664-3.833c29.413-30.384,43.716-71.506,43.716-94.261l1.88-55.344
		C392.348,200.722,392.059,199.987,391.529,199.697z"/>
	<path fill="#0099BB" d="M392.276,201.914l-1.94,55.284c0,22.755-14.303,63.877-43.716,94.261c-2.109,2.023-4.781,3.359-7.664,3.833
		c-1.482,0.145-2.916,0.205-4.326,0.205c-6.29,0.089-12.493-1.487-17.978-4.568l-0.181-0.096l-0.349-0.217
		c-13.146-7.846-19.593-23.972-19.593-39.242l-1.856-52.849c-0.007-1.428,0.527-2.806,1.494-3.857
		c0.728-0.845,1.633-1.52,2.651-1.977c13.459-6.026,33.642-29.817,43.113-53.356c0.675-1.663,1.699-2.206,2.82-1.675l0.169,0.096
		c0.382,0.217,0.725,0.499,1.012,0.832l0.181,0.205c10.049,11.703,29.811,11.691,43.005,1.591c1-0.759,1.832-1,2.41-0.747h0.072
		C392.059,199.986,392.348,200.721,392.276,201.914z"/>
	<path opacity="0.4" fill="#FFFFFF" d="M391.468,199.624c-0.566-0.253-1.398,0-2.41,0.747c-12.423,9.509-30.678,10.076-41.149,0.313
		c10.013,3.194,22.244,1.024,31.329-5.954c1-0.759,1.832-1,2.41-0.747L391.468,199.624z"/>
	<path opacity="0.4" fill="#FFFFFF" d="M344.692,197.648c-1.121-0.53-2.145,0-2.82,1.675c-9.471,23.538-29.654,47.39-43.113,53.355
		c-1.018,0.457-1.923,1.132-2.651,1.977c-0.253,0.288-0.479,0.599-0.675,0.928l-9.784-5.653c0.195-0.323,0.417-0.63,0.663-0.916
		c0.135-0.157,0.28-0.306,0.434-0.446l0.169-0.169l0.169-0.157c0.557-0.496,1.187-0.902,1.868-1.205
		c13.459-5.966,33.642-29.817,43.113-53.356c0.675-1.663,1.687-2.194,2.808-1.663L344.692,197.648z"/>
	<path fill="#0099BB" d="M286.757,248.545c0.05-0.058,0.107-0.111,0.169-0.157l-0.169,0.169
		C286.757,248.557,286.745,248.545,286.757,248.545z"/>
	<path opacity="0.15" d="M286.926,248.34l-0.169,0.169C286.807,248.446,286.864,248.389,286.926,248.34z"/>
	<path opacity="0.15" d="M316.677,350.917l-0.181-0.084l-10.146-5.869c-13.146-7.846-19.593-23.972-19.593-39.242l-1.94-52.849
		c-0.021-1.041,0.268-2.065,0.831-2.941l9.784,5.653c-0.554,0.875-0.839,1.893-0.819,2.929l1.94,52.849
		c0,15.27,6.447,31.336,19.593,39.242l0.349,0.217L316.677,350.917z"/>
	<path fill="#455A64" d="M351.307,302.298l-15.664,9.039l2.41-28.335c-1.868-0.988-3.073-3.423-3.073-6.93
		c0-6.231,3.796-13.487,8.435-16.186c4.639-2.7,8.435,0.169,8.435,6.4c-0.094,3.698-1.148,7.307-3.061,10.473L351.307,302.298z"/>
	<polygon fill="#37474F" points="351.283,302.298 337.101,294.102 335.619,311.337 	"/>
	<path fill="#37474F" d="M343.463,259.886c-3.073,1.772-5.736,5.484-7.23,9.582l12.664,7.292c1.912-3.166,2.967-6.776,3.061-10.473
		C351.922,260.055,348.138,257.186,343.463,259.886z"/>
	<path fill="#0099BB" d="M167.623,461.388c2.319-1.176,4.883-1.789,7.483-1.789s5.164,0.613,7.483,1.789
		c4.133,2.41,4.133,6.255,0,8.642c-2.319,1.176-4.883,1.789-7.483,1.789s-5.164-0.613-7.483-1.789
		C163.49,467.692,163.49,463.775,167.623,461.388z M147.573,466.896v4.7c0,5.544,3.615,11.076,10.941,15.306
		c11.013,6.352,27.184,7.906,40.74,4.664l12.58,7.231l9.64-2.194l6.591,3.821l0.361,7.967l3.615,2.061l8.929,0.783l6.41,3.616v4.495
		l8.061,4.64h20.484l7.338-4.23v-4.749l-65.477-33.059c2.778-2.72,4.4-6.407,4.531-10.293v-4.821
		c-0.988-4.604-4.82-6.978-10.929-10.51c-14.592-8.437-38.233-8.437-52.825,0C151.959,460.183,148.235,461.943,147.573,466.896z"/>
	<path opacity="0.1" d="M167.623,461.388c2.319-1.176,4.883-1.789,7.483-1.789s5.164,0.613,7.483,1.789
		c4.133,2.41,4.133,6.255,0,8.642c-2.319,1.176-4.883,1.789-7.483,1.789s-5.164-0.613-7.483-1.789
		C163.49,467.692,163.49,463.775,167.623,461.388z M147.573,466.896v4.7c0,5.544,3.615,11.076,10.941,15.306
		c11.013,6.352,27.184,7.906,40.74,4.664l12.58,7.231l9.64-2.194l6.591,3.821l0.361,7.967l3.615,2.061l8.929,0.783l6.41,3.616v4.495
		l8.061,4.64h20.484l7.338-4.23v-4.749l-65.477-33.059c2.778-2.72,4.4-6.407,4.531-10.293v-4.821
		c-0.988-4.604-4.82-6.978-10.929-10.51c-14.592-8.437-38.233-8.437-52.825,0C151.959,460.183,148.235,461.943,147.573,466.896z"/>
	<path fill="#0099BB" d="M167.624,456.64c2.319-1.176,4.883-1.789,7.483-1.789s5.164,0.613,7.483,1.789
		c4.133,2.41,4.133,6.255,0,8.641c-2.319,1.176-4.883,1.789-7.483,1.789s-5.164-0.613-7.483-1.789c-4.133-2.41-4.133-6.267,0-8.654
		V456.64z M158.514,482.154c11.013,6.364,27.184,7.918,40.74,4.664l12.58,7.231l9.64-2.181l6.591,3.809l0.361,7.979l3.615,2.049
		l8.929,0.783l6.965,3.881l-0.554,4.194l8.061,4.652h20.484l7.338-4.23l-65.477-37.82c7.712-8.183,5.591-18.633-6.398-25.551
		c-14.592-8.437-38.233-8.437-52.825,0C143.97,460.05,143.922,473.718,158.514,482.154z"/>
	<path opacity="0.3" d="M184.927,451.12c-8.977,0-17.327,1.965-23.521,5.532c-5.109,2.953-8.037,6.689-8.037,10.244
		s2.928,7.231,8.037,10.232c6.193,3.616,14.544,5.544,23.521,5.544s17.327-1.977,23.521-5.544c5.109-2.953,8.037-6.689,8.037-10.232
		s-2.928-7.231-8.037-10.244C202.254,453.084,193.903,451.12,184.927,451.12z M184.927,484.324c-9.266,0-17.906-2.049-24.34-5.761
		c-5.639-3.254-8.881-7.509-8.881-11.667s3.241-8.437,8.881-11.679c6.434-3.712,15.074-5.761,24.34-5.761
		c9.266,0,17.906,2.049,24.34,5.761c5.639,3.266,8.881,7.509,8.881,11.679s-3.241,8.437-8.881,11.667
		C202.832,482.275,194.193,484.324,184.927,484.324z"/>
	<path opacity="0.1" d="M171.479,486.975v4.821c9.158,1.992,18.644,1.926,27.774-0.193v-4.749
		C190.118,488.944,180.633,488.985,171.479,486.975z"/>
	<polygon opacity="0.1" points="211.821,494.086 211.821,498.835 221.497,496.653 221.497,491.893 	"/>
	<polygon opacity="0.1" points="228.088,495.701 228.088,500.462 228.45,508.44 228.45,503.68 	"/>
	<polygon opacity="0.1" points="232.004,505.729 232.004,510.489 240.933,511.273 240.933,506.512 	"/>
	<rect x="255.392" y="519.239" opacity="0.1" width="20.472" height="4.761"/>
	<polygon opacity="0.15" points="283.203,515.009 283.203,519.758 275.865,524 275.865,519.239 279.082,517.383 279.082,519.432 
		280.853,518.408 280.853,516.335 	"/>
	<polygon fill="#0099BB" points="280.853,516.335 279.082,517.383 279.082,519.432 280.853,518.408 	"/>
	<polygon opacity="0.15" points="280.853,516.335 280.853,518.408 213.713,479.635 215.484,478.587 	"/>
	<polygon opacity="0.15" points="215.484,478.587 215.484,480.66 213.713,479.635 	"/>
	<path fill="#CC8484" d="M507.386,338.202c0.855-31.336-1.663-38.917-10.025-44.666l-3.229,18.187c0,0,3.808,21.441,3.398,28.576
		c-0.361,6.279-0.976,14.125-2.41,19.187c-0.273,0.898-0.865,1.665-1.663,2.157c-1.736,1.226-3.282,2.7-4.591,4.375
		c-1.205,1.314-2.314,1.639-2.157,2.061c0.245,0.459,0.653,0.81,1.144,0.982c0.491,0.172,1.029,0.153,1.507-0.054
		c1.069-0.417,2.082-0.967,3.012-1.639c-0.732,1.928-1.774,3.723-3.085,5.315c-2.988,3.616-3.121,5.906,2.904,5.966
		c3.784,0,6.796-2.302,9.64-10.618c1.105-3.046,1.991-6.168,2.651-9.341C505.867,350.459,507.253,343.252,507.386,338.202z"/>
	<path fill="#27DEBF" d="M490.335,291.15c2.568-0.455,5.214-0.064,7.541,1.114c2.327,1.178,4.209,3.079,5.364,5.418
		c3.506,6.255,4.362,17.03,4.82,27.72c0,0-6.953,5.821-15.291,2.965L490.335,291.15z"/>
	<path opacity="0.7" d="M490.335,291.15c2.568-0.455,5.214-0.064,7.541,1.114c2.327,1.178,4.209,3.079,5.364,5.418
		c3.506,6.255,4.362,17.03,4.82,27.72c0,0-6.953,5.821-15.291,2.965L490.335,291.15z"/>
	<path fill="#263238" d="M502.072,463.811c0.627,0.241,0.783,1.446,0.88,3.845c0.072,1.808,0.47,4.978-1.663,5.616
		c-2.133,0.639-5.242,0.301-6.603-1.41c-1.647-2.292-3.409-4.501-5.278-6.617c-2.097-2.254-4.374-4.375-5.23-7.545
		c-0.759-2.856-0.12-4.098,1.832-4.929c2.687-1.205,6.904,2.591,9.013,3.182C496.83,456.459,501.433,463.57,502.072,463.811z"/>
	<path fill="#CC8484" d="M502.072,461.581v2.953c-1.107,0.705-2.385,1.096-3.697,1.13c-1.312,0.034-2.608-0.29-3.75-0.937
		c-0.133-0.277-0.771-4.206-0.771-4.206L502.072,461.581z"/>
	<path fill="#263238" d="M478.213,480.781c0.518,1.583,0.953,3.192,1.301,4.821c0.361,1.784,0.88,4.821,0.265,6.098
		c-0.615,1.278-3.061,2.206-6.832,2.181c-2.41,0-6.242,1.639-8.844,3.097c-2.603,1.458-8.29,2.097-11.146,1.76
		c-3.35-0.398-6.82-2.338-7.362-3.724c-0.542-1.386,0.169-2.832,8.085-6.207c0.072,0,10.989-3.616,14.809-7.798L478.213,480.781z"/>
	<path fill="#CC8484" d="M478.213,477.599v3.435c0,1.205-1.458,3.109-5.278,2.977c-2.675-0.096-4.555-0.82-4.446-3.025v-3.194
		L478.213,477.599z"/>
	<path fill="#37474F" d="M503.988,422.496c-0.655-5.216-1.821-10.355-3.482-15.343c0,0,1.048-13.258,1.554-25.78
		c0.542-13.559,0-30.589,0.229-33.975c0,0-43.728-8.846-44.511,6.822c-0.783,15.668,1.735,55.549,2.253,62.431
		c0.518,6.882,1.699,12.98,3.121,24.105s5.338,37.013,5.338,37.013c1.512,0.769,3.19,1.154,4.886,1.12
		c1.696-0.034,3.358-0.485,4.838-1.313c0,0,3.085-31.336,2.759-39.278c-0.25-5.883-1.262-11.709-3.012-17.331
		c0,0,0.831-12.92,1.566-24.105c0.735-11.185,1.506-16.644,1.675-21.525l0.94-0.47c0,0,0.964,19.392,1.482,26.274
		c0.518,6.882,1.603,13.474,3.615,26.262c1.735,11.1,6.88,34.566,6.88,34.566c4.989,2.7,7.977-0.362,7.977-0.362
		S505.325,432.126,503.988,422.496z"/>
	<path fill="#263238" d="M481.202,375.311c0,0,10.604-5.243,15.905-9.943c0,0-4.928,6.942-11.399,10.028
		c0,0-2.301,24.105-2.289,23.598l-1.338-23.719L481.202,375.311z"/>
	<polygon fill="#CC8484" points="471.755,286.196 474.345,300.442 487.202,299.502 484.503,283.352 	"/>
	<path fill="#FEAC00" d="M500.794,298.453c-1.265-3.869-6.181-8.087-11.098-7.231c-7.298,1.26-14.488,3.077-21.509,5.436
		c-4.495,1.603-8.603,5.496-8.977,20.308c0,0-1.506,34.518-1.53,41.195c9.394,3.686,19.625,4.696,29.558,2.917
		c13.52-2.953,15.158-8.569,15.158-8.569s0.169-24.828-0.241-35.542C501.794,307.854,501.674,301.117,500.794,298.453z"/>
	<path opacity="0.0225" d="M500.794,298.453c-1.265-3.869-6.181-8.087-11.098-7.231c-7.298,1.26-14.488,3.077-21.509,5.436
		c-4.495,1.603-8.603,5.496-8.977,20.308c0,0-1.506,34.518-1.53,41.195c9.394,3.686,19.625,4.696,29.558,2.917
		c13.52-2.953,15.158-8.569,15.158-8.569s0.169-24.828-0.241-35.542C501.794,307.854,501.674,301.117,500.794,298.453z"/>
	<path fill="#9A4A4D" d="M461.838,268.829c0,0-3.265,5.207-2.868,5.701s2.892,0.892,2.892,0.892L461.838,268.829z"/>
	<path fill="#CC8484" d="M470.887,254.474c-6.796,1.591-8.7,4.64-9.097,15.523c-0.422,11.353,0.819,14.897,2.338,16.391
		c1.036,1.012,6.627,1.073,9.435,0.229c3.506-1.049,11.423-4.062,15.026-9.847c4.241-6.822,5.193-15.945,0.41-19.573
		C482.25,252.088,473.659,253.824,470.887,254.474z"/>
	<path fill="#263238" d="M461.862,257.307c1.56,2.274,3.763,4.033,6.326,5.05c1.301,1.482,0.59,7.231,2.88,8.196
		c0,0,0.988-4.218,4.531-3.76c3.543,0.458,4.157,4.966,1.976,7.774c-2.181,2.808-4.29,1.796-4.29,1.796s0.241,6.026,2.976,9.328
		c0,0,3.036,0.916,8.579-0.398c3.398-0.807,8.133-5.182,10.061-9.75c4.085-9.642,4.181-18.283-1.976-20.73
		c-0.759-4.399-4.278-6.291-8.254-7.111c-8.567-1.772-14.086,3.616-20.677,3.109C460.223,250.545,459.525,253.293,461.862,257.307z"
		/>
	<path fill="#263238" d="M493.058,256.282l4.037-2.495c-0.13-0.328-0.33-0.623-0.586-0.865c-0.256-0.242-0.562-0.425-0.897-0.536
		c-0.334-0.111-0.689-0.147-1.039-0.106c-0.35,0.041-0.687,0.158-0.986,0.343c-0.3,0.185-0.555,0.434-0.748,0.729
		c-0.193,0.295-0.32,0.628-0.37,0.977c-0.05,0.349-0.024,0.704,0.078,1.042C492.649,255.709,492.824,256.02,493.058,256.282z"/>
	<path fill="#CC8484" d="M413.772,322.305c2.109,0.94,27.039,19.356,30.919,17.211c3.88-2.145,23.822-25.442,23.822-25.442
		c1.685-2.603,2.581-5.637,2.581-8.738s-0.896-6.135-2.581-8.738c0,0-6.386,1.205-9.736,6.243
		c-3.35,5.038-17.785,23.177-17.785,23.177c-3.567-1.784-7.125-3.592-10.676-5.424c-2.916-1.519-5.844-3.025-8.7-4.652
		c-0.803-0.372-1.559-0.837-2.253-1.386c-1.41-1.398-1.205-4.821-1.133-6.605c0-0.856,0-1.711,0.121-2.567
		c0.12-1.049,0.325-3.616-1.566-2.796c-0.358,0.171-0.669,0.428-0.904,0.747c-0.291,0.392-0.518,0.827-0.675,1.29
		c-0.349,1.109-0.241,2.326-0.566,3.447c-0.039,0.165-0.118,0.318-0.229,0.446c-0.168,0.131-0.378,0.195-0.59,0.181
		c-2.747-0.084-5.35-3.941-6.615-6.026c-0.438-0.994-1.164-1.834-2.085-2.41c-1.494-0.711-3.302,0.301-4.278,1.651
		c-1.176,1.774-1.656,3.92-1.35,6.026c0.254,2.883,1.538,5.578,3.615,7.593C406.248,318.385,409.855,320.676,413.772,322.305z"/>
	<path fill="#27DEBF" d="M470.598,295.85c-2.747,0.313-7.314,0.518-11.797,5.592c-5.278,5.954-12.158,15.596-12.158,15.596
		c0.703,2.852,2.214,5.44,4.351,7.454s4.81,3.368,7.698,3.9c0,0,9.435-9.642,12.05-14.993
		C473.357,308.047,473.791,299.442,470.598,295.85z"/>
	<path opacity="0.7" d="M470.598,295.85c-2.747,0.313-7.314,0.518-11.797,5.592c-5.278,5.954-12.158,15.596-12.158,15.596
		c0.703,2.852,2.214,5.44,4.351,7.454s4.81,3.368,7.698,3.9c0,0,9.435-9.642,12.05-14.993
		C473.357,308.047,473.791,299.442,470.598,295.85z"/>
</g>
</svg>
