<svg width="21" height="21" viewBox="0 0 21 21" fill="none" xmlns="http://www.w3.org/2000/svg">
<g clip-path="url(#clip0)">
<path d="M20.3436 8.97147L20.2693 2.61733C20.2657 2.30647 20.0424 2.04045 19.7374 1.9806C19.4447 1.92326 15.44 2.21353 10.7749 0.060416C10.6003 -0.0201387 10.3994 -0.0201387 10.2248 0.060416C7.44267 1.34449 4.50497 1.96834 1.31236 1.96834C0.949941 1.96834 0.656105 2.26218 0.656105 2.62459V8.97914C0.656105 14.7459 4.68515 19.7688 10.3623 20.9854C10.4529 21.0048 10.5467 21.0049 10.6373 20.9854C16.4152 19.7473 20.3875 14.5866 20.3436 8.97147ZM10.4999 19.6717C5.548 18.543 1.9686 14.069 1.9686 8.97914V3.27653C4.89322 3.21796 7.82756 2.56487 10.4999 1.37669C13.152 2.55589 16.0618 3.20808 18.9644 3.2751L19.0311 8.98287C19.0293 14.0712 15.4505 18.5433 10.4999 19.6717Z" fill="white"/>
<path d="M13.7811 8.53125H13.1249V7.54688C13.1249 6.09943 11.9473 4.92188 10.4999 4.92188C9.05242 4.92188 7.87486 6.09943 7.87486 7.54688V8.53125H7.21861C6.85619 8.53125 6.56236 8.82509 6.56236 9.1875V14.4375C6.56236 14.7999 6.85619 15.0938 7.21861 15.0938H13.7811C14.1435 15.0938 14.4374 14.7999 14.4374 14.4375V9.1875C14.4374 8.82509 14.1436 8.53125 13.7811 8.53125ZM9.18736 7.54688C9.18736 6.82315 9.77614 6.23438 10.4999 6.23438C11.2236 6.23438 11.8124 6.82315 11.8124 7.54688V8.53125H9.18736V7.54688ZM13.1249 13.7812H7.87486V9.84375H13.1249V13.7812Z" fill="white"/>
<path d="M10.4999 10.8281C10.1374 10.8281 9.84361 11.122 9.84361 11.4844V12.1406C9.84361 12.503 10.1374 12.7969 10.4999 12.7969C10.8623 12.7969 11.1561 12.503 11.1561 12.1406V11.4844C11.1561 11.122 10.8623 10.8281 10.4999 10.8281Z" fill="white"/>
</g>
<defs>
<clipPath id="clip0">
<rect width="21" height="21" fill="white"/>
</clipPath>
</defs>
</svg>
