<svg width="32" height="32" viewBox="0 0 32 32" fill="none" xmlns="http://www.w3.org/2000/svg">
<g clip-path="url(#clip0)">
<path d="M21.7087 9.69678C21.3638 9.69678 21.0837 9.97607 21.0837 10.3215C21.0837 10.6667 21.3638 10.9465 21.7087 10.9465C22.0544 10.9465 22.3337 10.6667 22.3337 10.3215C22.3337 9.97607 22.0544 9.69678 21.7087 9.69678Z" fill="#0099BB"/>
<path d="M10.3528 21.0525C10.0071 21.0525 9.72778 21.3325 9.72778 21.6775C9.72778 22.0232 10.0071 22.3025 10.3528 22.3025C10.6978 22.3025 10.9778 22.0232 10.9778 21.6775C10.9778 21.3325 10.6978 21.0525 10.3528 21.0525Z" fill="#0099BB"/>
<path d="M31.2537 3.84503C31.0427 3.79596 30.8211 3.85968 30.6687 4.01349L28.0777 6.62506H26.8355L25.468 5.20831V3.94879L28.022 1.35675C28.1731 1.20343 28.2346 0.98297 28.1846 0.773253C28.1348 0.56378 27.9805 0.394835 27.7764 0.325987C27.1348 0.109679 26.4634 5.92949e-05 25.7805 5.92949e-05C23.7449 5.92949e-05 21.8955 0.949279 20.7066 2.60431C19.5938 4.15363 19.2507 6.05231 19.7422 7.86945L15.1384 12.4732L7.46851 4.78571V3.27692C7.46851 3.05743 7.35328 2.85382 7.16504 2.74103L2.74585 0.0891707C2.49976 -0.0585345 2.18506 -0.0197161 1.98242 0.183165L0.214844 1.9505C0.012207 2.15338 -0.0266113 2.46808 0.12085 2.71417L2.77222 7.13336C2.88501 7.3216 3.08838 7.43659 3.30786 7.43683L4.81616 7.43732L12.4868 15.1248L7.90064 19.711C6.0835 19.2198 4.18384 19.5633 2.63379 20.6768C0.979737 21.8651 0.03125 23.7139 0.03125 25.7496C0.03125 26.4322 0.140869 27.1038 0.357178 27.7452C0.42627 27.9505 0.596924 28.1055 0.807862 28.1544C1.01904 28.2034 1.24048 28.1397 1.39307 27.9859L3.98389 25.3746H5.23291L6.65601 26.7977V28.0467L4.04468 30.6375C3.89087 30.7901 3.82715 31.0116 3.87622 31.2227C3.92505 31.4337 4.08008 31.6043 4.2854 31.6734C4.92676 31.8897 5.59839 31.9993 6.28101 31.9993C8.31666 31.9993 10.1653 31.0506 11.3538 29.3966C12.4673 27.8465 12.8108 25.9471 12.3196 24.13L16.0029 20.4466L16.8467 21.3631L16.4595 21.7501C16.2153 21.9942 16.2153 22.39 16.4595 22.6341C16.7036 22.878 17.0991 22.878 17.3435 22.6341L17.6941 22.2835L25.6106 30.8826C25.6165 30.889 25.6226 30.8951 25.6287 30.9012C27.0935 32.366 29.4668 32.3665 30.9324 30.901C32.3938 29.4388 32.3938 27.0596 30.9324 25.5975C30.926 25.5911 30.9195 25.585 30.9129 25.5789L22.3003 17.6776L22.647 17.3309C22.8911 17.087 22.8911 16.6912 22.647 16.4471C22.4028 16.2029 22.0073 16.2029 21.763 16.4471L21.3784 16.8319L20.4602 15.9891L24.1614 12.2879C24.6875 12.4285 25.2305 12.4998 25.7805 12.4998C29.2268 12.4998 32.0303 9.69611 32.0303 6.25006C32.0303 5.5672 31.9207 4.89581 31.7044 4.25421C31.6353 4.04889 31.4646 3.89386 31.2537 3.84503ZM5.51783 6.37091C5.40064 6.25348 5.2417 6.19367 5.07569 6.19367L3.66211 6.19318L1.44385 2.48956L2.52124 1.41217L6.21851 3.63092V5.0445C6.21851 5.21002 6.28418 5.36871 6.40113 5.4859L14.2546 13.3572L13.3706 14.241L5.51783 6.37091ZM21.4155 18.5623L30.0574 26.4903C31.0227 27.4659 31.0198 29.0455 30.0484 30.0174C29.0747 30.991 27.4986 30.994 26.521 30.026L18.5786 21.3988L21.4155 18.5623ZM20.4937 17.7164L17.7312 20.4783L16.8875 19.5618L19.5755 16.8736L20.4937 17.7164ZM25.7805 11.2498C25.2339 11.2498 24.6963 11.1622 24.1831 10.9893C23.9583 10.9139 23.7097 10.972 23.5418 11.1397C20.4085 14.273 13.657 21.0242 11.1709 23.5106C11.0029 23.6785 10.9446 23.9271 11.0205 24.1522C11.54 25.6949 11.2915 27.3404 10.3384 28.6673C9.38795 29.9903 7.90894 30.7493 6.28101 30.7493C6.09815 30.7493 5.91626 30.7393 5.73609 30.72L7.7212 28.7503C7.83936 28.6331 7.90601 28.4735 7.90601 28.3067V26.5386C7.90601 26.3729 7.84009 26.2139 7.72291 26.0968L5.9336 24.3074C5.81641 24.1903 5.65747 24.1243 5.4917 24.1243H3.72363C3.55689 24.1243 3.39722 24.191 3.27979 24.3092L1.3103 26.2943C1.29077 26.1141 1.28101 25.9322 1.28101 25.7493C1.28101 24.1212 2.0398 22.6424 3.36304 21.692C4.6897 20.7388 6.33545 20.4901 7.87842 21.0098C8.10328 21.0858 8.35181 21.0274 8.51978 20.8594C8.5542 20.8253 20.8818 8.49738 20.8906 8.48859C21.0586 8.32062 21.1167 8.07233 21.041 7.84723C20.5213 6.30451 20.7693 4.65949 21.7217 3.33356C22.6729 2.00934 24.1521 1.25006 25.7803 1.25006C25.9688 1.25006 26.156 1.26056 26.3416 1.28107L24.3977 3.25397C24.2825 3.37091 24.218 3.52838 24.218 3.69244V5.46051C24.218 5.62262 24.2808 5.77814 24.3933 5.89459L26.1201 7.6839C26.2378 7.80597 26.4002 7.87482 26.5698 7.87482H28.3379C28.5044 7.87482 28.6641 7.80841 28.7815 7.69001L30.751 5.70514C30.7705 5.88532 30.7803 6.0672 30.7803 6.25006C30.7803 9.0069 28.5374 11.2498 25.7805 11.2498Z" fill="#0099BB"/>
<path d="M19.4993 11.6472L11.6782 19.4683C11.4343 19.7122 11.4343 20.1079 11.6782 20.3521C11.9224 20.5962 12.3181 20.5962 12.5623 20.3521L20.3833 12.531C20.6274 12.2871 20.6274 11.8914 20.3833 11.6472C20.1392 11.4031 19.7434 11.4031 19.4993 11.6472Z" fill="#0099BB"/>
<path d="M27.3972 28.25C27.6414 28.4934 28.0371 28.4934 28.2813 28.2486C28.5249 28.0042 28.5242 27.6084 28.2798 27.3648L22.6462 21.7493C22.4019 21.5056 22.0059 21.5064 21.7625 21.7508C21.5186 21.9954 21.5193 22.3909 21.7637 22.6346L27.3972 28.25Z" fill="#0099BB"/>
</g>
<defs>
<clipPath id="clip0">
<rect width="31.9375" height="32" fill="white"/>
</clipPath>
</defs>
</svg>
