<svg width="20" height="20" viewBox="0 0 20 20" fill="none" xmlns="http://www.w3.org/2000/svg">
<path d="M17.0711 2.92891C15.1823 1.0402 12.6711 0 10 0C7.32891 0 4.8177 1.0402 2.92891 2.92891C1.0402 4.8177 0 7.32891 0 10C0 12.6711 1.0402 15.1823 2.92891 17.0711C4.8177 18.9598 7.32891 20 10 20C12.6711 20 15.1823 18.9598 17.0711 17.0711C18.9598 15.1823 20 12.6711 20 10C20 7.32891 18.9598 4.8177 17.0711 2.92891ZM10.5859 6.26078C11.6437 6.22895 12.6735 6.11129 13.6407 5.9159C13.9121 6.99387 14.0729 8.17898 14.1116 9.41406H10.5859V6.26078ZM10.5859 5.08832V1.27047C11.3956 1.54066 12.1809 2.3584 12.8043 3.60527C12.9889 3.97449 13.1554 4.37086 13.3031 4.78988C12.4437 4.9568 11.5286 5.05844 10.5859 5.08832ZM9.41406 1.27047V5.08832C8.47141 5.05844 7.55633 4.95676 6.69691 4.78992C6.84457 4.37086 7.01109 3.97453 7.1957 3.60531C7.81914 2.3584 8.60441 1.54066 9.41406 1.27047ZM9.41406 6.26078V9.41406H5.8884C5.92715 8.17902 6.08785 6.99387 6.35926 5.9159C7.32648 6.11129 8.35629 6.22895 9.41406 6.26078ZM4.71605 9.41406H1.19148C1.30246 7.70914 1.89641 6.09789 2.90805 4.73988C3.5943 5.10027 4.37445 5.40305 5.22105 5.64164C4.92789 6.81039 4.75543 8.08836 4.71605 9.41406ZM4.71605 10.5859C4.75543 11.9116 4.92789 13.1896 5.22105 14.3583C4.37445 14.5969 3.5943 14.8997 2.90805 15.2601C1.89641 13.9021 1.30246 12.2909 1.19148 10.5859H4.71605ZM5.8884 10.5859H9.41406V13.7392C8.35629 13.7711 7.32648 13.8887 6.35926 14.0841C6.08785 13.0061 5.92711 11.821 5.8884 10.5859ZM9.41406 14.9117V18.7295C8.60441 18.4593 7.81914 17.6416 7.1957 16.3947C7.01109 16.0255 6.84457 15.6291 6.69691 15.2101C7.55633 15.0432 8.47141 14.9416 9.41406 14.9117ZM10.5859 18.7295V14.9117C11.5286 14.9416 12.4437 15.0432 13.3031 15.2101C13.1554 15.6291 12.9889 16.0255 12.8043 16.3947C12.1809 17.6416 11.3956 18.4593 10.5859 18.7295ZM10.5859 13.7392V10.5859H14.1116C14.0729 11.821 13.9121 13.0061 13.6407 14.0841C12.6735 13.8887 11.6437 13.7711 10.5859 13.7392ZM15.2839 10.5859H18.8085C18.6975 12.2909 18.1036 13.9021 17.092 15.2601C16.4057 14.8997 15.6255 14.597 14.7789 14.3584C15.0721 13.1896 15.2446 11.9117 15.2839 10.5859ZM15.2839 9.41406C15.2446 8.08832 15.0721 6.81039 14.7789 5.64164C15.6255 5.40305 16.4057 5.10027 17.092 4.73988C18.1036 6.09785 18.6975 7.70914 18.8085 9.41406H15.2839ZM16.3075 3.82426C15.7476 4.0973 15.1225 4.33039 14.4487 4.51965C14.2748 4.0098 14.0759 3.52801 13.8525 3.08117C13.5873 2.55094 13.2953 2.08492 12.9816 1.68566C14.1938 2.11945 15.305 2.82012 16.2424 3.75754C16.2644 3.77957 16.2858 3.80207 16.3075 3.82426ZM7.0184 1.6857C6.70469 2.08496 6.41266 2.55098 6.14754 3.08121C5.92414 3.52805 5.72512 4.0098 5.55129 4.51969C4.87746 4.33043 4.2523 4.0973 3.69246 3.8243C3.71422 3.80211 3.73555 3.77961 3.75754 3.75758C4.695 2.82016 5.80617 2.11949 7.0184 1.6857ZM3.69246 16.1757C4.25234 15.9027 4.87746 15.6696 5.55129 15.4804C5.72512 15.9902 5.9241 16.472 6.14754 16.9188C6.41266 17.4491 6.70469 17.9151 7.0184 18.3143C5.80613 17.8805 4.695 17.1799 3.75754 16.2425C3.73555 16.2204 3.71422 16.1979 3.69246 16.1757ZM12.9816 18.3143C13.2953 17.915 13.5873 17.4491 13.8525 16.9188C14.0759 16.472 14.2748 15.9902 14.4487 15.4803C15.1225 15.6696 15.7476 15.9027 16.3075 16.1757C16.2857 16.1979 16.2644 16.2204 16.2424 16.2424C15.305 17.1798 14.1939 17.8805 12.9816 18.3143Z" fill="white"/>
</svg>
